<svg xmlns="http://www.w3.org/2000/svg" width="883" height="869" viewBox="0 0 883 869">
  <g id="Group_11236" data-name="Group 11236" transform="translate(217 164)">
    <ellipse id="Ellipse_383" data-name="Ellipse 383" cx="441.5" cy="434.5" rx="441.5" ry="434.5" transform="translate(-217 -164)" fill="#ffd9d9"/>
    <g id="Group_11060" data-name="Group 11060" transform="translate(-5233.783 -1446.521)">
      <path id="Path_8440" data-name="Path 8440" d="M233.132,0C361.888,0,466.265,104.377,466.265,233.132a232.273,232.273,0,0,1-53.439,148.54c-15.353,18.574-67.483-2.431-119.348-2.121-62.618.374-128.852,18.7-180.456,5.044-24.082-6.372-51.965,6.418-60.714-4.3A232.026,232.026,0,0,1,0,233.132C0,104.377,104.377,0,233.132,0Z" transform="translate(5367.464 1713.266)" fill="#5472a0"/>
      <g id="SEO" transform="translate(5364.783 1738.194)">
        <g id="Group_47" data-name="Group 47" transform="translate(376.944 254.847)">
          <path id="Path_79" data-name="Path 79" d="M9.1.5H34.024V4.617s8.5,1.856,8.87,10.574-8.87,13.561-8.87,13.561H9.1S.3,24.554.89,15.191,9.1,4.052,9.1,4.052Z" transform="translate(3.053 60.634)" fill="#276698" stroke="#000" stroke-width="1.5"/>
          <g id="Group_45" data-name="Group 45" transform="matrix(0.995, -0.105, 0.105, 0.995, 0, 24.428)">
            <path id="Path_85" data-name="Path 85" d="M.352.13c1.77-1.109,8.2,5.117,11.941,10.32s2.175,10.192,3.028,10.491,2.047-10.917,7.634-9.211,0,3.678,0,6.781.65,3.6,0,5.757-1.8.842-2.6,2.857.661,3.6-.6,5.2-5.032,1.066-5.032,1.066A11.607,11.607,0,0,0,11.7,28.02c-2.378-2.282-5.587-2.175-6.482-3.753s1.215-3.348,0-9.382S-1.418,1.238.352.13Z" transform="translate(0 0)" fill="#4783d8" stroke="#000" stroke-width="1.5"/>
            <path id="Path_86" data-name="Path 86" d="M0,0A36.562,36.562,0,0,1,5.723,9.882,64.947,64.947,0,0,1,8.756,23.141" transform="translate(6.778 9.25)" fill="none" stroke="#000" stroke-width="1.5" opacity="0.25"/>
            <path id="Path_87" data-name="Path 87" d="M0,15.01A34.653,34.653,0,0,1,1.159,5.629,12.073,12.073,0,0,1,5.005,0" transform="translate(16.157 17.068)" fill="none" stroke="#000" stroke-width="1.5" opacity="0.25"/>
          </g>
          <g id="Group_46" data-name="Group 46" transform="translate(9.983 0)">
            <path id="Path_78" data-name="Path 78" d="M0,0S3.571,6.568,3.907,18.526s-2.56,29.305-2.56,29.305" transform="translate(19.708 9.896)" fill="none" stroke="#000" stroke-width="1.5"/>
            <path id="Path_79-2" data-name="Path 79" d="M7.932,0c3.732,0,6.757,1.508,6.757,3.368S11.664,6.737,7.932,6.737.125,3.428,0,2.729,4.2,0,7.932,0Z" transform="matrix(0.809, -0.588, 0.588, 0.809, 22.816, 22.429)" fill="#7ba7e6" stroke="#000" stroke-width="1.5"/>
            <path id="Path_80" data-name="Path 80" d="M13.991,0c6.582,0,11.918,2.819,11.918,6.3s-5.336,6.3-11.918,6.3S.221,6.407,0,5.1,7.409,0,13.991,0Z" transform="matrix(0.809, -0.588, 0.588, 0.809, 19.782, 42.761)" fill="#7ba7e6" stroke="#000" stroke-width="1.5"/>
            <path id="Path_81" data-name="Path 81" d="M8.753,0c4.118,0,7.456,1.961,7.456,4.381S12.871,8.761,8.753,8.761.138,4.458,0,3.55,4.635,0,8.753,0Z" transform="translate(19.649 55.838) rotate(-141)" fill="#7ba7e6" stroke="#000" stroke-width="1.5"/>
            <path id="Path_82" data-name="Path 82" d="M12.965,0c6.1,0,11.044,2.9,11.044,6.488s-4.945,6.488-11.044,6.488S.2,6.6,0,5.257,6.865,0,12.965,0Z" transform="translate(18.659 40.394) rotate(-141)" fill="#7ba7e6" stroke="#000" stroke-width="1.5"/>
            <path id="Path_83" data-name="Path 83" d="M4.741,0c2.23,0,4.038,1.062,4.038,2.373S6.971,4.745,4.741,4.745A6.643,6.643,0,0,1,0,1.922C-.072,1.431,2.51,0,4.741,0Z" transform="translate(21.525 19.002) rotate(-159)" fill="#7ba7e6" stroke="#000" stroke-width="1.5"/>
            <path id="Path_84" data-name="Path 84" d="M5.575,0C8.2,0,10.324.939,10.324,2.1S8.2,4.2,5.575,4.2.088,2.135,0,1.7,2.952,0,5.575,0Z" transform="matrix(0.342, -0.94, 0.94, 0.342, 18, 9.702)" fill="#7ba7e6" stroke="#000" stroke-width="1.5"/>
          </g>
          <g id="Rectangle_13" data-name="Rectangle 13" transform="translate(10.129 54.249)" fill="#276698" stroke="#000" stroke-width="1.5">
            <rect width="29.57" height="6.958" stroke="none"/>
            <rect x="0.75" y="0.75" width="28.07" height="5.458" fill="none"/>
          </g>
        </g>
        <g id="Group_48" data-name="Group 48" transform="translate(8.057 190.642)">
          <path id="Path_88" data-name="Path 88" d="M24.434,2.2C47.376,1.843,48.3,24.785,48.3,24.785H0S1.492,2.553,24.434,2.2Z" transform="translate(5.691 128.633)" fill="#5855b0" stroke="#000" stroke-width="1.5"/>
          <path id="Path_89" data-name="Path 89" d="M24.434,0C47.376-.351,48.3,22.591,48.3,22.591H0S1.492.359,24.434,0Z" transform="translate(42.407 36.452) rotate(-49)" fill="#5855b0" stroke="#000" stroke-width="1.5"/>
          <path id="Path_90" data-name="Path 90" d="M11.723,0c11.007-.188,11.45,11.974,11.45,11.974H0S.716.19,11.723,0Z" transform="translate(92.11 31.848) rotate(131)" fill="#ffc670" stroke="#000" stroke-width="1.5"/>
          <g id="Rectangle_14" data-name="Rectangle 14" transform="matrix(0.985, -0.174, 0.174, 0.985, 8.876, 57.695)" fill="none" stroke="#000" stroke-width="1.5">
            <rect width="5.682" height="78.842" stroke="none"/>
            <rect x="0.75" y="0.75" width="4.182" height="77.342" fill="none"/>
          </g>
          <g id="Rectangle_15" data-name="Rectangle 15" transform="translate(4.018 86.842) rotate(-135)" fill="none" stroke="#000" stroke-width="1.5">
            <rect width="5.682" height="78.842" stroke="none"/>
            <rect x="0.75" y="0.75" width="4.182" height="77.342" fill="none"/>
          </g>
        </g>
        <g id="Group_55" data-name="Group 55" transform="translate(0 343.416)">
          <g id="Rectangle_93" data-name="Rectangle 93" transform="translate(0)" fill="#20385b" stroke="#000" stroke-width="1.5">
            <rect width="476.6" height="21.768" rx="10.884" stroke="none"/>
            <rect x="0.75" y="0.75" width="475.1" height="20.268" rx="10.134" fill="none"/>
          </g>
        </g>
        <g id="Group_57" data-name="Group 57" transform="translate(299.709 0)">
          <g id="Rectangle_15-2" data-name="Rectangle 15" transform="translate(14.689 11.011)" fill="#171e30" stroke="#000" stroke-width="1.5" opacity="0.5">
            <rect width="107.19" height="144.378" rx="3" stroke="none"/>
            <rect x="0.75" y="0.75" width="105.69" height="142.878" rx="2.25" fill="none"/>
          </g>
          <g id="Rectangle_90" data-name="Rectangle 90" transform="translate(24.476 0)" fill="#ffefbe" stroke="#000" stroke-width="1.5">
            <rect width="107.19" height="144.378" rx="3" stroke="none"/>
            <rect x="0.75" y="0.75" width="105.69" height="142.878" rx="2.25" fill="none"/>
          </g>
          <g id="Group_5" data-name="Group 5" transform="translate(137.499 140.477)">
            <path id="Path_27" data-name="Path 27" d="M0,.156,3.1,1.31,6.248,0,4.421,2.338,6.488,5.607,3.138,4.2.235,6.013,1.809,2.968Z" transform="matrix(0.616, 0.788, -0.788, 0.616, 4.738, 14.95)" fill="#fff" stroke="#000" stroke-width="1.5"/>
            <path id="Path_29" data-name="Path 29" d="M0,.091,1.807.762,3.636,0,2.573,1.361l1.2,1.9-1.949-.82L.137,3.5l.916-1.772Z" transform="matrix(0.616, 0.788, -0.788, 0.616, 5.571, 0)" fill="#fff" stroke="#000" stroke-width="1.5"/>
            <path id="Path_28" data-name="Path 28" d="M0,.247,4.916,2.074,9.894,0,7,3.7l3.273,5.175-5.3-2.231L.372,9.521,2.864,4.7Z" transform="matrix(0.616, 0.788, -0.788, 0.616, 11.87, 3.488)" fill="#fff" stroke="#000" stroke-width="1.5"/>
          </g>
          <g id="Group_6" data-name="Group 6" transform="translate(0 0)">
            <path id="Path_30" data-name="Path 30" d="M0,.247,4.916,2.074,9.894,0,7,3.7l3.273,5.175-5.3-2.231L.372,9.521,2.864,4.7Z" transform="matrix(0.616, 0.788, -0.788, 0.616, 7.503, 0)" fill="#fff" stroke="#000" stroke-width="1.5"/>
            <path id="Path_31" data-name="Path 31" d="M0,.078l1.561.58L3.141,0,2.222,1.175,3.261,2.818,1.577,2.11.118,3.022l.791-1.53Z" transform="matrix(0.017, 1, -1, 0.017, 14.323, 14.212)" fill="#fff" stroke="#000" stroke-width="1.5"/>
          </g>
          <rect id="Rectangle_98" data-name="Rectangle 98" width="31.04" height="26.337" transform="translate(39.089 23.471)" fill="#fff"/>
          <rect id="Rectangle_99" data-name="Rectangle 99" width="42.61" height="16.931" transform="translate(74.551 23.471)" fill="#fff"/>
          <rect id="Rectangle_100" data-name="Rectangle 100" width="42.61" height="5.644" transform="translate(74.551 44.165)" fill="#0dffa4"/>
          <rect id="Rectangle_101" data-name="Rectangle 101" width="78.071" height="8.466" transform="translate(39.089 59.58)" fill="#fff"/>
          <rect id="Rectangle_102" data-name="Rectangle 102" width="78.071" height="8.466" transform="translate(39.089 77.323)" fill="#fff"/>
          <rect id="Rectangle_103" data-name="Rectangle 103" width="78.071" height="8.466" transform="translate(39.089 95.592)" fill="#fff"/>
          <rect id="Rectangle_104" data-name="Rectangle 104" width="78.071" height="8.466" transform="translate(39.089 113.862)" fill="#fff"/>
        </g>
        <g id="Rectangle_105" data-name="Rectangle 105" transform="translate(370.471 63.803)" fill="#fff" stroke="#000" stroke-width="1.5">
          <rect width="88.13" height="17.974" stroke="none"/>
          <rect x="0.75" y="0.75" width="86.63" height="16.474" fill="none"/>
        </g>
        <g id="Ellipse_3" data-name="Ellipse 3" transform="translate(177.706 401.99)" fill="#fff" stroke="#000" stroke-width="1.5">
          <circle cx="4.969" cy="4.969" r="4.969" stroke="none"/>
          <circle cx="4.969" cy="4.969" r="4.219" fill="none"/>
        </g>
        <path id="ic_search_24px" d="M10.5,9.6H10.03l-.168-.162a3.908,3.908,0,1,0-.42.42l.162.168V10.5l3,3,.895-.895Zm-3.6,0A2.7,2.7,0,1,1,9.6,6.9,2.7,2.7,0,0,1,6.9,9.6Z" transform="translate(435.583 64.682)" fill="#d67782" stroke="#000" stroke-width="1.5"/>
        <g id="Group_102" data-name="Group 102" transform="translate(115.981 83.292)">
          <path id="Path_56" data-name="Path 56" d="M15,18.359C40.494,5.367,73.386,4.38,101.837,16.55s23.189,59.288,23.189,59.288H.037A98.331,98.331,0,0,1-2,51.187C-1.378,38.824,2.435,24.764,15,18.359Z" transform="translate(57.894 80.81)" fill="#fff" stroke="#000" stroke-width="1.5"/>
          <path id="Path_20" data-name="Path 20" d="M3.971,0H27.983a23.149,23.149,0,0,0,1.392,8.745c1.653,4.087,4.7,9.361,4.18,10.42s-6.007,4.281-14.272,4.788S1.971,20.929,1.013,19.518,3.667,13.149,4.667,8.745A16.792,16.792,0,0,0,3.971,0Z" transform="translate(102.349 71.905)" fill="#ffd0a2" stroke="#000" stroke-width="1.5"/>
          <g id="Group_1" data-name="Group 1" transform="translate(0 130.7)">
            <g id="Rectangle_4" data-name="Rectangle 4" transform="translate(0 105.1)" fill="#20815d" stroke="#000" stroke-width="1.5">
              <rect width="244.945" height="25.189" rx="12.595" stroke="none"/>
              <rect x="0.75" y="0.75" width="243.445" height="23.689" rx="11.845" fill="none"/>
            </g>
            <g id="Path_73" data-name="Path 73" transform="translate(19.891 0)" fill="#20815d">
              <path d="M 191.9364776611328 117.3791885375977 L 7.397434711456299 117.3791885375977 C 3.73203444480896 117.3791885375977 0.7500095367431641 114.3971633911133 0.7500095367431641 110.7317352294922 L 0.7500095367431641 7.397436618804932 C 0.7500095367431641 3.732036590576172 3.73203444480896 0.7500116229057312 7.397434711456299 0.7500116229057312 L 191.9364776611328 0.7500116229057312 C 195.6019287109375 0.7500116229057312 198.583984375 3.732036590576172 198.583984375 7.397436618804932 L 198.583984375 110.7317352294922 C 198.583984375 114.3971633911133 195.6019287109375 117.3791885375977 191.9364776611328 117.3791885375977 Z" stroke="none"/>
              <path d="M 7.397430419921875 1.500007629394531 C 4.14556884765625 1.500007629394531 1.499984741210938 4.145584106445313 1.499984741210938 7.397430419921875 L 1.499984741210938 110.7317428588867 C 1.499984741210938 113.9835891723633 4.14556884765625 116.6291656494141 7.397430419921875 116.6291656494141 L 191.9364776611328 116.6291656494141 C 195.1883544921875 116.6291656494141 197.8339538574219 113.9835891723633 197.8339538574219 110.7317428588867 L 197.8339538574219 7.397430419921875 C 197.8339538574219 4.145584106445313 195.1883544921875 1.500007629394531 191.9364776611328 1.500007629394531 L 7.397430419921875 1.500007629394531 M 7.397430419921875 7.62939453125e-06 L 191.9364776611328 7.62939453125e-06 C 196.0220336914063 7.62939453125e-06 199.3339538574219 3.311958312988281 199.3339538574219 7.397430419921875 L 199.3339538574219 110.7317428588867 C 199.3339538574219 114.8171920776367 196.0220336914063 118.1291656494141 191.9364776611328 118.1291656494141 L 7.397430419921875 118.1291656494141 C 3.31195068359375 118.1291656494141 -1.52587890625e-05 114.8171920776367 -1.52587890625e-05 110.7317428588867 L -1.52587890625e-05 7.397430419921875 C -1.52587890625e-05 3.311958312988281 3.31195068359375 7.62939453125e-06 7.397430419921875 7.62939453125e-06 Z" stroke="none"/>
            </g>
            <g id="Rectangle_2" data-name="Rectangle 2" transform="translate(25.633 0)" fill="#0dffa4" stroke="#000" stroke-width="1.5">
              <rect width="199.334" height="118.129" rx="3" stroke="none"/>
              <rect x="0.75" y="0.75" width="197.834" height="116.629" rx="2.25" fill="none"/>
            </g>
          </g>
          <g id="Group_41" data-name="Group 41" transform="translate(83.496 3.486) rotate(-3)">
            <g id="Group_42" data-name="Group 42" transform="translate(0 0)">
              <path id="Path_69" data-name="Path 69" d="M14.342.376s34.524-1.9,38.225,2.855S50.4,25.056,48.413,37.83s-1.586,12.057-5.061,17.206-7.857,7.13-15.638,6.892-14.051-7.4-17.979-12.675S7.846,33.146,6.259,31.033,1.934,27.231.82,23.191s-1.36-7.169.982-8.318,6.95,5.7,8.839,3.248S14.342.376,14.342.376Z" transform="translate(6.048 23.6)" fill="#ffd0a2" stroke="#000" stroke-width="1.5"/>
              <path id="Path_70" data-name="Path 70" d="M10.117,14.215S12.61,1.826,28.776.164,56.5,9.985,58.238,11.345s-1.907,3.238-.471,3.672,3.871-2.879,6.213-1.935,2.946,4.533,2.493,6.346-4.306,8.839-8.234,11.256-7.2,3-16.015,1.889S27.567,23.28,22.959,26.227,18.653,42.62,16.085,43.073,9.966,38.238,7.775,39.3s-.675,5.78-1.813,4.684C3.922,42.015-.894,31.93.145,24.489S10.117,14.215,10.117,14.215Z" transform="translate(0 0)" fill="#4e3d3d" stroke="#000" stroke-width="1.5"/>
              <path id="Path_71" data-name="Path 71" d="M0,2.1S1.456-1.258,4.232.518,4.893,8,11.106,9.205,21.21,4.9,29.086,5.352,39.662,8.676,40.8,10.489s-2.342,11.936-3.626,13.3-7.288,9.953-18.922,7.309C10.034,29.227,1.778,19.116.833,14.115-.074,11.169,0,2.1,0,2.1Z" transform="translate(12.986 54.416)" fill="#4e3d3d" stroke="#000" stroke-width="1.5"/>
              <path id="Path_8441" data-name="Path 8441" d="M0,0A18.064,18.064,0,0,0,7.129,2.234a19.4,19.4,0,0,0,7.5-1.467" transform="translate(30.887 71.254)" fill="none" stroke="#000" stroke-width="1.5"/>
            </g>
          </g>
        </g>
      </g>
      <g id="Ellipse_17" data-name="Ellipse 17" transform="translate(5471.909 1840.09)" stroke="#000" stroke-width="1.5" opacity="0.12">
        <circle cx="24.246" cy="24.246" r="24.246" stroke="none"/>
        <circle cx="24.246" cy="24.246" r="23.496" fill="none"/>
      </g>
      <g id="Ellipse_18" data-name="Ellipse 18" transform="translate(5537.186 1810.249)" stroke="#000" stroke-width="1.5" opacity="0.12">
        <circle cx="9.325" cy="9.325" r="9.325" stroke="none"/>
        <circle cx="9.325" cy="9.325" r="8.575" fill="none"/>
      </g>
    </g>
  </g>
</svg>
