<svg xmlns="http://www.w3.org/2000/svg" xmlns:xlink="http://www.w3.org/1999/xlink" width="883" height="909.428" viewBox="0 0 883 909.428">
  <defs>
    <clipPath id="clip-path">
      <rect id="Rectangle_81" data-name="Rectangle 81" width="7" height="7" fill="none"/>
    </clipPath>
  </defs>
  <g id="Group_11237" data-name="Group 11237" transform="translate(217 164)">
    <ellipse id="Ellipse_383" data-name="Ellipse 383" cx="441.5" cy="434.5" rx="441.5" ry="434.5" transform="translate(-217 -164)" fill="#ffefbe"/>
    <g id="Group_11159" data-name="Group 11159" transform="translate(23 169)">
      <g id="layer101" transform="translate(34.988 4.988)">
        <path id="Path_8415" data-name="Path 8415" d="M393.449,566.1c-8-3.15-28.832-13.083-46.034-22.29-52.575-28.1-62.994-32.951-73.654-34.4-9.449-1.211-14.537.969-69.051,28.347-56.694,28.589-59.844,29.8-77.046,31.012-16.475.969-18.414.485-25.44-5.33C88.657,552.051,86.476,530,93.987,486.877c13.81-76.561,15.264-87.464,13.568-95.944-1.211-7.268-9.691-16.96-48.7-56.937C-.019,274.152-8.257,259.615,5.311,239.748c10.418-15.506,28.347-21.321,92.552-30.043,61.3-8.48,68.808-10.418,77.046-19.383,3.877-4.119,16.718-27.136,28.347-51.122,37.312-76.077,51.364-92.068,76.077-87.464,16.233,3.15,28.589,19.625,55.483,74.139,29.559,60.571,34.889,68.324,47.73,73.654,5.33,2.181,29.074,6.542,52.575,9.934,70.989,9.934,95.46,17.687,104.909,33.435,12.114,19.867,3.15,35.616-50.153,87.949-23.259,22.775-44.822,45.065-48.214,49.668-8,10.9-7.753,26.651,1.938,79.711,15.022,84.072,8.722,111.693-25.2,111.208C412.589,571.433,401.444,569.011,393.449,566.1Z" transform="translate(0 0)" fill="#0dffa4"/>
      </g>
      <path id="Path_146" data-name="Path 146" d="M331.315,111.7a2.4,2.4,0,0,1-1.335-2.9,1.15,1.15,0,0,0,.052-.266h0a1.2,1.2,0,0,0-2.158-.8h0a1.152,1.152,0,0,0-.133.236,2.4,2.4,0,0,1-2.9,1.335,1.151,1.151,0,0,0-.266-.052h0a1.2,1.2,0,0,0-.8,2.158h0a1.153,1.153,0,0,0,.236.133,2.4,2.4,0,0,1,1.335,2.9,1.147,1.147,0,0,0-.052.266h0a1.2,1.2,0,0,0,2.158.8h0a1.151,1.151,0,0,0,.133-.236,2.4,2.4,0,0,1,2.9-1.335,1.153,1.153,0,0,0,.266.052h0a1.2,1.2,0,0,0,.8-2.158h0A1.15,1.15,0,0,0,331.315,111.7Z" transform="translate(-153.311 63.445)" fill="#4d8af0" opacity="0.5"/>
      <circle id="Ellipse_38" data-name="Ellipse 38" cx="3.912" cy="3.912" r="3.912" transform="translate(581.789 286.186)" fill="#f55f44" opacity="0.5"/>
      <path id="Path_148" data-name="Path 148" d="M870.315,140.7a2.4,2.4,0,0,1-1.335-2.9,1.153,1.153,0,0,0,.052-.266h0a1.2,1.2,0,0,0-2.158-.8h0a1.145,1.145,0,0,0-.133.236,2.4,2.4,0,0,1-2.9,1.335,1.147,1.147,0,0,0-.266-.052h0a1.2,1.2,0,0,0-.8,2.158h0a1.153,1.153,0,0,0,.236.133,2.4,2.4,0,0,1,1.335,2.9,1.153,1.153,0,0,0-.052.266h0a1.2,1.2,0,0,0,2.158.8h0a1.146,1.146,0,0,0,.133-.236,2.4,2.4,0,0,1,2.9-1.335,1.153,1.153,0,0,0,.266.052h0a1.2,1.2,0,0,0,.8-2.158h0A1.152,1.152,0,0,0,870.315,140.7Z" transform="translate(-288.879 -10.646)" fill="#4d8af0" opacity="0.5"/>
      <path id="Path_149" data-name="Path 149" d="M970.315,768.7a2.4,2.4,0,0,1-1.335-2.9,1.151,1.151,0,0,0,.052-.266h0a1.2,1.2,0,0,0-2.158-.8h0a1.158,1.158,0,0,0-.133.236,2.4,2.4,0,0,1-2.9,1.335,1.154,1.154,0,0,0-.266-.052h0a1.2,1.2,0,0,0-.8,2.158h0a1.155,1.155,0,0,0,.236.133,2.4,2.4,0,0,1,1.335,2.9,1.167,1.167,0,0,0-.052.266h0a1.2,1.2,0,0,0,2.158.8h0a1.152,1.152,0,0,0,.133-.236,2.4,2.4,0,0,1,2.9-1.335,1.151,1.151,0,0,0,.266.052h0a1.2,1.2,0,0,0,.8-2.158h0a1.147,1.147,0,0,0-.236-.133Z" transform="translate(405.088 -725.828) rotate(43)" fill="#4d8af0" opacity="0.5"/>
      <circle id="Ellipse_39" data-name="Ellipse 39" cx="3.912" cy="3.912" r="3.912" transform="translate(46.092 312.133)" fill="#47e6b1" opacity="0.5"/>
      <circle id="Ellipse_40" data-name="Ellipse 40" cx="3.912" cy="3.912" r="3.912" transform="translate(449.746 248.43)" fill="#47e6b1" opacity="0.5"/>
      <g id="Group_9" data-name="Group 9" transform="translate(517.051 26.875)" opacity="0.5">
        <rect id="Rectangle_58" data-name="Rectangle 58" width="1.956" height="11.084" transform="translate(4.564)" fill="#47e6b1"/>
        <rect id="Rectangle_59" data-name="Rectangle 59" width="1.956" height="11.084" transform="translate(11.084 4.564) rotate(90)" fill="#47e6b1"/>
      </g>
      <g id="Group_220" data-name="Group 220" transform="translate(-127 -551)">
        <g id="Component_5_1" data-name="Component 5 – 1" transform="translate(207 585)" clip-path="url(#clip-path)">
          <circle id="Ellipse_101" data-name="Ellipse 101" cx="3.5" cy="3.5" r="3.5" fill="#6c63ff"/>
        </g>
      </g>
      <g id="Group_221" data-name="Group 221" transform="translate(162.051 416.875)" opacity="0.5">
        <rect id="Rectangle_58-2" data-name="Rectangle 58" width="1.956" height="11.084" transform="translate(4.564)" fill="#47e6b1"/>
        <rect id="Rectangle_59-2" data-name="Rectangle 59" width="1.956" height="11.084" transform="translate(11.084 4.564) rotate(90)" fill="#47e6b1"/>
      </g>
      <circle id="Ellipse_345" data-name="Ellipse 345" cx="3.912" cy="3.912" r="3.912" transform="translate(255.752 293.723) rotate(43)" fill="#f55f44" opacity="0.5"/>
      <path id="Path_8411" data-name="Path 8411" d="M970.315,768.7a2.4,2.4,0,0,1-1.335-2.9,1.151,1.151,0,0,0,.052-.266h0a1.2,1.2,0,0,0-2.158-.8h0a1.158,1.158,0,0,0-.133.236,2.4,2.4,0,0,1-2.9,1.335,1.154,1.154,0,0,0-.266-.052h0a1.2,1.2,0,0,0-.8,2.158h0a1.155,1.155,0,0,0,.236.133,2.4,2.4,0,0,1,1.335,2.9,1.167,1.167,0,0,0-.052.266h0a1.2,1.2,0,0,0,2.158.8h0a1.152,1.152,0,0,0,.133-.236,2.4,2.4,0,0,1,2.9-1.335,1.151,1.151,0,0,0,.266.052h0a1.2,1.2,0,0,0,.8-2.158h0a1.147,1.147,0,0,0-.236-.133Z" transform="translate(136.088 -1142.828) rotate(43)" fill="#4d8af0" opacity="0.5"/>
      <g id="Group_11043" data-name="Group 11043" transform="translate(367.713 428.123) rotate(43)" opacity="0.5">
        <rect id="Rectangle_60" data-name="Rectangle 60" width="1.956" height="11.084" transform="translate(4.564)" fill="#47e6b1"/>
        <rect id="Rectangle_61" data-name="Rectangle 61" width="1.956" height="11.084" transform="translate(11.084 4.564) rotate(90)" fill="#47e6b1"/>
      </g>
      <g id="ground" transform="translate(78.521 514.043)">
        <g id="Group_6423" data-name="Group 6423" transform="translate(48.556)">
          <g id="Group_6422" data-name="Group 6422">
            <path id="Path_5659" data-name="Path 5659" d="M406.162,1029.571c27.587,0,53.234,11.593,80.253,15.379,26.262,3.644,52.24-2.366,78.076-6.435,13.013-2.035,26.167-3.644,39.369-2.981,13.628.71,26.262,4.4,38.66,9.89,11.215,5.016,22.193,10.836,34.07,14.2a76.541,76.541,0,0,0,34.5,1.325c27.161-4.779,52.146-19.59,80.206-19.448a.711.711,0,0,0,0-1.42c-24.559-.142-46.94,11.073-70.221,17.177-12.114,3.17-24.748,4.874-37.145,2.6-12.54-2.271-24.085-8.044-35.537-13.344-11.357-5.252-22.855-9.842-35.347-11.546-12.871-1.751-25.884-.994-38.707.71-26.025,3.36-51.909,10.458-78.313,8.849-30.521-1.893-58.96-16.325-89.764-16.325a.688.688,0,1,0-.095,1.372Z" transform="translate(-405.499 -1028.198)" fill="#161616"/>
          </g>
        </g>
        <g id="Group_6425" data-name="Group 6425" transform="translate(10.316 1.126)">
          <g id="Group_6424" data-name="Group 6424">
            <path id="Path_5660" data-name="Path 5660" d="M325.544,1036.5a84.546,84.546,0,0,1,17.366-4.542c.9-.142.521-1.514-.379-1.372a78.918,78.918,0,0,0-17.366,4.543c-.852.331-.473,1.7.378,1.372Z" transform="translate(-324.685 -1030.578)" fill="#161616"/>
          </g>
        </g>
        <g id="Group_6427" data-name="Group 6427" transform="translate(0 12.539)">
          <g id="Group_6426" data-name="Group 6426">
            <path id="Path_5661" data-name="Path 5661" d="M303.933,1061.512c31.7-13.959,65.915,1.8,96.909,9.8a141.347,141.347,0,0,0,27.776,4.637c.9.047.9-1.372,0-1.419-34.164-1.845-65.206-20.915-99.8-19.779a68.669,68.669,0,0,0-25.552,5.583c-.852.331-.142,1.562.662,1.183Z" transform="translate(-302.884 -1054.697)" fill="#161616"/>
          </g>
        </g>
        <g id="Group_6429" data-name="Group 6429" transform="translate(146.929 29.023)">
          <g id="Group_6428" data-name="Group 6428">
            <path id="Path_5662" data-name="Path 5662" d="M614.294,1105.89c7.287-1.088,14.2-3.5,21.152-5.868a180.981,180.981,0,0,1,20.962-5.773,164.408,164.408,0,0,1,70.316.946c.9.189,1.278-1.183.379-1.372a166.909,166.909,0,0,0-88.77,3.738c-8.092,2.6-15.994,5.678-24.464,6.956-.852.142-.473,1.514.426,1.372Z" transform="translate(-613.391 -1089.533)" fill="#161616"/>
          </g>
        </g>
        <g id="Group_6431" data-name="Group 6431" transform="translate(317.024 23.229)">
          <g id="Group_6430" data-name="Group 6430">
            <path id="Path_5663" data-name="Path 5663" d="M973.208,1101.379c9.842,5.063,21.1,5.158,31.846,3.691,12.445-1.656,24.653-4.969,36.72-8.565,23.991-7.145,47.887-15.852,73.108-17.366,13.865-.852,27.824.615,40.836,5.584.852.331,1.23-1.041.379-1.372-47.65-18.265-95.916,9.7-142.194,18.786-13.107,2.555-27.634,4.306-39.937-2.035-.852-.379-1.562.852-.757,1.278Z" transform="translate(-972.855 -1077.287)" fill="#161616"/>
          </g>
        </g>
        <g id="Group_6433" data-name="Group 6433" transform="translate(461.888 12.469)">
          <g id="Group_6432" data-name="Group 6432">
            <path id="Path_5664" data-name="Path 5664" d="M1279.71,1055.992a71.11,71.11,0,0,1,31.231,6.246c.8.378,1.561-.852.71-1.23a72.734,72.734,0,0,0-31.94-6.435c-.946.047-.946,1.467,0,1.419Z" transform="translate(-1279 -1054.548)" fill="#161616"/>
          </g>
        </g>
      </g>
      <g id="Group_6435" data-name="Group 6435" transform="translate(194.702 436.026)">
        <g id="Group_6434" data-name="Group 6434">
          <path id="Path_5665" data-name="Path 5665" d="M560.329,956.2a39.051,39.051,0,0,1-8.423-13.533,39.54,39.54,0,0,1-1.8-6.956c-.237-1.42-1.183-5.395,2.082-4.5,1.278.379,2.744,2.366,3.454,3.407.52.757,1.751.047,1.23-.71a37.95,37.95,0,0,1-5.442-11.641,41.691,41.691,0,0,1-1.183-6.435c-.095-1.041-.142-2.082-.142-3.17,0-.521,0-1.041.047-1.562a2.327,2.327,0,0,1,1.514-2.413c.473-.142.9-.237,1.372-.379a32.928,32.928,0,0,1-1.7-5.962c-.189-1.136-.331-2.319-.426-3.5,0-.142.095-4.5.852-3.691a.713.713,0,0,0,1.183-.71,45.777,45.777,0,0,1-1.183-23.565c.331-1.514.615-3.738,1.7-4.969,1.42-1.609,3.454-.757,4.5.757a12.56,12.56,0,0,1,1.467,3.123c1.183,3.6,1.609,7.476,2.319,11.167,3.076,16.136,6.01,32.319,7.713,48.691a269.65,269.65,0,0,1,1.514,27.634.711.711,0,0,0,1.42,0c0-19.164-2.461-38.234-5.678-57.114-1.609-9.322-3.218-18.738-5.205-28.013-.663-3.028-1.751-7.382-5.016-8.612-2.413-.9-4.164,1.041-4.969,3.123-3.36,8.707-2.65,19.354.095,28.108.379-.237.8-.473,1.183-.71-1.751-1.8-3.17.521-3.312,2.177a28.8,28.8,0,0,0,2.177,12.3c.331.852,1.656.521,1.372-.379a1.978,1.978,0,0,0-3.218-.852c-1.893,1.561-1.183,5.962-.994,8a39.215,39.215,0,0,0,6.814,19.164c.426-.237.8-.473,1.23-.71-1.23-1.751-4.117-5.394-6.672-4.4-2.6.994-1.7,5.016-1.372,7a39.875,39.875,0,0,0,10.5,20.726.671.671,0,1,0,.994-.9Z" transform="translate(-548.409 -863.323)"/>
        </g>
      </g>
      <g id="Group_6437" data-name="Group 6437" transform="translate(215.281 437.902)">
        <g id="Group_6436" data-name="Group 6436">
          <path id="Path_5666" data-name="Path 5666" d="M593.367,923.6a69.9,69.9,0,0,1,1.325-13.723c.379-1.751,2.65-13.06,4.685-12.729.331.047.8-.095.852-.473a92.687,92.687,0,0,1,4.022-14.716c1.7-4.543,3.6-10.41,7.524-13.533h-.994c2.508,2.744,1.8,7.713,1.845,11.167,0,3.786-.095,7.571-.331,11.4a234.759,234.759,0,0,1-2.7,23.8c-2.461,15.379-6.152,30.568-9.89,45.71a.712.712,0,0,0,1.372.379c4.069-16.325,8-32.65,10.457-49.306a222.926,222.926,0,0,0,2.319-23.754c.189-4.259.237-8.517.095-12.776-.095-2.744-.237-5.489-2.177-7.571a.73.73,0,0,0-.994,0c-3.786,2.981-5.584,8.186-7.287,12.54a89.168,89.168,0,0,0-4.637,16.325c.284-.142.568-.331.852-.473-1.467-.237-2.224.615-2.839,1.893a47.509,47.509,0,0,0-2.792,8.423,68.644,68.644,0,0,0-2.177,17.555c.047.757,1.467.757,1.467-.142Z" transform="translate(-591.9 -867.287)"/>
        </g>
      </g>
      <g id="Group_6439" data-name="Group 6439" transform="translate(418.995 451.257)">
        <g id="Group_6438" data-name="Group 6438">
          <path id="Path_5667" data-name="Path 5667" d="M1033.1,990.38a68.037,68.037,0,0,1-5.915-12.255,62.191,62.191,0,0,1-1.845-5.962c-.284-1.088-.521-2.177-.757-3.265-.094-.521-.236-1.088-.331-1.656-.473-1.136,0-1.893,1.372-2.271.473-.047.946-.142,1.372-.189a49.67,49.67,0,0,1-2.65-10.836,42.8,42.8,0,0,1-.379-5.489c0-.9.663-5.252.142-5.82a.728.728,0,0,0,1.23-.521,70.558,70.558,0,0,1,.9-13.391c.331-2.035.8-4.022,1.325-6.009l.852-2.981c.189-.568.379-1.136.568-1.656.189-1.23.946-1.751,2.366-1.514.284.71,1.42.662,1.372-.189a37.455,37.455,0,0,1,2.319-13.675c.426-1.088,1.8-5.489,3.407-5.584,2.082-.095,2.13,5.536,2.224,6.672.8,9.322,1.42,18.691,1.751,28.06q1.065,28.6-.615,57.161c-.047.9,1.372.9,1.42,0q1.49-25.055.852-50.111c-.237-8.281-.615-16.562-1.183-24.8-.284-4.069-.568-8.091-.994-12.161-.237-2.508-.71-4.827-2.886-6.341a.755.755,0,0,0-.71,0c-3.076,1.467-4.259,5.252-5.205,8.328a39.728,39.728,0,0,0-1.8,12.492c.473-.047.946-.142,1.372-.189a2.212,2.212,0,0,0-3.123-1.23c-2.082.946-2.6,4.685-3.17,6.53a69.109,69.109,0,0,0-2.508,20.631c.426-.189.8-.331,1.23-.521l-.237-.237a.658.658,0,0,0-.71-.189c-1.041.379-1.277,1.041-1.467,2.082a32.752,32.752,0,0,0-.095,7.76,51.425,51.425,0,0,0,3.028,14.1c.237.71,1.467.662,1.372-.189a2.019,2.019,0,0,0-3.076-1.514c-2.224,1.183-.994,4.826-.615,6.625a69.819,69.819,0,0,0,8.517,20.962c.521.8,1.751.095,1.278-.662Z" transform="translate(-1022.412 -895.51)"/>
        </g>
      </g>
      <g id="Group_6441" data-name="Group 6441" transform="translate(439.713 458.747)">
        <g id="Group_6440" data-name="Group 6440">
          <path id="Path_5668" data-name="Path 5668" d="M1067.57,963.23a33.933,33.933,0,0,1,.71-7.571,27.214,27.214,0,0,1,.946-3.36c.142-.379,1.656-4.732,2.555-3.407a.72.72,0,0,0,1.325-.379,29.351,29.351,0,0,1,.994-6.1c.236-.852,2.319-6.766,3.265-6.2a.726.726,0,0,0,1.088-.615,35.016,35.016,0,0,1,2.934-12.019,32.137,32.137,0,0,1,2.934-5.3c.9-1.372,2.271-3.691,3.691-4.59,3.691-2.366,3.028,3.407,2.981,5.11-.095,2.129-.237,4.259-.379,6.435-.331,4.59-.8,9.133-1.419,13.675-2.461,18.5-6.814,36.672-11.12,54.8a.712.712,0,0,0,1.372.379c4.069-16.988,8.139-34.022,10.647-51.341a242.4,242.4,0,0,0,2.366-24.842c.095-1.988.379-5.205-1.8-6.294-2.271-1.135-4.164,1.656-5.394,3.123a36.915,36.915,0,0,0-8.234,20.962c.379-.189.71-.426,1.089-.615-4.069-2.6-6.294,11.4-6.388,13.533.426-.142.9-.237,1.325-.379-1.609-2.366-3.644-.047-4.4,1.7a33.917,33.917,0,0,0-2.46,13.344c-.047.852,1.372.852,1.372-.047Z" transform="translate(-1066.196 -911.34)"/>
        </g>
      </g>
      <g id="Group_6443" data-name="Group 6443" transform="translate(88.908 486.473)">
        <g id="Group_6442" data-name="Group 6442">
          <path id="Path_5669" data-name="Path 5669" d="M337.263,998.356a10.465,10.465,0,0,1-4.874-3.549,11.072,11.072,0,0,1-1.278-2.6c-.095-.189-.994-3.076.142-2.508a.717.717,0,0,0,.852-1.136,27.629,27.629,0,0,1-5.3-11.073c-.237-1.088-.8-2.65-.568-3.738.473-2.177,2.65-2.461,4.069-1.088a31.685,31.685,0,0,1,4.022,5.016,46.29,46.29,0,0,1,7.9,21.483c.095.9,1.514.9,1.42,0a48.242,48.242,0,0,0-4.07-15.142c-2.035-4.448-5.016-9.842-8.9-12.918-1.278-.994-3.076-1.656-4.543-.71-1.7,1.041-1.325,3.36-1.136,5.016a28.9,28.9,0,0,0,6.1,14.243l.852-1.136a1.813,1.813,0,0,0-2.319.331c-.994,1.088-.379,2.6.095,3.786a11.749,11.749,0,0,0,7.1,7.193c.9.237,1.278-1.136.426-1.467Z" transform="translate(-324.834 -969.933)" fill="#e8e8e8"/>
        </g>
      </g>
      <g id="Group_6445" data-name="Group 6445" transform="translate(95.918 461.619)">
        <g id="Group_6444" data-name="Group 6444">
          <path id="Path_5670" data-name="Path 5670" d="M346.629,955.355a169.368,169.368,0,0,1-4.779-22.145c-.237-1.8-.473-3.644-.615-5.442-.142-1.846-.615-4.543-.142-6.341,0-.284.047-.615.047-.9,1.467-1.609,2.555-1.7,3.265-.189a14.077,14.077,0,0,1,1.136,2.035c.9,1.562,1.7,3.17,2.461,4.827a90.577,90.577,0,0,1,8.659,42.729c-.047.9,1.372.9,1.42,0,.757-17.082-3.218-35.016-12.114-49.685-1.088-1.8-3.738-4.259-5.584-1.8-.8,1.041-.71,2.745-.71,3.975a47.028,47.028,0,0,0,.379,7.287,117.85,117.85,0,0,0,1.845,12.823c.994,4.5,2.271,8.9,3.454,13.344.142.71,1.514.331,1.278-.521Z" transform="translate(-339.648 -917.409)" fill="#e8e8e8"/>
        </g>
      </g>
      <g id="Group_6447" data-name="Group 6447" transform="translate(72.845 382.496)">
        <g id="Group_6446" data-name="Group 6446">
          <path id="Path_5671" data-name="Path 5671" d="M291.6,756.35c31.278-.757,61.751,7.145,91.42,16.278s59.1,19.732,89.859,24.8a195.461,195.461,0,0,0,46.7,2.366c17.177-1.278,34.07-4.779,50.726-9.038,16.988-4.354,33.786-9.417,50.773-13.912,17.035-4.542,34.164-8.659,51.436-12.208,34.874-7.193,70.316-12.019,105.995-12.871,4.306-.095,8.659-.142,12.965-.142a.711.711,0,0,0,0-1.419c-34.969-.095-69.843,3.785-104.244,10.126-34.685,6.435-68.565,15.757-102.54,25.126-16.845,4.685-33.833,8.991-51.152,11.451a194.405,194.405,0,0,1-49.732.662c-31.136-3.6-60.994-13.817-90.711-23.234-29.338-9.275-59.291-18.123-90.19-19.306-3.786-.142-7.571-.142-11.357-.047a.686.686,0,1,0,.047,1.372Z" transform="translate(-290.887 -750.197)"/>
        </g>
      </g>
      <g id="Group_6451" data-name="Group 6451" transform="translate(277.042 443.033)">
        <g id="Group_6450" data-name="Group 6450">
          <path id="Path_5673" data-name="Path 5673" d="M722.931,906.177c12.114,2.792,24.606,1.514,36.72-.71,12.681-2.319,25.126-5.631,37.571-9.133,25.079-7,50.016-14.148,76.089-16.136a246.246,246.246,0,0,1,44.2.757c.9.095.9-1.325,0-1.42a242.949,242.949,0,0,0-76.278,3.833c-24.937,5.252-49.07,13.77-73.96,19.117-14.338,3.076-29.385,5.678-43.912,2.319-.946-.189-1.325,1.183-.426,1.372Z" transform="translate(-722.42 -878.132)"/>
        </g>
      </g>
      <g id="Group_6457" data-name="Group 6457" transform="translate(83.538 277.327)">
        <g id="Group_6456" data-name="Group 6456">
          <path id="Path_5676" data-name="Path 5676" d="M313.966,529.342c25.883,6.483,49.5,19.212,73.96,29.574a299.666,299.666,0,0,0,122.367,23.991.711.711,0,0,0,0-1.42,297.516,297.516,0,0,1-118.676-22.571c-12.256-5.063-24.275-10.836-36.388-16.183-13.3-5.868-26.783-11.262-40.884-14.764a.714.714,0,0,0-.379,1.372Z" transform="translate(-313.485 -527.942)"/>
        </g>
      </g>
      <g id="Group_6459" data-name="Group 6459" transform="translate(259.896 319.458)">
        <g id="Group_6458" data-name="Group 6458">
          <path id="Path_5677" data-name="Path 5677" d="M686.666,657.967c24.559,9.464,51.53,4.306,75.616-4.022,12.965-4.5,25.552-9.89,38.423-14.574q18.951-6.885,38.47-11.924a417.555,417.555,0,0,1,45.71-9.085c.9-.142.521-1.514-.378-1.372a419.464,419.464,0,0,0-78.266,18.928c-24.984,8.659-49.164,20.915-75.616,24.653-14.622,2.082-29.716,1.372-43.581-3.975-.852-.331-1.23,1.041-.379,1.372Z" transform="translate(-686.185 -616.978)"/>
        </g>
      </g>
      <g id="details" transform="translate(36.416 60.16)">
        <ellipse id="Ellipse_212" data-name="Ellipse 212" cx="4.827" cy="4.732" rx="4.827" ry="4.732" transform="translate(71.511 140.737)" fill="#5222d0"/>
        <ellipse id="Ellipse_214" data-name="Ellipse 214" cx="2.461" cy="2.413" rx="2.461" ry="2.413" transform="translate(400.176 14.716)" fill="#5222d0"/>
        <ellipse id="Ellipse_215" data-name="Ellipse 215" cx="3.549" cy="3.454" rx="3.549" ry="3.454" transform="translate(326.338 330.46)" fill="#5222d0"/>
        <circle id="Ellipse_216" data-name="Ellipse 216" cx="0.852" cy="0.852" r="0.852" transform="translate(443.142 182.415)" fill="#5222d0"/>
        <ellipse id="Ellipse_217" data-name="Ellipse 217" cx="4.685" cy="4.59" rx="4.685" ry="4.59" transform="translate(120.095 262.734)" fill="#ec615b"/>
        <ellipse id="Ellipse_218" data-name="Ellipse 218" cy="1.467" ry="1.467" transform="translate(129.464 193.44)" fill="#ec615b"/>
        <ellipse id="Ellipse_219" data-name="Ellipse 219" cx="1.609" cy="1.562" rx="1.609" ry="1.562" transform="translate(141.436 329.009)" fill="#ec615b"/>
        <ellipse id="Ellipse_220" data-name="Ellipse 220" cx="3.502" cy="3.407" rx="3.502" ry="3.407" transform="translate(53.233 69.37)" fill="#ec615b"/>
        <ellipse id="Ellipse_221" data-name="Ellipse 221" cy="0.568" ry="0.568" transform="translate(393.599)" fill="#ec615b"/>
        <ellipse id="Ellipse_223" data-name="Ellipse 223" cx="2.934" cy="2.839" rx="2.934" ry="2.839" transform="translate(425.586 135.143)" fill="#ec615b"/>
        <g id="Group_6461" data-name="Group 6461" transform="translate(103.866 277.998)">
          <g id="Group_6460" data-name="Group 6460">
            <path id="Path_5678" data-name="Path 5678" d="M438.655,656.5c-4.353.095-6.2,6.151-4.779,9.748.662,1.656,2.129,2.082,3.785,1.8a10.523,10.523,0,0,1,1.751-.426c2.224.142,2.177,1.514,1.514,2.839a11.892,11.892,0,0,0-1.23,2.745c-.284,1.325-.047,2.792,1.325,3.36.757.331,1.656-.237,2.319,0,2.366.757.473,3.738.284,5.205-.189,1.609.237,3.454,1.8,4.211a2.779,2.779,0,0,0,3.738-1.136c.426-.8-.8-1.514-1.23-.71-1.609,1.278-2.555.8-2.934-1.514a6.324,6.324,0,0,1,.284-1.893,22.6,22.6,0,0,0,.8-3.076,2.637,2.637,0,0,0-.568-2.129c-1.136-1.041-3.88.473-4.5-1.372-.379-1.136,1.325-3.029,1.656-4.07.662-2.035-.142-4.069-2.555-4.022-1.987.047-4.353,2.082-5.063-1.467-.521-2.461.662-6.672,3.691-6.719a.688.688,0,0,0-.095-1.372Z" transform="translate(-433.405 -656.498)" fill="#ec615b"/>
          </g>
        </g>
        <g id="Group_6463" data-name="Group 6463" transform="translate(361.491 231.152)">
          <g id="Group_6462" data-name="Group 6462">
            <path id="Path_5679" data-name="Path 5679" d="M989.181,557.5a10.92,10.92,0,0,0-10.363,8.139c-.994,4.117,1.562,9.038,6.246,6.483a6.636,6.636,0,0,0,3.6-4.5,2.274,2.274,0,0,0-2.461-2.744c-2.319.189-4.448,2.934-5.678,4.637-1.42,1.94-2.886,4.637-2.65,7.145.473,4.306,6.672,5.158,8.849,1.751.379-.568-.378-1.42-.994-.994-3.265,2.508-6.672,6.625-5.394,11.073.994,3.5,4.779,6.01,8.328,4.779.852-.284.473-1.656-.379-1.372-3.17,1.088-6.483-1.561-6.767-4.779-.284-3.454,2.319-6.483,4.921-8.47l-.994-.994a3.59,3.59,0,0,1-4.637,1.041c-2.224-1.183-1.609-3.738-.757-5.631a16.013,16.013,0,0,1,2.934-4.353c.473-.521,1.7-1.94,2.366-2.035.615.142,1.278.331,1.893.473a3.47,3.47,0,0,1-.568,1.656c-1.278,2.082-4.5,3.738-6.246,1.325-1.183-1.561-.426-4.5.379-6.057a9.518,9.518,0,0,1,8.281-5.158c.994-.047.994-1.467.095-1.419Z" transform="translate(-977.847 -557.498)" fill="#ec615b"/>
          </g>
        </g>
        <g id="Group_6465" data-name="Group 6465" transform="translate(0 156.974)">
          <g id="Group_6464" data-name="Group 6464">
            <path id="Path_5680" data-name="Path 5680" d="M215.084,403.226a2.782,2.782,0,0,1,4.874.9c.473,1.278.426,2.366,1.609,3.265,2.129,1.609,4.969.379,7.24-.095,5.915-1.183,3.975,4.732,7.334,7.051a2.964,2.964,0,0,0,4.448-.946c.379-.8-.852-1.561-1.23-.71-1.23,2.744-3.5-.8-3.88-1.893-.237-.662-.379-1.325-.662-1.94a5.453,5.453,0,0,0-1.94-2.555c-2.65-1.656-5.584.379-8.281.426-2.886.095-2.6-1.893-3.6-3.833a3.888,3.888,0,0,0-2.035-1.845,4.2,4.2,0,0,0-4.874,1.183c-.615.71.426,1.7.994.994Z" transform="translate(-213.902 -400.735)" fill="#ec615b"/>
          </g>
        </g>
        <g id="Group_6467" data-name="Group 6467" transform="translate(5.058 169.684)">
          <g id="Group_6466" data-name="Group 6466">
            <path id="Path_5681" data-name="Path 5681" d="M225.778,430.768c2.981-3.218,7.287-1.7,9.038,1.8,1.088,2.177,1.845,4.543,4.211,5.631a7.1,7.1,0,0,0,9.511-3.927c.284-.852-1.088-1.23-1.372-.379-.9,2.745-4.211,4.069-6.861,3.265-3.265-.946-3.5-4.685-5.3-7.051a6.748,6.748,0,0,0-10.221-.331c-.615.662.379,1.656.994.994Z" transform="translate(-224.591 -427.595)" fill="#ec615b"/>
          </g>
        </g>
        <g id="Group_6469" data-name="Group 6469" transform="translate(340.881 375.413)">
          <g id="Group_6468" data-name="Group 6468">
            <path id="Path_5682" data-name="Path 5682" d="M935.478,867.587c1.751-2.035,4.117-1.987,6.246-.568a2.476,2.476,0,0,0,2.319.615c1.136-.426,1.325-1.94,2.129-2.7a4.727,4.727,0,0,1,6.1-.142c.71.568,1.7-.426.994-.994a6.159,6.159,0,0,0-8.8.9c-.189.284-.426,1.041-.662,1.183-1.088.71-1.514-.379-2.224-.662a7.811,7.811,0,0,0-2.271-.662,5.8,5.8,0,0,0-4.874,2.035c-.521.662.473,1.656,1.041.994Z" transform="translate(-934.291 -862.365)" fill="#5222d0"/>
          </g>
        </g>
        <g id="Group_6471" data-name="Group 6471" transform="translate(354.577 376.193)">
          <g id="Group_6470" data-name="Group 6470">
            <path id="Path_5683" data-name="Path 5683" d="M964.59,870.868c3.218-4.779,14.858,1.7,16.041-5.962.142-.9-1.23-1.278-1.372-.378-.615,4.022-6.2,3.076-9.038,2.981-2.65-.047-5.3.331-6.861,2.65-.521.757.71,1.467,1.23.71Z" transform="translate(-963.234 -864.014)" fill="#5222d0"/>
          </g>
        </g>
        <g id="Group_6473" data-name="Group 6473" transform="translate(103.805 393.71)">
          <g id="Group_6472" data-name="Group 6472">
            <path id="Path_5684" data-name="Path 5684" d="M434.612,910.245a23.785,23.785,0,0,1,7.334-7.855c.757-.521.047-1.751-.71-1.23a26.564,26.564,0,0,0-7.855,8.376c-.473.757.757,1.467,1.23.71Z" transform="translate(-433.275 -901.034)" fill="#5222d0"/>
          </g>
        </g>
        <g id="Group_6475" data-name="Group 6475" transform="translate(110.828 394.136)">
          <g id="Group_6474" data-name="Group 6474">
            <path id="Path_5685" data-name="Path 5685" d="M449.149,908.448c2.508-1.7,5.016-3.454,7.524-5.158.757-.521.047-1.751-.71-1.23-2.508,1.7-5.016,3.454-7.524,5.158-.757.521-.047,1.751.71,1.23Z" transform="translate(-448.116 -901.934)" fill="#5222d0"/>
          </g>
        </g>
      </g>
      <g id="Group_6491" data-name="Group 6491" transform="translate(154.29 223.701)">
        <g id="Group_6490" data-name="Group 6490">
          <path id="Path_5693" data-name="Path 5693" d="M463.383,415.885c7.1,3.028,12.445,9.038,17.508,14.669a177.23,177.23,0,0,1,14.527,18.5,169.071,169.071,0,0,1,20.394,40.836c.284.852,1.656.473,1.372-.379a173.369,173.369,0,0,0-21.01-41.83,175.536,175.536,0,0,0-14.29-18.123c-5.158-5.678-10.6-11.83-17.792-14.858-.8-.426-1.562.8-.71,1.183Z" transform="translate(-463.008 -414.613)" fill="#161616"/>
        </g>
      </g>
      <g id="Group_6501" data-name="Group 6501" transform="translate(362.155 233.012)">
        <g id="Group_6500" data-name="Group 6500" transform="translate(0)">
          <path id="Path_5698" data-name="Path 5698" d="M903.715,485.494a130.264,130.264,0,0,1,34.732-50.016c.662-.615-.331-1.609-.994-.994a131.929,131.929,0,0,0-35.111,50.631c-.331.852,1.041,1.183,1.372.379Z" transform="translate(-902.292 -434.291)" fill="#161616"/>
        </g>
      </g>
      <g id="Group_6511" data-name="Group 6511" transform="translate(220.362 253.814)">
        <g id="Group_6510" data-name="Group 6510">
          <path id="Path_5703" data-name="Path 5703" d="M603.85,495.735a53.012,53.012,0,0,1,47.13-15.284c.9.142,1.278-1.23.379-1.372a54.338,54.338,0,0,0-48.5,15.663c-.662.615.331,1.656.994.994Z" transform="translate(-602.638 -478.251)" fill="#ec615b"/>
        </g>
      </g>
      <g id="Group_6513" data-name="Group 6513" transform="translate(115.586 190.695)">
        <g id="Group_6512" data-name="Group 6512">
          <path id="Path_5704" data-name="Path 5704" d="M381.728,346.252a115.2,115.2,0,0,1,28.817,10.079c.8.426,1.514-.8.71-1.23a116.022,116.022,0,0,0-29.149-10.221c-.9-.189-1.278,1.183-.379,1.372Z" transform="translate(-381.214 -344.862)" fill="#5222d0"/>
        </g>
      </g>
      <g id="Group_6517" data-name="Group 6517" transform="translate(336.85 241.084)">
        <g id="Group_6516" data-name="Group 6516" transform="translate(0)">
          <path id="Path_5706" data-name="Path 5706" d="M850.132,477.541a56.424,56.424,0,0,1,25.6-24.89c.8-.379.095-1.609-.71-1.23a57.536,57.536,0,0,0-26.12,25.41c-.426.8.8,1.561,1.23.71Z" transform="translate(-848.813 -451.349)" fill="#5222d0"/>
        </g>
      </g>
      <g id="Group_6519" data-name="Group 6519" transform="translate(307.513 159.873)">
        <g id="Group_6518" data-name="Group 6518">
          <path id="Path_5707" data-name="Path 5707" d="M787.85,285.108A22.156,22.156,0,0,1,801.9,281.18c.9.047.9-1.372,0-1.42a23.414,23.414,0,0,0-14.764,4.164c-.757.473-.047,1.7.71,1.183Z" transform="translate(-786.816 -279.725)" fill="#ec615b"/>
        </g>
      </g>
      <g id="Group_6521" data-name="Group 6521" transform="translate(319.531 151.089)">
        <g id="Group_6520" data-name="Group 6520">
          <path id="Path_5708" data-name="Path 5708" d="M812.728,262.552a69.783,69.783,0,0,1,11.972,3.6c.852.331,1.23-1.041.379-1.372a69.789,69.789,0,0,0-11.972-3.6c-.9-.189-1.278,1.183-.379,1.372Z" transform="translate(-812.214 -261.162)" fill="#ec615b"/>
        </g>
      </g>
      <g id="Group_6525" data-name="Group 6525" transform="translate(226.062 103.844)">
        <g id="Group_6524" data-name="Group 6524">
          <path id="Path_5710" data-name="Path 5710" d="M615.922,174.985a73.693,73.693,0,0,1,23.565-12.256c.852-.284.52-1.656-.379-1.372a75.158,75.158,0,0,0-24.18,12.587c-.71.615.284,1.609.994,1.041Z" transform="translate(-614.684 -161.319)" fill="#ec615b"/>
        </g>
      </g>
      <g id="Group_6527" data-name="Group 6527" transform="translate(213.006 210.249)">
        <g id="Group_6526" data-name="Group 6526">
          <path id="Path_5711" data-name="Path 5711" d="M587.143,387.044A21.713,21.713,0,0,1,587.758,401a.712.712,0,0,0,1.372.379,23.056,23.056,0,0,0-.615-14.716c-.331-.852-1.7-.473-1.372.379Z" transform="translate(-587.092 -386.185)" fill="#5222d0"/>
        </g>
      </g>
      <g id="Group_6529" data-name="Group 6529" transform="translate(225.001 211.41)">
        <g id="Group_6528" data-name="Group 6528">
          <path id="Path_5712" data-name="Path 5712" d="M612.611,389.9a28.274,28.274,0,0,0,9.133,7.24c.8.426,1.514-.8.71-1.23a26.2,26.2,0,0,1-8.849-7.051c-.568-.662-1.562.331-.994,1.041Z" transform="translate(-612.442 -388.64)" fill="#5222d0"/>
        </g>
      </g>
      <g id="Group_6531" data-name="Group 6531" transform="translate(379.284 202.11)">
        <g id="Group_6530" data-name="Group 6530">
          <path id="Path_5713" data-name="Path 5713" d="M938.685,370.222a10.233,10.233,0,0,1,2.555,8.612c-.142.9,1.23,1.278,1.372.379a11.674,11.674,0,0,0-2.934-9.984c-.615-.71-1.609.284-.994.994Z" transform="translate(-938.491 -368.984)" fill="#5222d0"/>
        </g>
      </g>
      <g id="Group_6533" data-name="Group 6533" transform="translate(391.091 199.933)">
        <g id="Group_6532" data-name="Group 6532">
          <path id="Path_5714" data-name="Path 5714" d="M963.611,365.622c1.751,1.987,3.454,3.927,5.2,5.915.615.71,1.609-.331.994-.994-1.751-1.987-3.454-3.927-5.205-5.915-.568-.71-1.562.284-.994.994Z" transform="translate(-963.442 -364.384)" fill="#5222d0"/>
        </g>
      </g>
      <g id="Group_6535" data-name="Group 6535" transform="translate(321.282 202.066)">
        <g id="Group_6534" data-name="Group 6534" transform="translate(0)">
          <path id="Path_5715" data-name="Path 5715" d="M817.232,384.936a48.271,48.271,0,0,1,12.823-14.669c.71-.568,0-1.8-.71-1.23A50.689,50.689,0,0,0,816,384.227c-.426.8.8,1.514,1.23.71Z" transform="translate(-815.913 -368.891)" fill="#5222d0"/>
        </g>
      </g>
      <ellipse id="Ellipse_224" data-name="Ellipse 224" cx="6.909" cy="6.719" rx="6.909" ry="6.719" transform="translate(423.365 97.369)" fill="#ec615b"/>
      <ellipse id="Ellipse_225" data-name="Ellipse 225" cy="0.473" ry="0.473" transform="translate(512.823 123.52)" fill="#ec615b"/>
      <ellipse id="Ellipse_226" data-name="Ellipse 226" cx="5.82" cy="5.631" rx="5.82" ry="5.631" transform="translate(505.182 179.735)" fill="#5222d0"/>
      <g id="presents" transform="translate(156.481 116.978)">
        <path id="Path_5716" data-name="Path 5716" d="M470.6,260.755c.662,3.454,1.467,7.1,2.508,10.883a128.61,128.61,0,0,0,13.249,30.9,49.78,49.78,0,0,0,5.962,1.088,37.033,37.033,0,0,0,15.331-.662c1.514-.426.852-.379,7.524-3.123s7.05-2.65,9.606-3.786c4.353-1.893,8.281-4.637,15.994-9.984,2.224-1.561,5.3-3.738,8.9-6.435a36.911,36.911,0,0,0,.473-6.435c-.095-4.259-.994-7.335-2.271-11.782-2.035-6.956-3.454-11.688-4.353-14.669a53.537,53.537,0,0,0-5.962-3.312,59.4,59.4,0,0,0-19.637-5.536,67.877,67.877,0,0,0-12.776,2.224c-12.871,3.549-21.719,10.221-27.208,14.432A79.837,79.837,0,0,0,470.6,260.755Z" transform="translate(-469.198 -214.796)" fill="#fff"/>
        <path id="Path_5717" data-name="Path 5717" d="M874.656,249.5a117.654,117.654,0,0,0-11.641,14.669c-1.893,2.839-3.549,5.584-5.016,8.233,2.886,4.306,5.773,8.612,8.707,12.871,6.483,2.508,12.965,5.016,19.448,7.571,6.151-6.435,12.35-12.871,18.5-19.353-1.609-5.205-3.218-10.363-4.779-15.568a91.065,91.065,0,0,0-10.978-4.685A100.245,100.245,0,0,0,874.656,249.5Z" transform="translate(-673.284 -220.907)" fill="#fff"/>
        <g id="Group_6537" data-name="Group 6537" transform="translate(0.924 45.693)">
          <g id="Group_6536" data-name="Group 6536">
            <path id="Path_5718" data-name="Path 5718" d="M469.6,286.329c1.609,15.237,8.328,29.1,15.615,42.4.426.8,1.656.095,1.23-.71C479.3,315,472.576,301.33,471.015,286.329c-.095-.9-1.514-.946-1.42,0Z" transform="translate(-469.59 -285.637)" fill="#161616"/>
          </g>
        </g>
        <g id="Group_6539" data-name="Group 6539" transform="translate(1.044 22.295)">
          <g id="Group_6538" data-name="Group 6538">
            <path id="Path_5719" data-name="Path 5719" d="M471.053,260.659a73.543,73.543,0,0,1,44.48-23.044c.9-.095.9-1.514,0-1.42a75.177,75.177,0,0,0-45.521,23.423c-.568.71.426,1.7,1.041,1.041Z" transform="translate(-469.843 -236.19)" fill="#161616"/>
          </g>
        </g>
        <g id="Group_6541" data-name="Group 6541" transform="translate(46.702 22.497)">
          <g id="Group_6540" data-name="Group 6540">
            <path id="Path_5720" data-name="Path 5720" d="M566.46,237.649c7.713,11.593,11.309,25.079,14.764,38.376a.712.712,0,0,0,1.372-.379c-3.5-13.439-7.145-27.019-14.905-38.707-.521-.757-1.751-.047-1.23.71Z" transform="translate(-566.334 -236.616)" fill="#161616"/>
          </g>
        </g>
        <g id="Group_6543" data-name="Group 6543" transform="translate(17.352 61.93)">
          <g id="Group_6542" data-name="Group 6542">
            <path id="Path_5721" data-name="Path 5721" d="M505.156,346.757a132.068,132.068,0,0,0,24.937-10.363,123.227,123.227,0,0,0,11.4-7.051c3.312-2.271,6.767-4.637,8.565-8.328.426-.8-.8-1.514-1.23-.71-1.94,3.927-5.915,6.388-9.416,8.754-3.454,2.319-7.051,4.5-10.741,6.483a132.536,132.536,0,0,1-23.849,9.842c-.9.284-.521,1.656.331,1.372Z" transform="translate(-504.307 -319.952)" fill="#161616"/>
          </g>
        </g>
        <g id="Group_6545" data-name="Group 6545" transform="translate(46.911 22.204)">
          <g id="Group_6544" data-name="Group 6544">
            <path id="Path_5722" data-name="Path 5722" d="M567.449,237.418A46.729,46.729,0,0,1,593.38,246.5c.757.521,1.467-.71.71-1.23A47.827,47.827,0,0,0,567.449,236c-.9-.047-.9,1.372,0,1.42Z" transform="translate(-566.775 -235.998)" fill="#161616"/>
          </g>
        </g>
        <g id="Group_6547" data-name="Group 6547" transform="translate(73.364 31)">
          <g id="Group_6546" data-name="Group 6546">
            <path id="Path_5723" data-name="Path 5723" d="M622.735,255.682a79.152,79.152,0,0,1,6.625,31.325.711.711,0,0,0,1.42,0,81.142,81.142,0,0,0-6.861-32.035c-.331-.852-1.514-.142-1.183.71Z" transform="translate(-622.678 -254.587)" fill="#161616"/>
          </g>
        </g>
        <g id="Group_6549" data-name="Group 6549" transform="translate(61.884 61.799)">
          <g id="Group_6548" data-name="Group 6548">
            <path id="Path_5724" data-name="Path 5724" d="M598.741,321.012c5.868,3.786,12.823,2.745,19.212,1.041a.712.712,0,0,0-.379-1.372c-6.01,1.609-12.54,2.65-18.076-.9a.723.723,0,0,0-.757,1.23Z" transform="translate(-598.419 -319.675)" fill="#161616"/>
          </g>
        </g>
        <g id="Group_6551" data-name="Group 6551" transform="translate(16.929 85.656)">
          <g id="Group_6550" data-name="Group 6550">
            <path id="Path_5725" data-name="Path 5725" d="M503.928,373.408a42.949,42.949,0,0,0,25.221-1.893c.852-.331.473-1.7-.379-1.372a41.21,41.21,0,0,1-24.464,1.893c-.9-.189-1.278,1.183-.378,1.372Z" transform="translate(-503.414 -370.092)" fill="#161616"/>
          </g>
        </g>
        <g id="Group_6553" data-name="Group 6553" transform="translate(42.194 63.132)">
          <g id="Group_6552" data-name="Group 6552">
            <path id="Path_5726" data-name="Path 5726" d="M557.656,346.344a130.4,130.4,0,0,0,38.565-22.666c.71-.615-.331-1.609-.994-.994a128.611,128.611,0,0,1-37.9,22.287c-.9.331-.521,1.7.331,1.372Z" transform="translate(-556.807 -322.491)" fill="#161616"/>
          </g>
        </g>
        <g id="Group_6555" data-name="Group 6555" transform="translate(183.758 28.213)">
          <g id="Group_6554" data-name="Group 6554">
            <path id="Path_5727" data-name="Path 5727" d="M872.5,248.935a195.1,195.1,0,0,0-16.42,22.477c-.473.757.757,1.467,1.23.71a201.565,201.565,0,0,1,16.183-22.193c.615-.662-.379-1.7-.994-.994Z" transform="translate(-855.975 -248.697)" fill="#161616"/>
          </g>
        </g>
        <g id="Group_6557" data-name="Group 6557" transform="translate(200.429 28.299)">
          <g id="Group_6556" data-name="Group 6556">
            <path id="Path_5728" data-name="Path 5728" d="M891.724,250.261a81.191,81.191,0,0,1,24.322,8c.8.426,1.514-.8.71-1.23a82.4,82.4,0,0,0-24.7-8.139c-.852-.142-1.23,1.23-.331,1.372Z" transform="translate(-891.207 -248.878)" fill="#161616"/>
          </g>
        </g>
        <g id="Group_6559" data-name="Group 6559" transform="translate(183.527 51.14)">
          <g id="Group_6558" data-name="Group 6558">
            <path id="Path_5729" data-name="Path 5729" d="M855.872,298.451q11.073,5.04,21.909,10.552c.8.426,1.514-.8.71-1.23q-10.86-5.465-21.909-10.552c-.852-.379-1.562.852-.71,1.23Z" transform="translate(-855.487 -297.149)" fill="#161616"/>
          </g>
        </g>
        <g id="Group_6561" data-name="Group 6561" transform="translate(205.514 36.723)">
          <g id="Group_6560" data-name="Group 6560">
            <path id="Path_5730" data-name="Path 5730" d="M922.085,266.974q-9.511,12.705-18.454,25.836a7.571,7.571,0,0,1,.994-.237c-.521-.284-1.041-.615-1.609-.9a.71.71,0,0,0-.71,1.23c.521.284,1.041.615,1.609.9a.812.812,0,0,0,.994-.237c5.915-8.754,12.066-17.413,18.454-25.836.473-.757-.757-1.467-1.278-.757Z" transform="translate(-901.952 -266.681)" fill="#161616"/>
          </g>
        </g>
        <g id="Group_6563" data-name="Group 6563" transform="translate(225.449 36.757)">
          <g id="Group_6562" data-name="Group 6562">
            <path id="Path_5731" data-name="Path 5731" d="M944.138,267.816a76.078,76.078,0,0,1,4.732,15.379c.189.9,1.561.521,1.372-.379a76.471,76.471,0,0,0-4.874-15.71c-.331-.8-1.562-.095-1.23.71Z" transform="translate(-944.082 -266.752)" fill="#161616"/>
          </g>
        </g>
        <g id="Group_6565" data-name="Group 6565" transform="translate(207.54 62.937)">
          <g id="Group_6564" data-name="Group 6564">
            <path id="Path_5732" data-name="Path 5732" d="M906.36,323.083a54.822,54.822,0,0,1,4.874,7.76c.426.8,1.656.095,1.23-.71a54.806,54.806,0,0,0-4.874-7.76c-.521-.71-1.751,0-1.23.71Z" transform="translate(-906.234 -322.079)" fill="#161616"/>
          </g>
        </g>
        <g id="Group_6567" data-name="Group 6567" transform="translate(212.557 52.434)">
          <g id="Group_6566" data-name="Group 6566">
            <path id="Path_5733" data-name="Path 5733" d="M918.05,319.056a230.605,230.605,0,0,0,17.413-17.934c.615-.71-.426-1.7-.994-.994a222.5,222.5,0,0,1-17.413,17.934c-.662.615.331,1.609.994.994Z" transform="translate(-916.838 -299.884)" fill="#161616"/>
          </g>
        </g>
        <g id="Group_6569" data-name="Group 6569" transform="translate(183.907 51.808)">
          <g id="Group_6568" data-name="Group 6568">
            <path id="Path_5734" data-name="Path 5734" d="M856.437,299.573c3.028,3.927,6.057,7.9,9.085,11.83.568.71,1.8,0,1.23-.71-3.028-3.927-6.057-7.9-9.085-11.83-.568-.71-1.8-.047-1.23.71Z" transform="translate(-856.291 -298.56)" fill="#161616"/>
          </g>
        </g>
        <g id="Group_6571" data-name="Group 6571" transform="translate(192.942 63.747)">
          <g id="Group_6570" data-name="Group 6570">
            <path id="Path_5735" data-name="Path 5735" d="M875.866,325.215l19.022,7.24c.852.331,1.23-1.041.378-1.372l-19.022-7.24c-.852-.331-1.23,1.041-.379,1.372Z" transform="translate(-875.385 -323.792)" fill="#161616"/>
          </g>
        </g>
        <path id="Path_5736" data-name="Path 5736" d="M501.2,253.041q9.014,23.849,18.076,47.745c4.5,1.278,9.038,2.508,13.533,3.786,3.36-1.514,6.719-3.076,10.079-4.59l-11.5-4.968q-9.227-24.133-18.454-48.313c-1.7.757-3.5,1.609-5.347,2.6A60.075,60.075,0,0,0,501.2,253.041Z" transform="translate(-485.318 -219.432)" fill="#ea453d"/>
        <path id="Path_5737" data-name="Path 5737" d="M554.032,240.3a84.636,84.636,0,0,1,9.842,28.959,79.466,79.466,0,0,1,.8,11.167,183.386,183.386,0,0,1-27.729,17.555,192.021,192.021,0,0,1-17.65,8h9.227a195.015,195.015,0,0,0,21.578-10.6,187.267,187.267,0,0,0,21.577-14.385c-1.136-5.678-2.366-11.5-3.691-17.366-1.467-6.483-2.981-12.776-4.5-18.975a15.135,15.135,0,0,0-4.306-2.981A15.5,15.5,0,0,0,554.032,240.3Z" transform="translate(-494.854 -216.06)" fill="#ea453d"/>
        <path id="Path_5738" data-name="Path 5738" d="M512.925,243.494c-1.041-.852.331-5.962,4.117-7.571,2.886-1.23,6.625-.237,9.227,2.6a60.442,60.442,0,0,0-6.341,2.177C515.2,242.642,513.635,244.061,512.925,243.494Z" transform="translate(-491.318 -213.481)" fill="#ea453d"/>
        <path id="Path_5739" data-name="Path 5739" d="M527.2,214.118a29.711,29.711,0,0,0,8.234-7.808,28.168,28.168,0,0,0,5.11-16.562c.8-.237,5.584-1.7,8.234.615,3.6,3.123.284,10.6-.426,12.161a19.6,19.6,0,0,1-6.577,8A21.852,21.852,0,0,1,527.2,214.118Z" transform="translate(-499.016 -189.074)" fill="#ea453d"/>
        <path id="Path_5740" data-name="Path 5740" d="M471.595,215.374c2.366-.379,3.691,3.833,8.612,8a30.506,30.506,0,0,0,13.155,6.2,18.252,18.252,0,0,1-8.849,3.786c-6.1.757-14.432-1.562-16.42-7.382C466.626,221.572,468.945,215.752,471.595,215.374Z" transform="translate(-467.637 -202.916)" fill="#ea453d"/>
        <path id="Path_5741" data-name="Path 5741" d="M891.16,253.3c-6.1,8.139-12.255,16.278-18.36,24.417,2.177,3.975,4.353,7.95,6.577,11.924,1.893.757,3.786,1.562,5.678,2.319-1.372-3.312-2.745-6.672-4.164-9.984,5.442-8.943,10.931-17.839,16.373-26.783C895.229,254.578,893.195,253.962,891.16,253.3Z" transform="translate(-681.081 -222.909)" fill="#5222d0"/>
        <path id="Path_5742" data-name="Path 5742" d="M905.547,281.1c-6.246,6.956-12.54,13.864-18.786,20.82L864.9,295.532l3.691,4.685c6.861,2.271,13.675,4.543,20.536,6.814,5.915-6.672,11.782-13.3,17.7-19.969Q906.257,284.081,905.547,281.1Z" transform="translate(-676.919 -237.554)" fill="#5222d0"/>
        <path id="Path_5743" data-name="Path 5743" d="M924.487,255.58c.237-.994,3.738-1.987,6.1-.189,1.514,1.136,2.413,3.36,1.751,4.022C931.112,260.643,924.156,257.094,924.487,255.58Z" transform="translate(-708.305 -223.485)" fill="#5222d0"/>
        <path id="Path_5744" data-name="Path 5744" d="M916,224.478c1.041-.568,3.123,1.23,3.691,1.7s2.555,2.271,3.928,7.429c.71,2.6,1.751,6.483.662,7-1.23.615-4.969-3.265-7-7.429C915.719,229.872,914.63,225.235,916,224.478Z" transform="translate(-703.51 -207.667)" fill="#5222d0"/>
        <path id="Path_5745" data-name="Path 5745" d="M954.207,257.029c.095-1.136-2.46-2.035-3.17-2.271-.662-.237-3.17-1.041-8.517.142-2.7.615-6.672,1.514-6.719,2.65-.047,1.325,5.158,2.6,9.842,2.366C949.38,259.726,954.065,258.5,954.207,257.029Z" transform="translate(-714.27 -223.42)" fill="#5222d0"/>
        <path id="Path_5746" data-name="Path 5746" d="M505.3,309.611c2.792-.994,6.909-2.461,11.83-4.543,8.375-3.5,14.29-5.962,20.868-10.41a75.136,75.136,0,0,0,12.35-10.6,62.152,62.152,0,0,0,6.435-34.259c1.7.994,3.36,1.987,5.063,2.934a100.154,100.154,0,0,1,6.577,32.508,138.73,138.73,0,0,1-13.06,10.079c-16.42,11.215-27.729,13.864-30.237,14.432a45.086,45.086,0,0,1-8.186,1.041A43.408,43.408,0,0,1,505.3,309.611Z" transform="translate(-487.478 -221.065)" fill="#353535" opacity="0.09"/>
        <path id="Path_5747" data-name="Path 5747" d="M858.3,282.285c3.029,4.306,6.01,8.612,9.038,12.871,6.293,2.461,12.634,4.874,18.927,7.334,6.01-6.53,12.019-13.013,18.029-19.543-1.467-5.016-2.981-10.032-4.448-15.047l-18.454,24.984Q869.822,287.632,858.3,282.285Z" transform="translate(-673.442 -230.6)" fill="#353535" opacity="0.09"/>
      </g>
      <g id="girl" transform="translate(222.232 225.351)">
        <g id="leg_right" transform="translate(0 152.719)">
          <path id="Path_5748" data-name="Path 5748" d="M648,1058.692c1.893-2.366,3.028-3.454,3.454-3.17q1.632.994-11.688,28.723-32.721,1.562-33.171-1.609-.355-2.768,24.275-9.18l10.789-22.855C643.787,1053.3,645.869,1055.994,648,1058.692Z" transform="translate(-606.589 -904.026)"/>
          <path id="Path_5749" data-name="Path 5749" d="M683.89,744.656c-1.8,12.729-3.88,25.694-6.151,38.849-6.719,38.612-14.906,75.19-24.038,109.591a22.113,22.113,0,0,0,10.458,6.388,23.867,23.867,0,0,0,14.764-.852q16.041-56.073,32.035-112.193c14.054-15.331,11.356-35.158.615-42.351C704.473,739.356,693.5,740.018,683.89,744.656Z" transform="translate(-631.408 -740.843)" fill="#656eff" stroke="#000" stroke-width="1"/>
          <path id="Path_5750" data-name="Path 5750" d="M684.774,750.6c1.372.142.521,21.388-.568,40.505a485.478,485.478,0,0,1-20.158,113.234,19.23,19.23,0,0,1-3.5-1.325,19.549,19.549,0,0,1-6.246-4.921c2.886-10.316,7.051-25.836,11.357-44.858C679.142,793.66,682.833,750.458,684.774,750.6Z" transform="translate(-631.724 -745.983)" fill="#353535" opacity="0.15"/>
          <path id="Path_5751" data-name="Path 5751" d="M676.987,855.5c-1.041,12.492-2.555,25.647-4.685,39.369A569.114,569.114,0,0,1,659.2,956.952a6.223,6.223,0,0,1-2.366-.946,6.02,6.02,0,0,1-2.129-2.461q5.678-23.636,11.167-47.7Q671.617,880.437,676.987,855.5Z" transform="translate(-631.935 -801.245)" fill="#353535" opacity="0.13"/>
        </g>
        <g id="leg_left" transform="translate(70.215 149.735)">
          <path id="Path_5752" data-name="Path 5752" d="M881.118,1055.691c-2.082-2.366-3.36-3.454-3.833-3.17q-1.774.994,12.823,28.722c23.991,1.041,36.1.521,36.436-1.609q.426-2.768-26.688-9.18c-3.975-7.618-7.9-15.237-11.877-22.855C885.708,1050.3,883.437,1052.994,881.118,1055.691Z" transform="translate(-819.308 -899.462)" stroke="#000" stroke-width="1"/>
          <path id="Path_5753" data-name="Path 5753" d="M755.413,752.659c-1.751,8.423,2.224,15.379,3.691,17.7q23.423,62.6,46.8,125.253a30.983,30.983,0,0,0,14.48-1.467,29.149,29.149,0,0,0,12.918-8.991,392.216,392.216,0,0,1-18.786-47.839c-9.417-29.574-22.1-58.155-31.089-87.872-1.514-4.968-4.069-13.675-9.843-14.763C766.865,733.447,757.448,742.722,755.413,752.659Z" transform="translate(-754.976 -734.553)" fill="#656eff" stroke="#000" stroke-width="1"/>
          <path id="Path_5754" data-name="Path 5754" d="M785.853,734.946c-3.265,2.366,2.792,15,5.678,21.294,6.956,15.189,10.552,31.7,17.224,47.035,7.192,16.514,17.745,43.25,32.65,88.108a19.086,19.086,0,0,0,3.691-2.318,18.221,18.221,0,0,0,3.691-4.022c-3.738-8.092-9.132-20.347-14.811-35.631-2.035-5.442-2.271-6.435-4.5-13.249-2.366-7.24-6.057-18.218-6.814-20.442-3.549-10.221-3.549-8.849-10.221-26.972-1.42-3.833-3.36-9.133-5.678-16.041-1.136-3.36-1.987-6.057-2.6-8-.095-.284-3.218-9.984-7.618-21.483-1.136-3.028-2.366-6.01-5.442-7.571C790.916,735.514,787.462,733.763,785.853,734.946Z" transform="translate(-770.747 -734.538)" fill="#353535" stroke="#000" stroke-width="1" opacity="0.1"/>
          <path id="Path_5755" data-name="Path 5755" d="M835.69,828.5c-.284.095,6.057,19.827,36.388,109.827,1.23-1.183,2.461-2.366,3.691-3.6-1.845-4.117-4.732-10.647-8.044-18.786-7.618-18.6-10.883-29.432-19.4-53.328C843.592,849.32,835.974,828.405,835.69,828.5Z" transform="translate(-797.492 -784.038)" fill="#353535" stroke="#000" stroke-width="1" opacity="0.12"/>
        </g>
        <g id="hand_left" transform="translate(86.631)">
          <path id="Path_5756" data-name="Path 5756" d="M824.841,436.921c-1.089.095-1.845-3.123-3.029-3.076-.946.047-1.609,2.177-1.656,2.461-.568,1.94-.284,3.927,1.656,9.133.568,1.514,1.325,3.454,2.319,5.678a112.236,112.236,0,0,1-3.17,14.811c-2.129,7.429-5.726,19.637-15.237,32.224A85.565,85.565,0,0,1,792,512.49a28.539,28.539,0,0,0-2.319,12.019c.047,1.562.237,8.612,2.839,9.274,1.751.426,3.833-2.129,4.874-3.407,10.6-13.391,15.946-20.063,18.076-23.943,4.968-8.9,8.991-16.136,12.4-27.019a115.238,115.238,0,0,0,4.353-20.016c1.088-1.8,2.6-4.353,4.353-7.476,4.779-8.517,6.483-12.35,7.524-16.609,1.088-4.4,1.278-8.186.189-8.612-.8-.284-1.8,1.183-2.7.8-1.325-.568.094-4.5-1.325-5.347-.521-.331-1.562-.284-3.691,1.136-1.467-3.076-2.413-3.643-3.028-3.6-1.278.189-1.893,3.691-2.177,7.666-.379-1.94-1.325-6.01-2.508-6.01-.994,0-2.035,2.981-2.319,5.347-.426,3.265.521,5.631-.662,8.943C825.645,436.117,825.314,436.827,824.841,436.921Z" transform="translate(-789.667 -418.94)" fill="#fcd6b1"/>
          <g id="Group_6573" data-name="Group 6573" transform="translate(3.279 30.893)">
            <g id="Group_6572" data-name="Group 6572">
              <path id="Path_5757" data-name="Path 5757" d="M826.835,484.056c-.142,6.246-2.129,12.256-4.022,18.17a136.026,136.026,0,0,1-6.483,16.42,77.115,77.115,0,0,1-19.5,25.883c-.71.568.331,1.609.994.994,8.707-7.287,15.237-16.7,20.063-26.925a134.813,134.813,0,0,0,6.388-16.372c1.893-5.867,3.833-11.877,3.927-18.123.095-.946-1.325-.946-1.372-.047Z" transform="translate(-796.597 -483.387)" fill="#161616"/>
            </g>
          </g>
          <g id="Group_6575" data-name="Group 6575" transform="translate(2.892 39.121)">
            <g id="Group_6574" data-name="Group 6574">
              <path id="Path_5758" data-name="Path 5758" d="M834.827,501.449c-1.278,14.953-7.808,29.007-14.432,42.256-6.057,12.114-13.391,23.9-24.322,32.177-.71.568,0,1.8.71,1.23,11.167-8.47,18.691-20.347,24.843-32.7,6.767-13.486,13.3-27.776,14.622-42.966.047-.9-1.372-.9-1.42,0Z" transform="translate(-795.779 -500.775)" fill="#161616"/>
            </g>
          </g>
          <g id="Group_6577" data-name="Group 6577" transform="translate(29.776 14.23)">
            <g id="Group_6576" data-name="Group 6576">
              <path id="Path_5759" data-name="Path 5759" d="M857.517,464.747a32.863,32.863,0,0,1-3.36-11.309c-.047-.52-.142-2.745.237-3.028,1.183-.8,1.514.568,1.8,1.136a4.7,4.7,0,0,0,1.893,2.271.71.71,0,0,0,.71-1.23c-1.656-.946-1.514-3.549-3.407-4.259-1.609-.615-2.177.71-2.508,2.082-1.136,4.874,1.325,10.694,3.312,15.047a.753.753,0,0,0,1.325-.71Z" transform="translate(-852.592 -448.173)" fill="#161616"/>
            </g>
          </g>
          <g id="Group_6579" data-name="Group 6579" transform="translate(35.055 1.67)">
            <g id="Group_6578" data-name="Group 6578">
              <path id="Path_5760" data-name="Path 5760" d="M865,439.408c1.609-3.691,1.23-7.476,1.372-11.4.047-.9-.142-2.981.378-3.691.946-1.183,1.656,1.325,1.893,2.129a23.562,23.562,0,0,1,.615,7.713c-.095.9,1.325.9,1.42,0,.142-1.8-.047-14.338-4.07-12.3-1.656.852-1.562,4.211-1.609,5.678-.142,3.738.379,7.571-1.183,11.12-.379.852.852,1.609,1.183.757Z" transform="translate(-863.749 -421.63)" fill="#161616"/>
            </g>
          </g>
          <g id="Group_6581" data-name="Group 6581" transform="translate(40.747)">
            <g id="Group_6580" data-name="Group 6580">
              <path id="Path_5761" data-name="Path 5761" d="M877.161,432.39c.284-1.7.52-3.407.662-5.158.142-1.94-.142-4.117.473-5.962.521-1.7.8-2.035,1.514-.521a10.651,10.651,0,0,1,.852,3.36,16.911,16.911,0,0,1-.237,6.719c-.284.9,1.088,1.23,1.372.379a18.882,18.882,0,0,0,.142-8.139c-.237-1.372-.994-4.969-2.839-4.969-1.609,0-2.271,2.7-2.413,3.833-.473,3.312-.379,6.719-.9,10.032-.142.946,1.23,1.325,1.372.426Z" transform="translate(-875.778 -418.1)" fill="#161616"/>
            </g>
          </g>
          <g id="Group_6583" data-name="Group 6583" transform="translate(45.863 2.034)">
            <g id="Group_6582" data-name="Group 6582">
              <path id="Path_5762" data-name="Path 5762" d="M888.015,433.424a34.962,34.962,0,0,0,.189-4.448c.047-1.278-.047-4.685,1.561-4.543,1.183.095,1.089,1.088,1.183,2.129.047.71.047,1.467.047,2.177a27.585,27.585,0,0,1-.426,5.205c-.189.9,1.183,1.278,1.372.378.473-2.319,2.082-11.83-2.177-11.924-3.927-.095-2.886,8.9-3.17,11.073-.095.852,1.325.852,1.42-.047Z" transform="translate(-886.59 -422.398)" fill="#161616"/>
            </g>
          </g>
          <g id="Group_6585" data-name="Group 6585" transform="translate(42.041 6.394)">
            <g id="Group_6584" data-name="Group 6584">
              <path id="Path_5763" data-name="Path 5763" d="M888.823,434.114c.568-.047,1.089-.095,1.656-.142a11.019,11.019,0,0,1,.237,1.325,22.286,22.286,0,0,1,.142,2.508,18.539,18.539,0,0,1-.71,4.543,38.323,38.323,0,0,1-3.454,8.281c-2.6,4.921-5.395,9.8-8.091,14.669-.426.8.8,1.514,1.23.71,2.271-4.117,4.59-8.234,6.861-12.35,2.129-3.833,4.259-7.855,5.158-12.208.473-2.366,1.467-7.808-.994-9.464a2.247,2.247,0,0,0-3.407,2.177c.047.852,1.467.852,1.372-.047Z" transform="translate(-878.514 -431.612)" fill="#161616"/>
            </g>
          </g>
          <path id="Path_5764" data-name="Path 5764" d="M842.888,425.6c-.71.047-.9,2.981-1.372,6.483-.757,6.151-1.609,13.06-4.543,18.833a29.12,29.12,0,0,1-5.726,7.713,120.3,120.3,0,0,1-2.886,13.865c-2.65,9.937-6.53,24.038-17.508,37.24a75.123,75.123,0,0,1-14.338,13.249c-.189,4.637-.379,9.227-.615,13.865a76.886,76.886,0,0,0,11.593-10.836c5.773-6.672,9.511-14.243,16.751-29.1,5.773-11.877,7.334-16.467,8.281-19.779a94.332,94.332,0,0,0,3.17-15.095,116.59,116.59,0,0,0,7.24-13.107c2.886-6.151,7.524-16.089,4.685-18.549a3.676,3.676,0,0,0-2.886-.473C844.307,427.918,843.55,425.552,842.888,425.6Z" transform="translate(-792.951 -422.05)" fill="#353535" opacity="0.08"/>
          <path id="Path_5765" data-name="Path 5765" d="M863.742,484.2c-2.508,2.65-5.016,5.347-7.524,8a69.677,69.677,0,0,1-1.656,9.653,71.6,71.6,0,0,1-5.725,15.095,145.631,145.631,0,0,0-9.937,26.83c1.562-2.7,9.842-17.082,14.48-29.385a65.249,65.249,0,0,0,3.454-11.025c.946-4.59.71-6.719,1.94-10.41A27.36,27.36,0,0,1,863.742,484.2Z" transform="translate(-815.604 -452.922)" fill="#353535" opacity="0.1"/>
        </g>
        <g id="hand_right" transform="translate(1.104 0.141)">
          <path id="Path_5766" data-name="Path 5766" d="M612.007,426.843c-1.514.426-1.561,4.543-1.325,6.861a22.143,22.143,0,0,0,2.7,8.517c3.029,5.584,5.962,10.836,8.943,15.9a104.335,104.335,0,0,0,2.366,13.439c2.319,9.464,5.3,15.9,9.416,24.748,6.53,13.959,10.41,21.956,18.691,30.473a81.845,81.845,0,0,0,7.9,7.051,17.083,17.083,0,0,0,4.211-12.965,16.731,16.731,0,0,0-5.394-10.316,68.043,68.043,0,0,1-9.275-9.322c-7.476-9.275-10.6-18.549-15.142-32.461-1.23-3.785-2.886-9.133-4.543-15.71.9-2.934,1.656-5.252,2.177-6.719,1.562-4.5,2.555-6.767,1.845-9.653-.189-.757-.568-2.177-1.514-2.461-1.088-.284-2.745,1.041-4.022,3.454a79,79,0,0,1-1.183-9.511c-.189-3.5-.095-6.057-.852-6.246-.8-.189-2.035,2.65-2.177,2.934a12.814,12.814,0,0,0-.994,6.719c.379-8.8-.615-11.025-1.7-11.309-.9-.237-2.035.946-2.366,1.325-2.224,2.366-1.088,5.82-.994,6.057-.994-5.252-2.035-5.584-2.366-5.584-.852-.047-1.7,1.845-2.035,2.934a6.169,6.169,0,0,0,0,3.123C613.615,427.411,612.716,426.654,612.007,426.843Z" transform="translate(-609.793 -419.366)" fill="#fcd6b1"/>
          <g id="Group_6587" data-name="Group 6587" transform="translate(20.335 30.835)">
            <g id="Group_6586" data-name="Group 6586">
              <path id="Path_5767" data-name="Path 5767" d="M651.9,484.243c.142,6.057,1.893,11.924,3.691,17.7a140.731,140.731,0,0,0,6.341,16.8c4.685,10.174,11.025,19.59,19.5,26.925.71.615,1.7-.426.994-.994-8.186-7.1-14.338-16.088-18.928-25.884a127.618,127.618,0,0,1-6.293-16.42c-1.893-5.915-3.786-11.924-3.927-18.171a.687.687,0,0,0-1.372.047Z" transform="translate(-651.898 -483.562)" fill="#161616"/>
            </g>
          </g>
          <g id="Group_6589" data-name="Group 6589" transform="translate(12.193 39.127)">
            <g id="Group_6588" data-name="Group 6588">
              <path id="Path_5768" data-name="Path 5768" d="M634.7,501.756c1.23,14.953,7.476,29.007,13.912,42.4,5.962,12.445,13.3,24.559,24.275,33.171.71.568,1.7-.426.994-.994-10.741-8.376-17.839-20.111-23.754-32.177-6.483-13.344-12.823-27.445-14.054-42.351-.047-.946-1.467-.946-1.372-.047Z" transform="translate(-634.69 -501.087)" fill="#161616"/>
            </g>
          </g>
          <g id="Group_6591" data-name="Group 6591" transform="translate(18.894 14.269)">
            <g id="Group_6590" data-name="Group 6590">
              <path id="Path_5769" data-name="Path 5769" d="M651.761,465.8c1.987-4.448,4.5-10.457,3.123-15.426-.331-1.23-.946-2.224-2.366-1.656-1.845.71-1.656,3.312-3.312,4.259a.71.71,0,0,0,.71,1.23,4.115,4.115,0,0,0,1.609-1.751c.189-.379.379-1.23.71-1.514,1.846-1.372,1.514,1.609,1.514,2.461-.095,3.975-1.656,8.139-3.265,11.735-.331.757.9,1.467,1.278.662Z" transform="translate(-648.852 -448.554)" fill="#161616"/>
            </g>
          </g>
          <g id="Group_6593" data-name="Group 6593" transform="translate(13.399 1.671)">
            <g id="Group_6592" data-name="Group 6592">
              <path id="Path_5770" data-name="Path 5770" d="M644.034,438.951c-1.467-3.407-1.041-7.1-1.136-10.694-.047-1.514.142-5.205-1.609-6.1-3.927-2.035-4.164,10.552-4.022,12.3.095.9,1.514.9,1.42,0a23.877,23.877,0,0,1,.473-7.334c.142-.615.662-3.454,1.845-2.934.52.237.473,3.5.473,4.069.095,3.927-.237,7.713,1.325,11.4.378.852,1.609.142,1.23-.71Z" transform="translate(-637.239 -421.931)" fill="#161616"/>
            </g>
          </g>
          <g id="Group_6595" data-name="Group 6595" transform="translate(8.239)">
            <g id="Group_6594" data-name="Group 6594">
              <path id="Path_5771" data-name="Path 5771" d="M632.8,432.264c-.521-3.312-.426-6.672-.9-9.937-.142-1.183-.757-3.88-2.413-3.927-1.7-.047-2.461,3.36-2.7,4.59a19.166,19.166,0,0,0,.047,8.517.712.712,0,0,0,1.372-.379,17.312,17.312,0,0,1-.284-6.057,13.13,13.13,0,0,1,.71-3.549c.71-1.8.994-2.177,1.656,0,.52,1.751.284,3.786.426,5.584a55.372,55.372,0,0,0,.71,5.536c.142.9,1.514.521,1.372-.379Z" transform="translate(-626.334 -418.399)" fill="#161616"/>
            </g>
          </g>
          <g id="Group_6597" data-name="Group 6597" transform="translate(3.822 1.939)">
            <g id="Group_6596" data-name="Group 6596">
              <path id="Path_5772" data-name="Path 5772" d="M622.915,433.571c-.284-2.129.757-11.215-3.123-11.073-4.164.142-2.555,9.653-2.129,11.924.189.9,1.562.521,1.372-.379a27.278,27.278,0,0,1-.426-5.205c0-1.278-.378-4.164,1.136-4.306,1.561-.142,1.467,3.312,1.514,4.543.047,1.514,0,2.981.189,4.448.142.946,1.609.994,1.467.047Z" transform="translate(-617 -422.497)" fill="#161616"/>
            </g>
          </g>
          <g id="Group_6599" data-name="Group 6599" transform="translate(0 6.306)">
            <g id="Group_6598" data-name="Group 6598">
              <path id="Path_5773" data-name="Path 5773" d="M613.786,434.268a2.2,2.2,0,0,0-3.312-2.177c-2.319,1.609-1.467,6.767-1.041,9.038.757,4.211,2.65,8.091,4.685,11.877,2.319,4.4,4.732,8.754,7.05,13.107.426.8,1.656.095,1.23-.71-2.7-5.016-5.489-9.984-8.092-15.047a35.711,35.711,0,0,1-3.123-7.9,20.633,20.633,0,0,1-.662-4.543c0-.568,0-1.136.047-1.751a7.489,7.489,0,0,1,.237-1.8c.047-.71.615-.757,1.609-.142-.142.946,1.278.946,1.372.047Z" transform="translate(-608.922 -431.725)" fill="#161616"/>
            </g>
          </g>
          <path id="Path_5774" data-name="Path 5774" d="M616.791,424.961c1.325.473.379,6.151.142,8.281-.521,4.874.568,12.256,8.281,22.76a142.6,142.6,0,0,0,13.865,38.9,140.469,140.469,0,0,0,20.678,29.243c.473,4.164.9,8.328,1.372,12.539a58.464,58.464,0,0,1-11.025-9.937c-3.5-4.117-5.584-7.713-8.612-13.439-7.808-14.811-11.735-22.24-14.48-31.231a118.149,118.149,0,0,1-4.353-20.82,76.9,76.9,0,0,1-8-12.681c-3.312-6.577-4.164-10.741-4.069-14.48.095-4.259.852-4.827,1.183-4.969.71-.284,1.656.284,2.271.757a4.59,4.59,0,0,1,.9-3.927C615.182,425.766,616.129,424.725,616.791,424.961Z" transform="translate(-609.799 -421.838)" fill="#353535" opacity="0.09"/>
          <path id="Path_5775" data-name="Path 5775" d="M615.633,460.689c.473-.237,3.36,3.833,5.442,7.24a69.437,69.437,0,0,1,7.382,16.893c3.123,10.836,7.145,20.016,15.237,38.328,2.461,5.536,6.2,13.581,11.451,23.092a69.468,69.468,0,0,1-6.01-6.341c-2.035-2.413-8.707-10.6-15.662-29.385a180.5,180.5,0,0,1-8.139-29.385c-1.609-2.744-3.833-6.672-6.2-11.593C618.093,467.314,615.112,460.973,615.633,460.689Z" transform="translate(-612.426 -440.673)" fill="#353535" opacity="0.09"/>
        </g>
        <g id="torso" transform="translate(45.381 86.655)">
          <path id="Path_5776" data-name="Path 5776" d="M729.3,602.172a43.825,43.825,0,0,0-8.423,0c-4.448.473-8.423.852-11.4,3.454-2.224,1.94-2.886,4.353-4.117,9.133a41.366,41.366,0,0,0-1.562,11.688c.189,9.464,3.786,10.694,5.678,22.145a77.544,77.544,0,0,1,.8,15,112.5,112.5,0,0,1-1.562,17.177,37.643,37.643,0,0,0,9.416,5.489,35.488,35.488,0,0,0,19.448,2.177,33.778,33.778,0,0,0,18.076-9.322,51.1,51.1,0,0,1-3.36-21.01c.379-5.915,1.609-7.193,3.36-19.921,1.325-9.464,1.278-13.391,1.183-15.521-.331-8.518-.521-12.824-3.36-15.71C750.686,604.113,743.541,603.45,729.3,602.172Z" transform="translate(-703.174 -601.619)" fill="#ea453d"/>
          <g id="Group_6601" data-name="Group 6601" transform="translate(0 0.124)">
            <g id="Group_6600" data-name="Group 6600">
              <path id="Path_5777" data-name="Path 5777" d="M726.251,601.59a43.024,43.024,0,0,0-10.458.568c-2.934.521-5.962,1.041-7.9,3.454-3.549,4.353-5.063,10.363-5.347,15.852-.71,14.006,6.246,26.783,8.612,40.316.142.9,1.514.52,1.372-.379-2.129-12.208-8-23.612-8.565-36.1-.237-5.726.615-11.593,3.549-16.609.994-1.7,2.082-3.36,4.022-4.069a31.514,31.514,0,0,1,4.164-1.041,43.428,43.428,0,0,1,10.5-.615c.946.095.946-1.325.047-1.372Z" transform="translate(-702.493 -601.492)" fill="#161616"/>
            </g>
          </g>
          <g id="Group_6603" data-name="Group 6603" transform="translate(4.914 46.11)">
            <g id="Group_6602" data-name="Group 6602">
              <path id="Path_5778" data-name="Path 5778" d="M713.362,699.349a106.61,106.61,0,0,1-.473,31.278c-.142.9,1.23,1.278,1.372.379a105.98,105.98,0,0,0,.52-31.656c-.142-.9-1.562-.9-1.42,0Z" transform="translate(-712.878 -698.675)" fill="#161616"/>
            </g>
          </g>
          <g id="Group_6605" data-name="Group 6605" transform="translate(28.868)">
            <g id="Group_6604" data-name="Group 6604">
              <path id="Path_5779" data-name="Path 5779" d="M764.21,602.73c6.341-.379,14.148.379,19.543,4.164,3.265,2.319,3.407,6.2,3.738,9.842a56.909,56.909,0,0,1,.237,9.842c-.946,12.918-6.151,25.174-6.1,38.234a.711.711,0,0,0,1.42,0c-.047-14.716,6.672-28.581,6.2-43.344-.189-5.631,0-12.871-5.394-16.183-5.631-3.454-13.155-4.353-19.637-3.975-.946.047-.946,1.467,0,1.42Z" transform="translate(-763.5 -601.23)" fill="#161616"/>
            </g>
          </g>
          <g id="Group_6607" data-name="Group 6607" transform="translate(48.452 48.713)">
            <g id="Group_6606" data-name="Group 6606">
              <path id="Path_5780" data-name="Path 5780" d="M804.894,704.849a107.352,107.352,0,0,0,3.312,27.445.712.712,0,0,0,1.372-.379,106.5,106.5,0,0,1-3.265-27.066.711.711,0,0,0-1.42,0Z" transform="translate(-804.888 -704.175)" fill="#161616"/>
            </g>
          </g>
          <g id="Group_6609" data-name="Group 6609" transform="translate(4.776 76.402)">
            <g id="Group_6608" data-name="Group 6608">
              <path id="Path_5781" data-name="Path 5781" d="M712.829,765.676a36.7,36.7,0,0,0,23.044,8.612c9.511.047,17.461-4.59,24.8-10.221.71-.568,0-1.8-.71-1.23-6.956,5.3-14.385,9.842-23.328,9.984a35.094,35.094,0,0,1-22.76-8.186c-.757-.568-1.751.426-1.041,1.041Z" transform="translate(-712.585 -762.691)" fill="#161616"/>
            </g>
          </g>
          <path id="Path_5782" data-name="Path 5782" d="M770.52,603.7a64.286,64.286,0,0,1,4.306,15.568c1.845,13.391-1.278,23.659-5.016,35.537a160.941,160.941,0,0,1-15.71,34.732,34.639,34.639,0,0,0,9.417-.426,36.843,36.843,0,0,0,18.407-9.417c-.331-2.366-.9-6.057-1.7-10.5-1.278-6.956-1.7-7.476-1.846-9.984-.189-3.076.331-2.7,3.123-15.71a113.694,113.694,0,0,0,2.366-15.8c.047-.521.047-1.041.095-1.562.237-7.808.331-12.587-2.981-16.656C777.807,605.593,773.217,604.221,770.52,603.7Z" transform="translate(-729.68 -602.531)" fill="#353535" opacity="0.11"/>
          <path id="Path_5783" data-name="Path 5783" d="M796.048,651.6c-.331-.095-1.987,2.508-5.868,12.871a302.378,302.378,0,0,0-13.581,49.07,29.781,29.781,0,0,0,8.139-2.319,27.093,27.093,0,0,0,8.707-6.293,76.077,76.077,0,0,1-2.981-21.341C790.512,665.888,796.805,651.834,796.048,651.6Z" transform="translate(-741.533 -627.763)" fill="#353535" opacity="0.08"/>
        </g>
        <g id="head" transform="translate(40.379 38.035)">
          <path id="Path_5784" data-name="Path 5784" d="M715.875,519.781a14.371,14.371,0,0,0-.9,9.417,4.463,4.463,0,0,0-3.6,1.514c-1.42,1.893-.095,4.259.142,4.637a2.917,2.917,0,0,0,1.656,1.609,3.237,3.237,0,0,0,2.839-.9,25.326,25.326,0,0,0,3.738,6.388,27.187,27.187,0,0,0,8.139,6.909c.095,2.271.189,4.5.237,6.767a6.482,6.482,0,0,0,3.218,1.609,7.217,7.217,0,0,0,5.915-1.751q-.071-4.259-.142-8.517a22.935,22.935,0,0,0,4.022-4.022,21.738,21.738,0,0,0,4.117-9.417,7.413,7.413,0,0,0,2.46.379c1.041,0,2.366-.047,2.981-.9.662-.946-.047-2.319-.757-3.786-.71-1.372-1.23-1.561-1.42-1.609a2.32,2.32,0,0,0-1.8.378,16.118,16.118,0,0,0-.9-7.524,16.3,16.3,0,0,0-6.814-8.281C731.49,508.614,719.661,512.068,715.875,519.781Z" transform="translate(-701.832 -505.055)" fill="#fcd6b1"/>
          <g id="Group_6611" data-name="Group 6611" transform="translate(12.408 14.306)">
            <g id="Group_6610" data-name="Group 6610">
              <path id="Path_5785" data-name="Path 5785" d="M718.928,529.228c-2.792,12.256,1.751,28.06,15.663,30.71.9.189,1.278-1.183.379-1.372-13.155-2.508-17.272-17.413-14.669-28.959.189-.9-1.183-1.278-1.372-.379Z" transform="translate(-718.144 -528.714)" fill="#161616"/>
            </g>
          </g>
          <g id="Group_6613" data-name="Group 6613" transform="translate(28.529 20.345)">
            <g id="Group_6612" data-name="Group 6612">
              <path id="Path_5786" data-name="Path 5786" d="M752.728,566.613c1.94.568,4.59-1.278,6.151-2.319a20.712,20.712,0,0,0,5.394-5.158,24.446,24.446,0,0,0,4.448-16.988c-.095-.9-1.514-.9-1.42,0a23.175,23.175,0,0,1-3.218,14.811,21.539,21.539,0,0,1-4.353,4.921c-1.372,1.136-4.732,3.88-6.625,3.36a.712.712,0,0,0-.379,1.372Z" transform="translate(-752.214 -541.475)" fill="#161616"/>
            </g>
          </g>
          <g id="Group_6615" data-name="Group 6615" transform="translate(24.841 43.475)">
            <g id="Group_6614" data-name="Group 6614">
              <path id="Path_5787" data-name="Path 5787" d="M744.457,591.229a11.816,11.816,0,0,1,.568,6.01c-.142.9,1.23,1.278,1.372.378a13.174,13.174,0,0,0-.568-6.767c-.284-.852-1.656-.52-1.372.379Z" transform="translate(-744.419 -590.357)" fill="#161616"/>
            </g>
          </g>
          <g id="Group_6617" data-name="Group 6617" transform="translate(34.576 42.064)">
            <g id="Group_6616" data-name="Group 6616">
              <path id="Path_5788" data-name="Path 5788" d="M765.09,588.049a20.236,20.236,0,0,0,.568,7.145.712.712,0,0,0,1.372-.379,20.382,20.382,0,0,1-.52-6.767c.095-.9-1.325-.9-1.42,0Z" transform="translate(-764.992 -587.375)" fill="#161616"/>
            </g>
          </g>
          <g id="Group_6619" data-name="Group 6619" transform="translate(25.301 48.376)">
            <g id="Group_6618" data-name="Group 6618">
              <path id="Path_5789" data-name="Path 5789" d="M745.584,603.594c3.265,3.644,10.079,3.549,11.262-1.987.189-.9-1.183-1.278-1.372-.379-.994,4.5-6.293,4.211-8.9,1.372-.615-.663-1.609.331-.994.994Z" transform="translate(-745.391 -600.714)" fill="#161616"/>
            </g>
          </g>
          <g id="Group_6621" data-name="Group 6621" transform="translate(25.56 42.811)">
            <g id="Group_6620" data-name="Group 6620">
              <path id="Path_5790" data-name="Path 5790" d="M746.157,591.435a5.568,5.568,0,0,0,8.8-1.42c.426-.8-.8-1.514-1.23-.71a4.137,4.137,0,0,1-6.577,1.136c-.662-.615-1.656.379-.994.994Z" transform="translate(-745.938 -588.952)" fill="#161616"/>
            </g>
          </g>
          <g id="Group_6623" data-name="Group 6623" transform="translate(27.943 44.903)">
            <g id="Group_6622" data-name="Group 6622">
              <path id="Path_5791" data-name="Path 5791" d="M751.649,594.806a5.066,5.066,0,0,1,1.893.189.712.712,0,0,0,.379-1.372,7.431,7.431,0,0,0-2.271-.237c-.9.047-.9,1.467,0,1.419Z" transform="translate(-750.975 -593.375)" fill="#161616"/>
            </g>
          </g>
          <g id="Group_6625" data-name="Group 6625" transform="translate(8.055 24.11)">
            <g id="Group_6624" data-name="Group 6624">
              <path id="Path_5792" data-name="Path 5792" d="M714.223,556.467c-1.94,1.561-3.644-.615-3.833-2.461-.237-1.8,1.325-4.022,3.312-2.792.757.473,1.467-.757.71-1.23-2.934-1.845-5.773,1.278-5.442,4.211.379,3.123,3.454,5.536,6.246,3.265.71-.568-.284-1.562-.994-.994Z" transform="translate(-708.944 -549.431)" fill="#161616"/>
            </g>
          </g>
          <g id="Group_6627" data-name="Group 6627" transform="translate(43.653 22.453)">
            <g id="Group_6626" data-name="Group 6626">
              <path id="Path_5793" data-name="Path 5793" d="M785.8,547.714c1.514-1.42,2.981,1.278,2.934,2.508a2.321,2.321,0,0,1-1.041,1.94c-.521.331-1.751.757-2.177.095-.473-.757-1.7-.047-1.23.71.71,1.183,2.319,1.23,3.5.757a3.7,3.7,0,0,0,2.319-3.312c.142-2.6-2.839-6.057-5.347-3.691-.615.615.379,1.656,1.041.994Z" transform="translate(-784.175 -545.93)" fill="#161616"/>
            </g>
          </g>
          <g id="Group_6629" data-name="Group 6629" transform="translate(26.09 14.004)">
            <g id="Group_6628" data-name="Group 6628">
              <path id="Path_5794" data-name="Path 5794" d="M747.22,528.749a44.775,44.775,0,0,1-.142,9.748c-.189,2.224.994,3.17,2.744,4.59.71.568,1.7-.426.994-.994-1.23-1.041-2.319-1.751-2.271-3.644a28.04,28.04,0,0,1,.331-2.792,33.656,33.656,0,0,0-.189-6.909c-.142-.9-1.561-.9-1.467,0Z" transform="translate(-747.058 -528.075)" fill="#161616"/>
            </g>
          </g>
          <g id="Group_6631" data-name="Group 6631" transform="translate(16.882 18.325)">
            <g id="Group_6630" data-name="Group 6630">
              <path id="Path_5795" data-name="Path 5795" d="M729.066,540.28c-.047-1.041,1.467-1.7,2.319-1.656.994,0,1.514.8,2.035,1.562s1.751.047,1.23-.71c-.946-1.372-2.035-2.508-3.833-2.224-1.514.284-3.265,1.372-3.218,3.076a.735.735,0,0,0,1.467-.047Z" transform="translate(-727.598 -537.207)" fill="#161616"/>
            </g>
          </g>
          <g id="Group_6633" data-name="Group 6633" transform="translate(33.276 17.098)">
            <g id="Group_6632" data-name="Group 6632">
              <path id="Path_5796" data-name="Path 5796" d="M763.548,537.636a2.844,2.844,0,0,1,5.347.662c.189.9,1.561.521,1.372-.379a4.283,4.283,0,0,0-7.95-1.041c-.379.8.8,1.562,1.23.757Z" transform="translate(-762.244 -534.614)" fill="#161616"/>
            </g>
          </g>
          <g id="Group_6635" data-name="Group 6635" transform="translate(15.621 12.734)">
            <g id="Group_6634" data-name="Group 6634">
              <path id="Path_5797" data-name="Path 5797" d="M726.29,529.038a5.155,5.155,0,0,1,3.644-2.224c.9-.095.9-1.514,0-1.42a6.593,6.593,0,0,0-4.874,2.934c-.521.757.71,1.467,1.23.71Z" transform="translate(-724.934 -525.39)" fill="#161616"/>
            </g>
          </g>
          <g id="Group_6637" data-name="Group 6637" transform="translate(33.864 12.304)">
            <g id="Group_6636" data-name="Group 6636">
              <path id="Path_5798" data-name="Path 5798" d="M764.2,525.91a5.977,5.977,0,0,1,4.5,1.562c.662.615,1.7-.379.994-.994a7.629,7.629,0,0,0-5.536-1.987.71.71,0,0,0,.047,1.42Z" transform="translate(-763.487 -524.482)" fill="#161616"/>
            </g>
          </g>
          <g id="Group_6639" data-name="Group 6639" transform="translate(17.308 24.237)">
            <g id="Group_6638" data-name="Group 6638">
              <path id="Path_5799" data-name="Path 5799" d="M729.92,550.5v-.095a.71.71,0,0,0-1.42,0v.095a.728.728,0,0,0,.71.71.7.7,0,0,0,.71-.71Z" transform="translate(-728.5 -549.7)" fill="#161616"/>
            </g>
          </g>
          <g id="Group_6641" data-name="Group 6641" transform="translate(20.195 23.29)">
            <g id="Group_6640" data-name="Group 6640">
              <path id="Path_5800" data-name="Path 5800" d="M735.31,549.12h.095a.71.71,0,1,0,0-1.42h-.095a.728.728,0,0,0-.71.71.763.763,0,0,0,.71.71Z" transform="translate(-734.6 -547.7)" fill="#161616"/>
            </g>
          </g>
          <g id="Group_6643" data-name="Group 6643" transform="translate(20.1 26.413)">
            <g id="Group_6642" data-name="Group 6642">
              <path id="Path_5801" data-name="Path 5801" d="M735.11,555.72h.095a.71.71,0,0,0,0-1.42h-.095a.71.71,0,0,0,0,1.42Z" transform="translate(-734.4 -554.3)" fill="#161616"/>
            </g>
          </g>
          <g id="Group_6645" data-name="Group 6645" transform="translate(35.432 22.249)">
            <g id="Group_6644" data-name="Group 6644">
              <path id="Path_5802" data-name="Path 5802" d="M767.51,546.92h.095a.71.71,0,1,0,0-1.42h-.095a.728.728,0,0,0-.71.71.763.763,0,0,0,.71.71Z" transform="translate(-766.8 -545.5)" fill="#161616"/>
            </g>
          </g>
          <g id="Group_6647" data-name="Group 6647" transform="translate(39.631 22.155)">
            <g id="Group_6646" data-name="Group 6646">
              <path id="Path_5803" data-name="Path 5803" d="M776.349,546.72a.711.711,0,0,0,0-1.42.711.711,0,0,0,0,1.42Z" transform="translate(-775.675 -545.3)" fill="#161616"/>
            </g>
          </g>
          <g id="Group_6649" data-name="Group 6649" transform="translate(38.034 24.426)">
            <g id="Group_6648" data-name="Group 6648">
              <path id="Path_5804" data-name="Path 5804" d="M773.01,551.52a.711.711,0,0,0,0-1.42.711.711,0,0,0,0,1.42Z" transform="translate(-772.3 -550.1)" fill="#161616"/>
            </g>
          </g>
          <g id="Group_6651" data-name="Group 6651" transform="translate(22.993 30.003)">
            <g id="Group_6650" data-name="Group 6650">
              <path id="Path_5805" data-name="Path 5805" d="M740.6,563.927a6.719,6.719,0,0,0,12.3-1.183c.284-.852-1.088-1.23-1.372-.378a5.276,5.276,0,0,1-9.7.852c-.426-.8-1.656-.095-1.23.71Z" transform="translate(-740.513 -561.885)" fill="#161616"/>
            </g>
          </g>
          <path id="Path_5806" data-name="Path 5806" d="M698.385,518.931a33.334,33.334,0,0,0-5.252,13.107c-.71,4.306-1.94,11.83,2.792,17.792,1.278,1.609,5.962,6.861,12.4,6.01,4.306-.568,8.9-3.786,9.748-8.281a8.6,8.6,0,0,0-.473-4.921,22.08,22.08,0,0,1-8.517-7.145,19.506,19.506,0,0,1-2.745-5.442,3.094,3.094,0,0,1-2.035.71,3.031,3.031,0,0,1-2.177-1.136c-1.467-1.656-1.325-5.063.615-6.2a3.825,3.825,0,0,1,2.744-.237,15.516,15.516,0,0,1,1.42-9.417c1.325-2.65,3.36-4.59,8.044-7.524,3.88-2.413,5.584-2.224,6.2-2.129a6.856,6.856,0,0,1,4.022,2.886c2.981,3.786,6.861,8.659,11.5,14.669a3.375,3.375,0,0,1,2.744-.142,3.487,3.487,0,0,1,1.609,1.845,3.4,3.4,0,0,1,.426,2.177,3.339,3.339,0,0,1-2.319,2.555,3.445,3.445,0,0,1-2.934-.473,22.63,22.63,0,0,1-2.934,7.382,23.326,23.326,0,0,1-5.442,6.01,10.539,10.539,0,0,0,.473,5.584,11.838,11.838,0,0,0,8.517,7.1c6.388,1.372,11.546-3.407,12.871-4.685,4.543-4.259,7.287-11.4,4.969-18.265a17.742,17.742,0,0,0-7.145-8.9,70.23,70.23,0,0,0-5.252-9.937c-4.259-6.672-7.193-11.167-12.539-12.823a15.7,15.7,0,0,0-8.234-.142,16.044,16.044,0,0,0-7.429,0C706.193,500.9,700.23,508.758,698.385,518.931Z" transform="translate(-692.196 -498.48)" fill="#141414"/>
          <path id="Path_5807" data-name="Path 5807" d="M761.536,530.6c-.379.142.379,2.6.757,5.063a27.081,27.081,0,0,1-1.42,12.256A23.245,23.245,0,0,1,750.7,559.272c1.467.331,2.981.662,4.448,1.041.426,2.555.8,5.158,1.23,7.713.946-1.136,1.94-2.271,2.886-3.407a11.632,11.632,0,0,0,2.366,3.076,12.414,12.414,0,0,0,7.193,3.17c4.543.426,7.9-2.035,9.8-3.407a17.743,17.743,0,0,0,6.293-21.436,25.345,25.345,0,0,1-4.637,9.369c-.662.852-6.625,8.281-10.316,7-3.17-1.088-4.259-8.565-2.7-18.36a2.286,2.286,0,0,0,4.022-.615,3.618,3.618,0,0,0-.946-3.833,4.24,4.24,0,0,0-2.886-1.325,28.635,28.635,0,0,1-2.461-2.792C762.719,532.679,761.867,530.5,761.536,530.6Z" transform="translate(-722.887 -515.398)" fill="#353535" opacity="0.08"/>
          <path id="Path_5808" data-name="Path 5808" d="M749.295,552.292a2.1,2.1,0,0,1,3.076.521,1.893,1.893,0,0,1-.8,2.461C750.525,555.557,748.774,553.1,749.295,552.292Z" transform="translate(-722.097 -526.588)" fill="#353535" opacity="0.09"/>
          <path id="Path_5809" data-name="Path 5809" d="M708.189,581.714c-.994,1.7-2.981,3.265-4.968,3.076-1.183-.095-2.508-.8-7.1-8.139-1.514-2.413-2.7-4.5-3.5-5.868a18.783,18.783,0,0,0,1.42,13.77,16.434,16.434,0,0,0,6.719,7.193,12.126,12.126,0,0,0,6.057,1.751,11.908,11.908,0,0,0,8.328-3.833,8.552,8.552,0,0,0,2.886-5.347,7.573,7.573,0,0,0-1.23-4.827c-1.42-2.177-2.934-1.94-5.347-4.022-3.076-2.65-3.927-5.915-4.306-5.773C706.58,570.026,710.887,577.077,708.189,581.714Z" transform="translate(-691.922 -535.994)" fill="#353535" opacity="0.09"/>
          <path id="Path_5810" data-name="Path 5810" d="M769.127,553c-.284-.095-1.136,2.886-3.6,6.909A40.97,40.97,0,0,1,754.6,571.641a19.836,19.836,0,0,0,9.274-5.536C768.985,560.616,769.553,553.14,769.127,553Z" transform="translate(-724.941 -527.199)" fill="#353535" opacity="0.13"/>
        </g>
        <path id="Path_8414" data-name="Path 8414" d="M-.812-1.652,23,0l-.876,24.641-22.2-4.059Z" transform="translate(63.768 175.649)" fill="#656eff"/>
      </g>
    </g>
  </g>
</svg>
