<svg xmlns="http://www.w3.org/2000/svg" width="599.807" height="453.999" viewBox="0 0 599.807 453.999">
  <g id="growth_2" data-name="growth 2" transform="translate(-184.922 -143.22)">
    <g id="background" transform="translate(184.716 145.523)">
      <g id="Group_9221" data-name="Group 9221" transform="translate(273.692 66.215)">
        <g id="Group_9220" data-name="Group 9220">
          <path id="Path_7329" data-name="Path 7329" d="M763.308,300.864c32.8,14.152,70.051,11.786,103.61,1.515,18.176-5.585,36.256-13.064,55.615-13.016,19.5.047,38.008,6.863,57.082,9.892,17.323,2.745,36.4,2.414,51.261-8,.757-.521.047-1.751-.71-1.231-13.726,9.608-31.144,10.46-47.237,8.283-18.223-2.461-35.736-8.8-54.148-10.129s-35.783,4.213-53.059,9.892c-17.229,5.633-34.647,10.034-52.775,11.076-20.069,1.183-40.374-1.515-58.881-9.514-.852-.379-1.562.852-.757,1.231Z" transform="translate(-762.955 -287.981)"/>
        </g>
      </g>
      <g id="Group_9229" data-name="Group 9229" transform="translate(469.851 233.75)">
        <g id="Group_9228" data-name="Group 9228">
          <path id="Path_7333" data-name="Path 7333" d="M1178.056,660.428c19.6,1.183,35.736-12.117,54.242-16.14a39.81,39.81,0,0,1,15.146-.71,35.085,35.085,0,0,1,12.448,4.97c6.674,4.07,13.158,9.324,21.3,9.892,9.892.663,18.649-5.49,26.032-11.265.71-.568-.284-1.562-.994-.994-7.194,5.585-15.809,11.691-25.465,10.792-8.378-.757-15-6.816-22.057-10.744-16.235-9.088-33.606-1.941-49.178,4.923-9.987,4.355-20.353,8.567-31.428,7.9-.947-.095-.947,1.325-.047,1.373Z" transform="translate(-1177.387 -641.939)"/>
        </g>
      </g>
      <g id="Group_9231" data-name="Group 9231" transform="translate(22.541 318.185)">
        <g id="Group_9230" data-name="Group 9230">
          <path id="Path_7334" data-name="Path 7334" d="M233.551,844.879a27.8,27.8,0,0,1,26.175-6.579c9.561,2.6,15.714,10.839,23.382,16.519,15.288,11.312,36.114,9.514,52.917,2.84C355.857,849.8,372.375,835.6,392.16,827.6c9.656-3.929,20.116-6.437,30.624-5.727,10.224.71,18.933,5.112,27.027,11.076,8.046,5.917,15.62,12.922,25.039,16.661a36.322,36.322,0,0,0,30.908-2.13c.8-.426.095-1.657-.71-1.231a35.173,35.173,0,0,1-31.286,1.373c-8.425-3.739-15.336-9.987-22.672-15.478-7.526-5.633-15.525-10.034-24.991-11.36-9.75-1.325-19.69.331-28.92,3.408-20.211,6.768-36.872,20.731-56.041,29.677-17.7,8.283-40.469,12.164-57.272-.284-8.378-6.2-14.957-15.052-25.749-17.134a29.265,29.265,0,0,0-25.559,7.431c-.663.615.331,1.657.994.994Z" transform="translate(-232.338 -820.327)"/>
        </g>
      </g>
      <g id="Group_9235" data-name="Group 9235" transform="translate(383.068 355.02)">
        <g id="Group_9234" data-name="Group 9234">
          <path id="Path_7336" data-name="Path 7336" d="M995.251,944.37a85.106,85.106,0,0,1,36.682-20.163,82.861,82.861,0,0,1,21.3-2.651c8,.095,15.951,1.373,23.9,2.13,15.43,1.467,30.245-1.136,44.681-6.769,13.774-5.348,26.743-14.626,41.558-16.9,17.323-2.651,30.719,8.851,41.747,20.637.615.663,1.609-.331.994-.994-9.088-9.7-19.785-19.737-33.606-21.3-15.146-1.7-28.92,7.195-42.078,13.3-15.146,7.052-31.476,11.88-48.279,10.934-8.378-.473-16.661-1.988-25.086-2.414a82.857,82.857,0,0,0-21.347,1.609,86,86,0,0,0-41.463,21.489c-.663.71.331,1.7.994,1.089Z" transform="translate(-994.038 -898.15)"/>
        </g>
      </g>
      <g id="Group_9237" data-name="Group 9237" transform="translate(106.908 91.688)">
        <g id="Group_9236" data-name="Group 9236" transform="translate(0)">
          <path id="Path_7337" data-name="Path 7337" d="M410.828,352.26c13.253,10.271,30.529,5.727,44.965.994,17.891-5.917,36.02-9.656,54.952-10.034a.711.711,0,0,0,0-1.42,175.805,175.805,0,0,0-51.166,8.709c-15,4.875-33.653,11.738-47.758.757-.71-.568-1.7.426-.994.994Z" transform="translate(-410.584 -341.8)" fill="#161616"/>
        </g>
      </g>
      <g id="Group_9239" data-name="Group 9239" transform="translate(234.085)">
        <g id="Group_9238" data-name="Group 9238">
          <path id="Path_7338" data-name="Path 7338" d="M679.95,164.186c16-1.183,31.428-5.632,46.906-9.372,16.093-3.929,32.233-6.532,48.847-4.733,16.755,1.8,32.99,6.863,49.415,10.46a180.173,180.173,0,0,0,48.042,4.307,172.062,172.062,0,0,0,53.2-11.265c.852-.331.473-1.7-.379-1.373a172.74,172.74,0,0,1-97.031,7.668c-16.14-3.361-31.949-8.283-48.279-10.65-15.762-2.272-31.144-.994-46.669,2.414-17.986,3.929-35.641,9.7-54.053,11.076-.9.142-.9,1.562,0,1.467Z" transform="translate(-679.275 -148.087)"/>
        </g>
      </g>
      <g id="Group_9241" data-name="Group 9241" transform="translate(490.071 129.27)">
        <g id="Group_9240" data-name="Group 9240">
          <path id="Path_7339" data-name="Path 7339" d="M1220.956,426.644c13.821-5.112,28.162,2.177,41.983,3.5a67.827,67.827,0,0,0,22.057-1.7c7.1-1.7,14.01-4.213,21.252-5.3,7.762-1.183,16.046-.71,22.767,3.692.757.521,1.467-.71.71-1.231-11.928-7.762-26.506-3.6-39.1-.095-7.9,2.225-15.809,3.834-24.045,3.5-7.857-.284-15.383-2.461-23.051-4.071-7.62-1.562-15.477-2.414-22.909.331-.9.284-.521,1.657.331,1.373Z" transform="translate(-1220.107 -421.201)"/>
        </g>
      </g>
      <g id="Group_9243" data-name="Group 9243" transform="translate(0.206 187.712)">
        <g id="Group_9242" data-name="Group 9242">
          <path id="Path_7340" data-name="Path 7340" d="M201.2,728.749c12.022-10.7,28.967-1.231,42.315.8,15.43,2.367,30.86-1.893,45.581-6.011a.712.712,0,0,0-.379-1.373c-16.282,4.544-33.132,9.04-50.03,5.017-12.354-2.935-27.453-9.182-38.528.568-.663.568.331,1.562,1.041.994Z" transform="translate(-199.94 -722.142)"/>
        </g>
      </g>
      <g id="Group_9245" data-name="Group 9245" transform="translate(158.627 403.37)">
        <g id="Group_9244" data-name="Group 9244">
          <path id="Path_7341" data-name="Path 7341" d="M521.058,1008.158a17.757,17.757,0,0,1,15.714-6.248c3.408.426,6.532,1.988,9.656,3.361a61.253,61.253,0,0,0,7.952,2.84,59.3,59.3,0,0,0,35.357-1.231c.852-.284.473-1.657-.379-1.373a58.168,58.168,0,0,1-39.333-.331c-5.49-2.035-10.6-5.3-16.708-4.828a19.4,19.4,0,0,0-13.3,6.768c-.568.757.473,1.751,1.041,1.041Z" transform="translate(-519.853 -1000.302)" fill="#161616"/>
        </g>
      </g>
      <g id="Group_9247" data-name="Group 9247" transform="translate(239.519 402.232)">
        <g id="Group_9246" data-name="Group 9246">
          <path id="Path_7342" data-name="Path 7342" d="M691.629,1003.01a92.557,92.557,0,0,1,26.458-3.692.711.711,0,0,0,0-1.42,95.444,95.444,0,0,0-26.837,3.739c-.852.284-.521,1.657.379,1.373Z" transform="translate(-690.757 -997.897)" fill="#161616"/>
        </g>
      </g>
      <g id="Group_9249" data-name="Group 9249" transform="translate(251.363 38.082)">
        <g id="Group_9248" data-name="Group 9248">
          <path id="Path_7343" data-name="Path 7343" d="M716.073,229.9a293.14,293.14,0,0,1,24.045,20.684c.663.615,1.657-.379.994-.994a300.76,300.76,0,0,0-24.329-20.873c-.71-.615-1.42.615-.71,1.183Z" transform="translate(-715.779 -228.545)" fill="#161616"/>
        </g>
      </g>
      <g id="Group_9251" data-name="Group 9251" transform="translate(168.2 50.09)">
        <g id="Group_9250" data-name="Group 9250">
          <path id="Path_7344" data-name="Path 7344" d="M541.461,268.2c.8-4.449,1.657-8.9,2.461-13.395.189-.9-1.183-1.278-1.373-.379-.8,4.449-1.657,8.9-2.461,13.395-.142.9,1.231,1.278,1.373.379Z" transform="translate(-540.078 -253.914)" fill="#161616"/>
        </g>
      </g>
    </g>
    <g id="details" transform="translate(217.671 143.22)">
      <circle id="Ellipse_240" data-name="Ellipse 240" cx="2.745" cy="2.745" r="2.745" transform="translate(406.798 89.401)" fill="#ec615b"/>
      <circle id="Ellipse_241" data-name="Ellipse 241" cx="3.266" cy="3.266" r="3.266" transform="translate(47.596 315.08)" fill="#ec615b"/>
      <circle id="Ellipse_242" data-name="Ellipse 242" cx="7.478" cy="7.478" r="7.478" transform="translate(27.575 10.782)" fill="#ec615b"/>
      <circle id="Ellipse_243" data-name="Ellipse 243" cx="2.509" cy="2.509" r="2.509" transform="translate(47.549 27.964)" fill="#ec615b"/>
      <circle id="Ellipse_244" data-name="Ellipse 244" cx="5.585" cy="5.585" r="5.585" transform="translate(187.793 442.829)" fill="#ec615b"/>
      <circle id="Ellipse_245" data-name="Ellipse 245" cx="4.923" cy="4.923" r="4.923" transform="translate(448.025 25.645)" fill="#ec615b"/>
      <circle id="Ellipse_246" data-name="Ellipse 246" cx="3.029" cy="3.029" r="3.029" transform="translate(456.213 18.592)" fill="#ec615b"/>
      <circle id="Ellipse_247" data-name="Ellipse 247" cx="7.478" cy="7.478" r="7.478" transform="translate(35.1 2.925)" fill="#5222d0"/>
      <circle id="Ellipse_248" data-name="Ellipse 248" cx="3.739" cy="3.739" r="3.739" transform="translate(35.1 318.535)" fill="#5222d0"/>
      <circle id="Ellipse_249" data-name="Ellipse 249" cx="3.313" cy="3.313" r="3.313" transform="translate(166.967 436.534)" fill="#5222d0"/>
      <circle id="Ellipse_250" data-name="Ellipse 250" cx="7.857" cy="7.857" r="7.857" transform="translate(426.914 2.878)" fill="#5222d0"/>
      <circle id="Ellipse_251" data-name="Ellipse 251" cx="1.704" cy="1.704" r="1.704" transform="translate(303.709 134.177)" fill="#5222d0"/>
      <g id="Group_9253" data-name="Group 9253" transform="translate(284.962 35.672)">
        <g id="Group_9252" data-name="Group 9252">
          <path id="Path_7345" data-name="Path 7345" d="M859.378,219.066c-.994,2.319-1.941,4.686-2.935,7.005-.331.852,1.041,1.231,1.373.379.994-2.319,1.941-4.686,2.935-7.005.331-.852-1.041-1.231-1.373-.379Z" transform="translate(-856.392 -218.585)" fill="#5222d0"/>
        </g>
      </g>
      <g id="Group_9255" data-name="Group 9255" transform="translate(287.498 36.076)">
        <g id="Group_9254" data-name="Group 9254">
          <path id="Path_7346" data-name="Path 7346" d="M861.963,220.651a18.826,18.826,0,0,1,4.023,6.3c.331.852,1.7.473,1.373-.379a22.049,22.049,0,0,0-4.4-6.91c-.615-.663-1.657.331-.994.994Z" transform="translate(-861.75 -219.438)" fill="#5222d0"/>
        </g>
      </g>
      <g id="Group_9257" data-name="Group 9257" transform="translate(285.301 43.324)">
        <g id="Group_9256" data-name="Group 9256">
          <path id="Path_7347" data-name="Path 7347" d="M857.2,235.816a52.611,52.611,0,0,0,4.686,7.242c.568.71,1.8,0,1.231-.71a59.011,59.011,0,0,1-4.686-7.242.711.711,0,0,0-1.231.71Z" transform="translate(-857.108 -234.752)" fill="#5222d0"/>
        </g>
      </g>
      <g id="Group_9259" data-name="Group 9259" transform="translate(290.155 43.198)">
        <g id="Group_9258" data-name="Group 9258">
          <path id="Path_7348" data-name="Path 7348" d="M869.037,234.966c-.568,2.651-1.089,5.3-1.657,7.952-.189.9,1.183,1.278,1.373.379.568-2.651,1.089-5.3,1.657-7.952.189-.852-1.183-1.231-1.373-.379Z" transform="translate(-867.362 -234.485)" fill="#5222d0"/>
        </g>
      </g>
      <g id="Group_9261" data-name="Group 9261" transform="translate(419.047 238.428)">
        <g id="Group_9260" data-name="Group 9260">
          <path id="Path_7349" data-name="Path 7349" d="M1141.913,647.308a19.494,19.494,0,0,0-2.225,6.674c-.142.9,1.231,1.278,1.373.379a18.622,18.622,0,0,1,2.083-6.3c.426-.852-.8-1.562-1.231-.757Z" transform="translate(-1139.678 -646.955)" fill="#5222d0"/>
        </g>
      </g>
      <g id="Group_9263" data-name="Group 9263" transform="translate(421.136 238.348)">
        <g id="Group_9262" data-name="Group 9262">
          <path id="Path_7350" data-name="Path 7350" d="M1144.143,647.644a62.526,62.526,0,0,0,3.266,7.242c.426.8,1.656.095,1.23-.71a60.538,60.538,0,0,1-3.124-6.91c-.331-.852-1.7-.473-1.373.379Z" transform="translate(-1144.092 -646.785)" fill="#5222d0"/>
        </g>
      </g>
      <g id="Group_9265" data-name="Group 9265" transform="translate(418.648 245.415)">
        <g id="Group_9264" data-name="Group 9264">
          <path id="Path_7351" data-name="Path 7351" d="M1138.96,662.75c1.231,1.751,2.414,3.5,3.645,5.254.521.757,1.751.047,1.231-.71-1.231-1.751-2.414-3.5-3.645-5.254-.521-.757-1.751-.047-1.231.71Z" transform="translate(-1138.834 -661.716)" fill="#5222d0"/>
        </g>
      </g>
      <g id="Group_9267" data-name="Group 9267" transform="translate(422.465 245.888)">
        <g id="Group_9266" data-name="Group 9266">
          <path id="Path_7352" data-name="Path 7352" d="M1148.367,663.04a7.688,7.688,0,0,0-1.467,4.591.711.711,0,0,0,1.42,0,6.366,6.366,0,0,1,1.278-3.881c.521-.757-.71-1.467-1.231-.71Z" transform="translate(-1146.9 -662.716)" fill="#5222d0"/>
        </g>
      </g>
      <g id="Group_9269" data-name="Group 9269" transform="translate(21.445 372.423)">
        <g id="Group_9268" data-name="Group 9268">
          <path id="Path_7353" data-name="Path 7353" d="M303.554,930.406c-1.278,2.793-2.556,5.538-3.834,8.33-.379.8.852,1.562,1.231.71,1.278-2.793,2.556-5.538,3.834-8.33.379-.8-.8-1.515-1.231-.71Z" transform="translate(-299.649 -930.052)" fill="#5222d0"/>
        </g>
      </g>
      <g id="Group_9271" data-name="Group 9271" transform="translate(25.535 372.297)">
        <g id="Group_9270" data-name="Group 9270">
          <path id="Path_7354" data-name="Path 7354" d="M308.343,930.644l3.692,8.8c.331.852,1.7.473,1.373-.379l-3.692-8.8c-.331-.852-1.7-.473-1.373.379Z" transform="translate(-308.292 -929.785)" fill="#5222d0"/>
        </g>
      </g>
      <g id="Group_9273" data-name="Group 9273" transform="translate(21.096 381.227)">
        <g id="Group_9272" data-name="Group 9272">
          <path id="Path_7355" data-name="Path 7355" d="M299,949.811c1.278,2.509,2.509,5.065,3.787,7.573a.744.744,0,0,0,1.136.142,8.931,8.931,0,0,0,1.988-3.266l2.272-4.544c.426-.8-.8-1.515-1.231-.71-.663,1.325-1.373,2.651-2.035,3.976-.568,1.136-1.089,2.7-2.083,3.5l1.136.142c-1.278-2.509-2.509-5.065-3.787-7.573-.379-.757-1.609-.047-1.183.757Z" transform="translate(-298.913 -948.652)" fill="#5222d0"/>
        </g>
      </g>
      <g id="Group_9275" data-name="Group 9275" transform="translate(498.944 152.424)">
        <g id="Group_9274" data-name="Group 9274">
          <path id="Path_7356" data-name="Path 7356" d="M1311.281,465.606a26.483,26.483,0,0,0-2.793,8.851c-.142.9,1.278.9,1.42,0a24.4,24.4,0,0,1,2.556-8.141c.473-.8-.757-1.515-1.183-.71Z" transform="translate(-1308.479 -465.252)" fill="#5222d0"/>
        </g>
      </g>
      <g id="Group_9277" data-name="Group 9277" transform="translate(501.469 153.371)">
        <g id="Group_9276" data-name="Group 9276">
          <path id="Path_7357" data-name="Path 7357" d="M1313.9,468.316c1.467,2.84,2.887,5.68,4.354,8.52.426.8,1.657.095,1.231-.71-1.467-2.84-2.887-5.68-4.354-8.52-.426-.8-1.657-.095-1.231.71Z" transform="translate(-1313.813 -467.252)" fill="#5222d0"/>
        </g>
      </g>
      <g id="Group_9279" data-name="Group 9279" transform="translate(498.997 160.994)">
        <g id="Group_9278" data-name="Group 9278">
          <path id="Path_7358" data-name="Path 7358" d="M1308.643,484.182a44.825,44.825,0,0,0,4.307,8c.521.757,1.751.047,1.231-.71a40.109,40.109,0,0,1-4.165-7.668c-.331-.8-1.7-.426-1.373.379Z" transform="translate(-1308.592 -483.357)" fill="#5222d0"/>
        </g>
      </g>
      <g id="Group_9281" data-name="Group 9281" transform="translate(503.44 161.954)">
        <g id="Group_9280" data-name="Group 9280">
          <path id="Path_7359" data-name="Path 7359" d="M1320.024,485.866a58.5,58.5,0,0,0-2.035,8.141c-.142.9,1.231,1.278,1.373.379a55.337,55.337,0,0,1,2.035-8.141c.284-.852-1.089-1.231-1.373-.379Z" transform="translate(-1317.978 -485.385)" fill="#5222d0"/>
        </g>
      </g>
      <g id="Group_9283" data-name="Group 9283" transform="translate(494.571 382.061)">
        <g id="Group_9282" data-name="Group 9282">
          <path id="Path_7360" data-name="Path 7360" d="M1300.925,950.928c-.568,1.893-1.089,3.739-1.657,5.633a.712.712,0,0,0,1.373.379c.568-1.893,1.089-3.739,1.657-5.633a.712.712,0,0,0-1.373-.379Z" transform="translate(-1299.241 -950.414)" fill="#5222d0"/>
        </g>
      </g>
      <g id="Group_9285" data-name="Group 9285" transform="translate(496.09 382.522)">
        <g id="Group_9284" data-name="Group 9284">
          <path id="Path_7361" data-name="Path 7361" d="M1302.52,952.482c.852,1.893,1.751,3.787,2.6,5.633.379.852,1.609.095,1.231-.71-.852-1.893-1.751-3.787-2.6-5.633-.379-.852-1.609-.142-1.231.71Z" transform="translate(-1302.449 -951.388)" fill="#5222d0"/>
        </g>
      </g>
      <g id="Group_9287" data-name="Group 9287" transform="translate(494.96 388.224)">
        <g id="Group_9286" data-name="Group 9286">
          <path id="Path_7362" data-name="Path 7362" d="M1300.08,964.318a12.708,12.708,0,0,0,2.934,5.917c.615.71,1.609-.331.994-.994a11.159,11.159,0,0,1-2.556-5.254c-.189-.947-1.562-.568-1.373.331Z" transform="translate(-1300.062 -963.435)" fill="#5222d0"/>
        </g>
      </g>
      <g id="Group_9289" data-name="Group 9289" transform="translate(497.86 388.437)">
        <g id="Group_9288" data-name="Group 9288">
          <path id="Path_7363" data-name="Path 7363" d="M1307.046,964.366a18.951,18.951,0,0,0-.852,6.059c.047.9,1.467.9,1.42,0a16.514,16.514,0,0,1,.8-5.68c.284-.852-1.088-1.231-1.373-.379Z" transform="translate(-1306.189 -963.885)" fill="#5222d0"/>
        </g>
      </g>
      <g id="Group_9291" data-name="Group 9291" transform="translate(4.358 132.477)">
        <g id="Group_9290" data-name="Group 9290">
          <path id="Path_7364" data-name="Path 7364" d="M266.7,423.483c-1.041,2.272-2.035,4.544-3.077,6.816-.379.8.852,1.562,1.231.71,1.041-2.272,2.035-4.544,3.077-6.816.379-.8-.852-1.562-1.231-.71Z" transform="translate(-263.549 -423.108)" fill="#5222d0"/>
        </g>
      </g>
      <g id="Group_9293" data-name="Group 9293" transform="translate(4.567 139.992)">
        <g id="Group_9292" data-name="Group 9292">
          <path id="Path_7365" data-name="Path 7365" d="M264.043,439.844c1.089,2.793,2.13,5.538,3.219,8.33.331.852,1.7.473,1.373-.379-1.089-2.793-2.13-5.538-3.219-8.33-.331-.852-1.7-.473-1.373.379Z" transform="translate(-263.992 -438.985)" fill="#5222d0"/>
        </g>
      </g>
      <g id="Group_9295" data-name="Group 9295" transform="translate(7.399 131.882)">
        <g id="Group_9294" data-name="Group 9294">
          <path id="Path_7366" data-name="Path 7366" d="M270.082,422.916c1.467,2.556,2.935,5.159,4.4,7.715a.711.711,0,0,0,1.231-.71c-1.467-2.556-2.935-5.159-4.4-7.715a.71.71,0,0,0-1.231.71Z" transform="translate(-269.975 -421.852)" fill="#5222d0"/>
        </g>
      </g>
      <g id="Group_9297" data-name="Group 9297" transform="translate(8.212 139.692)">
        <g id="Group_9296" data-name="Group 9296">
          <path id="Path_7367" data-name="Path 7367" d="M275.719,438.706a76.489,76.489,0,0,0-3.976,8.756c-.331.852,1.041,1.231,1.373.379a67.581,67.581,0,0,1,3.834-8.425c.426-.8-.8-1.515-1.231-.71Z" transform="translate(-271.692 -438.352)" fill="#5222d0"/>
        </g>
      </g>
      <g id="Group_9299" data-name="Group 9299" transform="translate(362.959 171.303)">
        <g id="Group_9298" data-name="Group 9298">
          <path id="Path_7368" data-name="Path 7368" d="M1022.514,510.327a5.233,5.233,0,0,1,4.828-2.935c1.7.047,2.982,1.231,4.5,1.8,2.651.947,3.455-.757,5.443-2.035,2.7-1.8,5.3,2.225,8.188,2.177,1.656-.047,3.029-.852,3.076-2.6-.379.189-.71.426-1.089.615,1.467.757,2.935,1.515,4.355,2.319.8.426,1.515-.8.71-1.231-1.467-.757-2.935-1.515-4.355-2.319a.743.743,0,0,0-1.089.615c-.142,3.361-6.674-1.42-7.9-1.562-2.793-.379-3.881,3.077-6.3,2.7-2.556-.426-4.165-2.272-6.911-1.8a6.518,6.518,0,0,0-4.733,3.55c-.331.8.852,1.515,1.278.71Z" transform="translate(-1021.178 -505.139)" fill="#5222d0"/>
        </g>
      </g>
      <g id="Group_9301" data-name="Group 9301" transform="translate(381.235 164.557)">
        <g id="Group_9300" data-name="Group 9300">
          <path id="Path_7369" data-name="Path 7369" d="M1060.979,493.212c2.13-2.367,5.49.615,7.9.9,2.793.331,4.97-2.651,7.668-1.136,2.225,1.278,6.3,4.307,7.9.426.331-.852-1.041-1.231-1.373-.379-1.136,2.745-5.207-1.089-6.579-1.657-1.846-.8-3.077-.142-4.733.663-1.988.947-3.408.615-5.3-.237a10.209,10.209,0,0,0-2.651-.852,4.143,4.143,0,0,0-3.834,1.231c-.615.71.379,1.7.994,1.041Z" transform="translate(-1059.791 -490.886)" fill="#5222d0"/>
        </g>
      </g>
      <g id="Group_9303" data-name="Group 9303" transform="translate(342.453 49.807)">
        <g id="Group_9302" data-name="Group 9302">
          <path id="Path_7370" data-name="Path 7370" d="M979.391,253.869q.994-1.846,2.272-.994a6.364,6.364,0,0,1,1.136.568c.426.189.852.473,1.278.615a4.142,4.142,0,0,0,2.272.142c2.035-.568,3.077-3.124,5.254-3.077,2.035.047,3.5,1.988,5.633.994.9-.426,1.515-1.183,2.367-1.657a5.248,5.248,0,0,1,5.822.663c.71.568,1.7-.426.994-.994a6.685,6.685,0,0,0-7.526-.9c-1.089.615-1.988,1.941-3.408,1.751a10.5,10.5,0,0,1-2.272-.947,4.044,4.044,0,0,0-3.313-.047c-1.42.663-2.367,2.509-3.929,2.84-1.988.426-3.313-1.609-5.159-1.657-1.751-.047-3.787,1.657-2.6,3.408.473.757,1.7.047,1.183-.71Z" transform="translate(-977.856 -248.449)" fill="#ec615b"/>
        </g>
      </g>
      <g id="Group_9305" data-name="Group 9305" transform="translate(358.35 43.131)">
        <g id="Group_9304" data-name="Group 9304">
          <path id="Path_7371" data-name="Path 7371" d="M1012.795,238.062c.568-3.077,5.917-.095,7.81-.426,1.231-.189,2.13-1.041,3.266-1.467a5.67,5.67,0,0,1,5.207.568.71.71,0,0,0,.71-1.231,7.427,7.427,0,0,0-4.544-1.136,6.79,6.79,0,0,0-1.988.473c-1.893.8-2.651,1.7-5.017,1.136-2.272-.568-6.153-1.7-6.768,1.7-.237.9,1.136,1.278,1.325.379Z" transform="translate(-1011.442 -234.343)" fill="#ec615b"/>
        </g>
      </g>
      <g id="Group_9307" data-name="Group 9307" transform="translate(0 215.567)">
        <g id="Group_9306" data-name="Group 9306">
          <path id="Path_7372" data-name="Path 7372" d="M255.695,601c.615-2.982,4.733,1.089,5.538,1.609a3.81,3.81,0,0,0,2.982.8c1.42-.237,2.509-1.42,3.976-1.751a6.927,6.927,0,0,1,6.437,1.941c.663.663,1.657-.379.994-.994a8.235,8.235,0,0,0-5.349-2.509,7.551,7.551,0,0,0-3.077.379c-1.562.521-2.793,2.035-4.686,1.278-1.988-.8-2.745-2.84-5.017-3.077-1.467-.142-2.84.426-3.124,1.941-.237.9,1.136,1.278,1.325.379Z" transform="translate(-254.342 -598.656)" fill="#ec615b"/>
        </g>
      </g>
      <g id="Group_9309" data-name="Group 9309" transform="translate(15.758 212.694)">
        <g id="Group_9308" data-name="Group 9308">
          <path id="Path_7373" data-name="Path 7373" d="M288.991,594.391c1.041-1.42,5.822,1.42,7.194,1.751a19.127,19.127,0,0,0,6.768.237c.9-.142.521-1.515-.379-1.373-3.929.521-6.958-.521-10.508-1.941-1.609-.615-3.219-.852-4.307.615-.521.71.71,1.42,1.231.71Z" transform="translate(-287.634 -592.586)" fill="#ec615b"/>
        </g>
      </g>
      <g id="Group_9311" data-name="Group 9311" transform="translate(131.172 308.357)">
        <g id="Group_9310" data-name="Group 9310">
          <path id="Path_7374" data-name="Path 7374" d="M532.812,800.046a3.974,3.974,0,0,1,3.408-1.941c1.231,0,1.988.757,3.077,1.089a3.122,3.122,0,0,0,2.935-.473c1.846-1.231,2.745-2.745,5.254-2.651,2.272.047,4.449,1.136,6.437,2.13.8.426,1.515-.8.71-1.231-3.739-1.893-8.283-3.692-11.88-.615a3.424,3.424,0,0,1-2.13,1.089c-1.373.284-1.231.095-2.272-.331a5.341,5.341,0,0,0-6.768,2.177.724.724,0,0,0,1.231.757Z" transform="translate(-531.475 -794.696)" fill="#ec615b"/>
        </g>
      </g>
      <g id="Group_9313" data-name="Group 9313" transform="translate(147.059 312.232)">
        <g id="Group_9312" data-name="Group 9312">
          <path id="Path_7375" data-name="Path 7375" d="M566.251,807.1c2.225-1.941,6.437,2.13,9.182,1.751,1.657-.237,2.414-1.467,3.5-2.6a5.939,5.939,0,0,1,7.762-.9c.757.473,1.467-.71.71-1.231a7.436,7.436,0,0,0-6.153-.947A7.318,7.318,0,0,0,578.7,804.5c-1.136.947-1.846,2.651-3.455,2.935-3.455.615-6.721-4.213-9.987-1.325-.663.615.331,1.609.994.994Z" transform="translate(-565.038 -802.884)" fill="#ec615b"/>
        </g>
      </g>
      <g id="Group_9315" data-name="Group 9315" transform="translate(82.31)">
        <g id="Group_9314" data-name="Group 9314">
          <path id="Path_7376" data-name="Path 7376" d="M429.642,156.085a4.813,4.813,0,0,1,2.793-3.455c1.325-.568,2.414-.189,3.787-.237a4.79,4.79,0,0,0,3.55-1.988c1.373-1.7,2.272-3.455,4.213-4.591a9.01,9.01,0,0,1,7.242-.757c.9.284,1.231-1.089.379-1.373a10.512,10.512,0,0,0-11.786,4.213c-1.089,1.515-1.893,3.029-3.976,3.077-1.278.047-2.367-.237-3.6.189a6.142,6.142,0,0,0-3.976,4.544.712.712,0,0,0,1.373.379Z" transform="translate(-428.242 -143.22)" fill="#ec615b"/>
        </g>
      </g>
      <g id="Group_9317" data-name="Group 9317" transform="translate(88.743 4.977)">
        <g id="Group_9316" data-name="Group 9316">
          <path id="Path_7377" data-name="Path 7377" d="M443.474,167.066c-2.035-5.4,7.715-5.112,10.65-6.153,3.645-1.278,6.768-3.55,9.845-5.822.71-.521,0-1.751-.71-1.231a53.125,53.125,0,0,1-6.484,4.307,25.292,25.292,0,0,1-8.614,2.461c-3.266.521-7.526,2.793-6.011,6.768.284.852,1.657.521,1.325-.331Z" transform="translate(-441.834 -153.734)" fill="#ec615b"/>
        </g>
      </g>
    </g>
    <g id="rocket_1_" transform="translate(366.496 167.208)">
      <g id="fire" transform="translate(127.356 221.963)">
        <path id="Path_7378" data-name="Path 7378" d="M840.8,706.561c3.6-9.419,9.7-15.572,16-21.962,8.283-8.378,23.666-23.95,39.333-21.489,13.348,2.083,11.88,14.91,30.2,24.234,17.276,8.851,23.9.095,41.132,9.608,2.556,1.42,20.589,11.691,24.707,31.1,1.7,8.046,1.278,19.075-2.272,20.116-4.023,1.183-5.4-22.009-21.489-31.1-12.306-6.958-29.251-3.6-30.624,1.373-1.467,5.254,15.525,8.709,25.133,26.979,4.213,7.952,5.112,15.194,6.39,25.133,1.183,9.372,2.509,28.589-1.846,29.724-3.6.947-5.538-11.88-18.743-22.388-6.958-5.538-14.389-7.81-29.251-12.354-13.395-4.071-20.163-6.058-23.808-2.745-5.4,4.923-1.231,17.418-.473,19.643,5.3,15.9,18.838,22.53,17.844,24.234-1.325,2.13-26.033-4.023-46.2-23.761C849.605,766.01,830.341,733.871,840.8,706.561Z" transform="translate(-837.837 -662.849)" fill="#ea453d" stroke="#000" stroke-width="2"/>
        <path id="Path_7379" data-name="Path 7379" d="M1170.343,864.411c-.189,1.325-1.183,8.709,3.171,13.442,4.828,5.207,10.7,1.231,16.614,6.39,5.443,4.733,4.733,11.833,6.39,11.691,1.893-.142,4.781-9.75.71-15.572-1.278-1.846-4.4-3.5-10.6-6.721-6.343-3.313-7.194-3.171-8.851-4.97-4.118-4.449-3.5-10.271-4.97-10.271C1171.669,858.4,1170.675,861.9,1170.343,864.411Z" transform="translate(-1012.84 -765.842)" fill="#ea453d" stroke="#000" stroke-width="2"/>
        <path id="Path_7380" data-name="Path 7380" d="M1082.068,982.833c-2.651,3.976-2.367,8.236-2.13,12.732.284,4.591.473,8.33,3.171,11.691,3.077,3.834,8.188,5.443,8.851,4.591.521-.663-1.8-2.461-3.881-6.39a29.335,29.335,0,0,1-3.171-13.111c.142-8.52,5.159-13.584,3.881-14.484C1087.843,977.153,1084.2,979.615,1082.068,982.833Z" transform="translate(-965.271 -828.696)" fill="#ea453d" stroke="#000" stroke-width="2"/>
        <g id="Group_9319" data-name="Group 9319" transform="translate(135.454 74.304)">
          <g id="Group_9318" data-name="Group 9318">
            <path id="Path_7381" data-name="Path 7381" d="M1124.34,821.191c7.952,5.254,3.6,17.418,8.8,24.518.521.71,1.751,0,1.231-.71-5.4-7.384-.8-19.406-9.324-25.039-.757-.521-1.467.71-.71,1.231Z" transform="translate(-1124.016 -819.834)" fill="#ec615b"/>
          </g>
        </g>
        <g id="Group_9321" data-name="Group 9321" transform="translate(132.615 40.041)">
          <g id="Group_9320" data-name="Group 9320">
            <path id="Path_7382" data-name="Path 7382" d="M1118.341,748.8a45.883,45.883,0,0,1,16.8,26.317c.189.9,1.562.521,1.373-.379a47.215,47.215,0,0,0-17.418-27.121c-.8-.615-1.515.615-.757,1.183Z" transform="translate(-1118.019 -747.445)" fill="#fff"/>
          </g>
        </g>
        <g id="Group_9323" data-name="Group 9323" transform="translate(105.247 66.45)">
          <g id="Group_9322" data-name="Group 9322">
            <path id="Path_7383" data-name="Path 7383" d="M1060.435,804.405a52.547,52.547,0,0,1,15.478,20.921c.331.852,1.7.473,1.373-.379a54.192,54.192,0,0,0-15.856-21.536c-.663-.568-1.7.426-.994.994Z" transform="translate(-1060.197 -803.242)" fill="#fff"/>
          </g>
        </g>
        <g id="Group_9325" data-name="Group 9325" transform="translate(124.238 95.486)">
          <g id="Group_9324" data-name="Group 9324">
            <path id="Path_7384" data-name="Path 7384" d="M1100.357,865.444a40.08,40.08,0,0,1,2.461,10.46c.095.9,1.515.9,1.42,0a42.551,42.551,0,0,0-2.556-10.839c-.237-.852-1.609-.473-1.325.379Z" transform="translate(-1100.319 -864.585)" fill="#fff"/>
          </g>
        </g>
        <g id="Group_9327" data-name="Group 9327" transform="translate(51.021 103.687)">
          <g id="Group_9326" data-name="Group 9326">
            <path id="Path_7385" data-name="Path 7385" d="M946.042,882.428a29.041,29.041,0,0,0,4.071,20.447c.473.757,1.7.047,1.231-.71a27.553,27.553,0,0,1-3.929-19.359c.142-.9-1.231-1.278-1.373-.379Z" transform="translate(-945.631 -881.914)" fill="#fff"/>
          </g>
        </g>
        <g id="Group_9329" data-name="Group 9329" transform="translate(57.308 127.466)">
          <g id="Group_9328" data-name="Group 9328">
            <path id="Path_7386" data-name="Path 7386" d="M959,933.216a32.638,32.638,0,0,0,6.484,8.33c.663.615,1.657-.379.994-.994a33.135,33.135,0,0,1-6.248-8.046c-.426-.8-1.657-.095-1.231.71Z" transform="translate(-958.913 -932.152)" fill="#fff"/>
          </g>
        </g>
        <g id="Group_9331" data-name="Group 9331" transform="translate(2.926 55.722)">
          <g id="Group_9330" data-name="Group 9330">
            <path id="Path_7387" data-name="Path 7387" d="M844.152,781.249a36.131,36.131,0,0,0,1.325,13.3.712.712,0,0,0,1.373-.379,35.093,35.093,0,0,1-1.278-12.922c.095-.9-1.325-.9-1.42,0Z" transform="translate(-844.019 -780.575)" fill="#fff"/>
          </g>
        </g>
        <g id="Group_9333" data-name="Group 9333" transform="translate(5.786 73.666)">
          <g id="Group_9332" data-name="Group 9332">
            <path id="Path_7388" data-name="Path 7388" d="M850.08,819.344a31.452,31.452,0,0,0,4.118,10.318c.473.757,1.7.047,1.231-.71a31.531,31.531,0,0,1-3.976-9.987c-.189-.852-1.562-.473-1.373.379Z" transform="translate(-850.062 -818.485)" fill="#fff"/>
          </g>
        </g>
      </g>
      <g id="rocket">
        <path id="Path_7389" data-name="Path 7389" d="M578.384,195.2c-1.325,3.6-2.935,8.52-4.5,14.484a165.981,165.981,0,0,0-5.017,44.019c.379,20.731,4.449,35.972,8.188,49.557a263.785,263.785,0,0,0,17.134,45.3,405.152,405.152,0,0,0,35.594,58.739c3.929,5.349,8.946,12.117,8.946,12.117,3.645,4.875,6.768,8.946,8.946,11.88a43.548,43.548,0,0,0,6.863,6.342,44.136,44.136,0,0,0,14.484,7.1c6.153-5.254,12.306-10.555,18.459-15.809,2.793,2.651,5.633,5.254,8.425,7.9,3.881-3.976,7.336-7.147,10.034-9.466a131.493,131.493,0,0,1,23.713-16.614c1.941-1.041,3.6-1.846,4.733-2.367-1.751-3.5-3.5-7.005-5.254-10.555a121.162,121.162,0,0,1,9.75-7.62,132.186,132.186,0,0,1,15.263-8.977c-.01-.885-.811-8.278-7.068-21.109-4.494-9.215-12.459-21.394-23.483-37.125-16.33-23.287-24.471-34.978-28.21-39.806-11.691-15.288-20.873-25.749-27.405-33.18-12.5-14.247-18.128-19.548-22.672-23.429-6.2-5.4-13.064-11.218-23.429-16.614-6.532-3.361-11.928-5.207-19.785-7.9C592.395,198.75,584.206,196.573,578.384,195.2Z" transform="translate(-568.808 -194.585)" fill="#ffca60" stroke="#000" stroke-width="2"/>
        <g id="Group_9335" data-name="Group 9335" transform="translate(0 0.978)">
          <g id="Group_9334" data-name="Group 9334">
            <path id="Path_7390" data-name="Path 7390" d="M576.877,196.455c-10.271,31.665-10.271,65.839-2.887,98.119a219.058,219.058,0,0,0,6.91,23.9c1.373,3.976,3.029,7.857,4.5,11.786.521,1.373.615,2.745,1.231,4.118.9,2.13,1.846,4.26,2.793,6.39,1.751,3.976,3.6,7.9,5.538,11.833,1.941,3.881,4.307,7.573,6.058,11.5.663,1.467,1.231,3.029,1.988,4.449.994,1.8,2.461,3.171,3.5,4.923,2.177,3.645,4.26,7.384,6.532,10.981,10.366,16.708,22.151,32.47,34.221,47.947.568.71,1.562-.284.994-.994-10.65-13.679-21.063-27.547-30.434-42.078-2.319-3.6-4.544-7.195-6.721-10.886-1.041-1.751-2.083-3.55-3.077-5.348-.994-1.751-2.319-2.982-3.361-4.686a31.659,31.659,0,0,1-2.083-4.449c-.852-2.035-1.988-3.881-3.029-5.822-1.988-3.645-3.834-7.336-5.585-11.076-1.846-3.929-3.6-7.9-5.349-11.88-.757-1.751-1.041-3.6-1.751-5.4-.757-1.941-1.562-3.881-2.319-5.869a233.933,233.933,0,0,1-7.478-23.287,206.184,206.184,0,0,1-6.816-48.989,170.537,170.537,0,0,1,8.094-54.952c.142-.71-1.231-1.089-1.467-.237Z" transform="translate(-568.769 -195.966)"/>
          </g>
        </g>
        <g id="Group_9337" data-name="Group 9337" transform="translate(8.103)">
          <g id="Group_9336" data-name="Group 9336">
            <path id="Path_7391" data-name="Path 7391" d="M586.556,195.367c7.9.615,15.951,3.361,23.382,5.964a127.4,127.4,0,0,1,21.3,9.324c13.395,7.762,25.228,17.939,36.02,29.014,11.123,11.407,21.252,23.95,31.05,36.493,9.75,12.5,19.075,25.417,28.068,38.481,9.94,14.531,19.5,29.346,28.872,44.3.473.757,1.7.047,1.231-.71-17.182-27.311-34.931-54.29-54.668-79.849-19.075-24.755-39.522-50.03-66.312-66.833a122.943,122.943,0,0,0-23.145-10.886c-8.141-2.982-17.039-6.059-25.749-6.768a.735.735,0,0,0-.047,1.467Z" transform="translate(-585.887 -193.9)"/>
          </g>
        </g>
        <g id="Group_9339" data-name="Group 9339" transform="translate(79.314 163.917)">
          <g id="Group_9338" data-name="Group 9338">
            <path id="Path_7392" data-name="Path 7392" d="M737.551,613.288a386.656,386.656,0,0,1,73.7-58.692c7.573-4.639,15.241-8.993,23.1-13.064.8-.426.095-1.657-.71-1.231a387.329,387.329,0,0,0-77.53,53.391q-10.082,8.946-19.548,18.6a.7.7,0,1,0,.994.994Z" transform="translate(-736.338 -540.213)" stroke="#000" stroke-width="0.5"/>
          </g>
        </g>
        <g id="Group_9341" data-name="Group 9341" transform="translate(78.96 236.826)">
          <g id="Group_9340" data-name="Group 9340">
            <path id="Path_7393" data-name="Path 7393" d="M735.785,695.505a41.521,41.521,0,0,0,21.157,12.732.712.712,0,0,0,.379-1.373,40.383,40.383,0,0,1-20.542-12.4c-.615-.663-1.609.379-.994,1.041Z" transform="translate(-735.591 -694.252)"/>
          </g>
        </g>
        <g id="Group_9343" data-name="Group 9343" transform="translate(176.996 164.551)">
          <g id="Group_9342" data-name="Group 9342">
            <path id="Path_7394" data-name="Path 7394" d="M942.8,542.616a48.645,48.645,0,0,1,6.3,21.063c.047.9,1.467.9,1.42,0a50.384,50.384,0,0,0-6.484-21.773c-.426-.8-1.657-.095-1.231.71Z" transform="translate(-942.713 -541.552)"/>
          </g>
        </g>
        <g id="Group_9345" data-name="Group 9345" transform="translate(99.951 186.666)">
          <g id="Group_9344" data-name="Group 9344">
            <path id="Path_7395" data-name="Path 7395" d="M781.151,652.043a546.318,546.318,0,0,1,82.926-62.431c.757-.473.047-1.7-.71-1.231a549.431,549.431,0,0,0-83.21,62.668c-.663.615.331,1.609.994.994Z" transform="translate(-779.938 -588.275)"/>
          </g>
        </g>
        <g id="Group_9347" data-name="Group 9347" transform="translate(118.789 202.005)">
          <g id="Group_9346" data-name="Group 9346">
            <path id="Path_7396" data-name="Path 7396" d="M819.957,653.871c2.6,2.556,5.206,5.112,7.81,7.715a.686.686,0,0,0,.994,0,135.454,135.454,0,0,1,25.7-21.347c2.272-1.467,4.591-2.84,6.958-4.165,1.515-.852,4.4-1.657,5.3-3.266.947-1.609-.473-3.786-1.231-5.159a44.3,44.3,0,0,0-4.591-6.721c-.568-.71-1.562.284-.994.994a41.567,41.567,0,0,1,4.355,6.437,5.7,5.7,0,0,1,.947,1.846c-.189.852-.379,1.657-.568,2.509-.237.142-.473.237-.71.379a34.887,34.887,0,0,1-3.219,1.751c-4.118,2.319-8.141,4.828-12.022,7.526a139.231,139.231,0,0,0-20.921,18.176h.994c-2.6-2.556-5.206-5.112-7.81-7.715a.72.72,0,0,0-.994,1.041Z" transform="translate(-819.738 -620.684)"/>
          </g>
        </g>
        <g id="Group_9349" data-name="Group 9349" transform="translate(10.282 50.858)">
          <g id="Group_9348" data-name="Group 9348">
            <path id="Path_7397" data-name="Path 7397" d="M591.679,369.01c11.644-13.726,25.275-25.607,39.238-36.919,14.01-11.312,28.683-21.915,45.107-29.44.852-.379.095-1.609-.71-1.231-16.282,7.431-30.813,17.939-44.729,29.109-14.2,11.454-28.068,23.524-39.9,37.44-.615.757.379,1.751.994,1.041Z" transform="translate(-590.491 -301.349)" stroke="#000" stroke-width="0.5"/>
          </g>
        </g>
        <g id="Group_9351" data-name="Group 9351" transform="translate(93.482 55.14)">
          <g id="Group_9350" data-name="Group 9350">
            <path id="Path_7398" data-name="Path 7398" d="M768.888,314.042c-1.562.095-2.225-2.509-.473-2.651a1.526,1.526,0,0,1,1.562.852,1.472,1.472,0,0,1-1.42,1.846.545.545,0,0,0,0,1.089,2.4,2.4,0,1,0-.142-4.781,2.216,2.216,0,0,0-2.13,2.414,2.617,2.617,0,0,0,2.6,2.367c.71-.095.71-1.183,0-1.136Z" transform="translate(-766.271 -310.396)"/>
          </g>
        </g>
        <g id="Group_9353" data-name="Group 9353" transform="translate(167.18 160.151)">
          <g id="Group_9352" data-name="Group 9352">
            <path id="Path_7399" data-name="Path 7399" d="M923.171,535.59c.047,0,.047,0,.095-.047-.142,0-.284-.047-.426-.047.521.237.237-.757.189-.9a1.68,1.68,0,0,1,.095-.473,1.6,1.6,0,0,1,.663-.71,1.126,1.126,0,0,1,1.467.8,1.024,1.024,0,0,1-1.893.757c-.284-.615-1.183-.095-.9.521a2.16,2.16,0,0,0,3.455.426,2.236,2.236,0,1,0-3.881-.852c.142.615.947,1.373,1.562.757.473-.473,0-1.515-.71-1.231-.615.237-.331,1.231.284.994Z" transform="translate(-921.976 -532.256)"/>
          </g>
        </g>
        <path id="Path_7400" data-name="Path 7400" d="M589,195.8a263.8,263.8,0,0,1,28.683,21.441c6.863,5.917,24.66,21.773,46.906,52.538,24.139,33.369,36.209,50.03,38.623,68.631,1.231,9.7,2.935,37.345-21.441,71.329,10.082-7.668,20.211-15.383,30.292-23.051,4.4,7.242,8.756,14.484,13.158,21.725-4.733,3.5-9.466,6.958-14.2,10.46,2.319,2.793,4.639,5.538,6.958,8.33a99.4,99.4,0,0,1,10.176-8.567,97.634,97.634,0,0,1,16.9-9.94c-1.893-3.645-3.739-7.336-5.633-10.981,8.141-5.348,16.282-10.744,24.423-16.093a61.75,61.75,0,0,0-4.023-16.377,89.316,89.316,0,0,0-9.334-17.094c-10.6-14.342-4.44-8.559-26.639-39.751-15.951-22.435-24.755-34.978-38.86-51.213-9.04-10.413-15.052-17.276-24.66-25.749-10.224-9.04-22.625-19.785-41.557-27.642A124.443,124.443,0,0,0,589,195.8Z" transform="translate(-579.424 -194.901)" fill="#494949" opacity="0.15"/>
        <path id="Path_7401" data-name="Path 7401" d="M855.2,486.3a54.152,54.152,0,0,1-3.408,12.922c-4.923,12.164-12.5,17.466-28.3,33.464-7.478,7.573-18.6,18.791-17.56,20.021.994,1.183,13.158-8.188,34.41-22.2,12.448-8.236,23.807-14.016,30.67-18.182C866.035,503.854,860.167,494.772,855.2,486.3Z" transform="translate(-693.638 -347.901)" fill="#494949" opacity="0.11"/>
        <path id="Path_7402" data-name="Path 7402" d="M919.789,543c-.663.142.947,5.3-.994,11.738-1.42,4.733-3.834,7.005-9.75,14.152-2.556,3.077-6.3,7.715-10.744,13.679l27.831-19.028C921.919,546.785,920.357,542.9,919.789,543Z" transform="translate(-742.326 -377.762)" fill="#494949" opacity="0.08"/>
      </g>
    </g>
    <g id="guy" transform="translate(299.922 199.914)">
      <g id="leg_right" transform="translate(89.859 168.415)">
        <path id="Path_7403" data-name="Path 7403" d="M774.764,858.608a8.766,8.766,0,0,0,1.467,3.787c3.408,5.49,9.04,8.851,13.111,10.792a147.958,147.958,0,0,0-4.97,21.252c-1.325,8.567-2.887,18.554-.852,19.217.71.237,2.793-.426,22.151-38.765,2.7-5.349,4.923-9.8,6.39-12.827-10.318-4.639-20.589-9.324-30.908-13.963C780.16,848.857,774.243,853.164,774.764,858.608Z" transform="translate(-700.531 -739.576)" fill="#161616" stroke="#161616" stroke-miterlimit="10" stroke-width="2"/>
        <path id="Path_7404" data-name="Path 7404" d="M671.739,633.15a117.83,117.83,0,0,0-19.359,17.229,197.743,197.743,0,0,0-32.28,47.1A19.4,19.4,0,0,0,622.8,705c1.941,3.124,4.118,4.5,7.526,7.526,4.165,3.692,5.68,5.869,8.094,8.33,4.686,4.828,11.265,8.472,24.234,15.62,16.282,8.946,25.039,12.212,27.737,13.206,3.313,1.183,6.106,2.083,8.094,2.7.947-4.4,2.083-9.088,3.5-14.01,1.278-4.4,2.651-8.52,4.023-12.354-10.082-7.384-20.447-15.667-30.955-25.039-3.645-3.219-7.147-6.484-10.508-9.7a184.655,184.655,0,0,1,14.247-15.336c1.751-1.7,5.443-5.207,9.94-8.9a132.091,132.091,0,0,1,26.08-16.424c2.035-13.584-.379-26.269-7.81-30.387C697.724,615.117,683.62,624.915,671.739,633.15Z" transform="translate(-619.089 -618.817)" fill="#e8f5ff" stroke="#000" stroke-width="2"/>
        <g id="Group_9355" data-name="Group 9355" transform="translate(0 21.217)">
          <g id="Group_9354" data-name="Group 9354">
            <path id="Path_7405" data-name="Path 7405" d="M661.054,663.812a163.826,163.826,0,0,0-40.469,51.4c-.994,2.035-2.414,4.307-2.6,6.579-.189,2.414,1.278,4.26,2.6,6.106a98.749,98.749,0,0,0,10.6,12.07,130.418,130.418,0,0,0,27.358,19.69c12.117,6.721,24.944,12.07,37.724,17.371.852.331,1.231-1.041.379-1.373-20.921-8.709-42.267-17.608-59.733-32.422a99.809,99.809,0,0,1-11.028-10.886,81.108,81.108,0,0,1-5.017-6.437,5.973,5.973,0,0,1-1.42-4.4,17.347,17.347,0,0,1,1.988-4.875,161.166,161.166,0,0,1,40.611-51.781c.71-.615-.284-1.609-.994-1.041Z" transform="translate(-617.965 -663.643)"/>
          </g>
        </g>
        <g id="Group_9357" data-name="Group 9357" transform="translate(41.164 37.609)">
          <g id="Group_9356" data-name="Group 9356">
            <path id="Path_7406" data-name="Path 7406" d="M747,698.381a161.046,161.046,0,0,0-41.936,39.333c-.521.757.71,1.467,1.231.71a159.423,159.423,0,0,1,41.416-38.86c.757-.426.047-1.657-.71-1.183Z" transform="translate(-704.934 -698.275)"/>
          </g>
        </g>
        <g id="Group_9359" data-name="Group 9359" transform="translate(44.432 71.98)">
          <g id="Group_9358" data-name="Group 9358">
            <path id="Path_7407" data-name="Path 7407" d="M712.057,772.078q19.951,18.034,41.084,34.6c.71.568,1.7-.426.994-.994q-21.157-16.542-41.084-34.6c-.663-.615-1.657.379-.994.994Z" transform="translate(-711.838 -770.891)"/>
          </g>
        </g>
        <g id="Group_9361" data-name="Group 9361" transform="translate(78.759 107.098)">
          <g id="Group_9360" data-name="Group 9360">
            <path id="Path_7408" data-name="Path 7408" d="M791.385,845.566a180.663,180.663,0,0,0-7.005,25.8c-.189.9,1.183,1.278,1.373.379a187.108,187.108,0,0,1,7.005-25.8c.284-.852-1.089-1.231-1.373-.379Z" transform="translate(-784.362 -845.085)"/>
          </g>
        </g>
        <path id="Path_7409" data-name="Path 7409" d="M722.184,687.233c-6.532.568-11.454,5.349-26.648,26.459-5.822,8.094-10.7,15.146-14.436,20.731,5.4,3.787,9.656,6.911,12.354,8.946,15.1,11.312,21.441,17.655,34.268,24.565,2.793,1.515,5.112,2.6,6.484,3.219,1.089-2.982,2.177-5.964,3.219-8.946-3.6-3.124-7.194-6.2-10.839-9.324q-15.052-12.78-29.867-24.755a119.5,119.5,0,0,1,10.839-13.111A147.339,147.339,0,0,1,730.751,695.8c2.225-1.562,4.118-2.793,5.349-3.6C729.994,687.517,725.213,686.949,722.184,687.233Z" transform="translate(-651.217 -654.818)" fill="#494949" opacity="0.11"/>
        <path id="Path_7410" data-name="Path 7410" d="M733.558,713.4a45.937,45.937,0,0,0-15.052,6.484c-13.537,9.04-18.081,22.861-19.406,27.594q10.934,8.52,22.625,17.134c7.573,5.585,15.1,10.886,22.435,16,1.089-1.562,2.177-3.171,3.219-4.733a338.562,338.562,0,0,1-31-25.512c-3.313-3.029-6.484-6.106-9.514-9.135,1.657-2.177,3.455-4.4,5.348-6.674A168.844,168.844,0,0,1,733.558,713.4Z" transform="translate(-660.697 -668.632)" fill="#494949" opacity="0.08"/>
      </g>
      <g id="leg_left" transform="translate(153.806 158.373)">
        <path id="Path_7411" data-name="Path 7411" d="M961.2,821.22l15.1,14.247c-1.325,30.2,1.183,37.3,3.834,37.818,4.118.8,11.17-13.442,14.247-24.66a68.439,68.439,0,0,0,2.319-21.063q-11.786-10.508-23.571-21.063C969.152,811.423,965.176,816.345,961.2,821.22Z" transform="translate(-862.686 -707.623)" fill="#161616" stroke="#161616" stroke-miterlimit="10" stroke-width="2"/>
        <path id="Path_7412" data-name="Path 7412" d="M753.083,626.047A19.392,19.392,0,0,0,759,638.684a17.232,17.232,0,0,0,9.135,4.023c1.515.615,3.029,1.278,4.591,1.893,2.367,3.408,5.869,8.236,10.508,13.726,6.153,7.384,14.436,16.188,34.694,32.848,9.987,8.188,22.861,18.27,38.434,29.346a33.25,33.25,0,0,0,7.526-5.065,35.575,35.575,0,0,0,9.75-14.578c-2.745-2.651-6.816-6.627-11.549-11.549C841.073,667.6,827.062,649,816.365,634.708c-7.052-9.419-16.093-21.962-26.08-37.108C767.424,603.848,752.515,615.965,753.083,626.047Z" transform="translate(-753.067 -597.6)" fill="#e8f5ff" stroke="#000" stroke-width="2"/>
        <g id="Group_9363" data-name="Group 9363" transform="translate(6.872 41.472)">
          <g id="Group_9362" data-name="Group 9362">
            <path id="Path_7413" data-name="Path 7413" d="M768.066,686.63c3.787,1.325,7.526,2.6,11.312,3.929.852.284,1.231-1.089.379-1.373-3.787-1.325-7.526-2.6-11.312-3.929-.852-.284-1.231,1.089-.379,1.373Z" transform="translate(-767.585 -685.219)"/>
          </g>
        </g>
        <g id="Group_9365" data-name="Group 9365" transform="translate(16.977 44.387)">
          <g id="Group_9364" data-name="Group 9364">
            <path id="Path_7414" data-name="Path 7414" d="M789.06,692.383c17.8,24.471,40.848,44.255,64.75,62.573,6.863,5.254,13.821,10.46,20.779,15.62.757.568,1.42-.71.71-1.231-23.95-17.75-48.042-35.736-68.395-57.6a216.75,216.75,0,0,1-16.566-20.069c-.568-.71-1.8,0-1.278.71Z" transform="translate(-788.935 -691.379)"/>
          </g>
        </g>
        <g id="Group_9367" data-name="Group 9367" transform="translate(44.902 11.367)">
          <g id="Group_9366" data-name="Group 9366">
            <path id="Path_7415" data-name="Path 7415" d="M848.06,622.65a546.176,546.176,0,0,0,56.467,72.465c6.011,6.532,12.212,12.874,18.507,19.075.663.663,1.657-.379.994-.994a545.851,545.851,0,0,1-59.97-69.673q-7.668-10.579-14.815-21.583c-.473-.757-1.7-.047-1.183.71Z" transform="translate(-847.934 -621.616)"/>
          </g>
        </g>
        <g id="Group_9369" data-name="Group 9369" transform="translate(102.777 102.562)">
          <g id="Group_9368" data-name="Group 9368">
            <path id="Path_7416" data-name="Path 7416" d="M986.628,814.766c-2.745,8.141-8.046,15.714-16.046,19.311-.852.379-.095,1.609.71,1.231,8.33-3.739,13.821-11.691,16.661-20.163.331-.852-1.041-1.231-1.325-.379Z" transform="translate(-970.208 -814.285)"/>
          </g>
        </g>
        <path id="Path_7417" data-name="Path 7417" d="M836.856,612.667c-2.7-3.645-4.97-6.626-6.484-8.567a30.125,30.125,0,0,0-3.787,13.3c-.426,13.158,9.23,18.791,36.919,49.462,12.07,13.348,18.459,21.394,34.032,37.3,3.645,3.692,6.721,6.769,8.946,8.946,1.7-2.982,3.408-5.964,5.159-8.946-15-15.052-26.885-28.636-35.783-39.38-8.567-10.366-16.235-19.643-24.139-31.192C849.683,630.7,844.524,622.985,836.856,612.667Z" transform="translate(-791.78 -601.023)" fill="#494949" opacity="0.09"/>
        <path id="Path_7418" data-name="Path 7418" d="M866,650.3a82.359,82.359,0,0,0,4.733,15.241c7.81,18.365,19.359,26.127,40.138,49.083,3.976,4.4,10.129,11.36,17.323,20.353,1.657-2.367,3.313-4.686,4.97-7.052-1.515-1.42-3.929-3.645-6.863-6.484-5.4-5.207-20.021-19.737-47.947-55.189C875.324,662.464,871.065,656.974,866,650.3Z" transform="translate(-812.546 -625.356)" fill="#494949" opacity="0.09"/>
      </g>
      <g id="cat_body" transform="translate(6.052 140.739)">
        <path id="Path_7419" data-name="Path 7419" d="M489.27,561.081c-.947.379-2.367,1.183-6.579,7.952-4.544,7.289-7.62,12.259-9.892,20.116a61.885,61.885,0,0,0-2.319,18.6,12.144,12.144,0,0,1-.189,6.2c-.994,3.124-2.793,3.881-6.2,8.141a39.8,39.8,0,0,0-5.443,8.52c-1.988,4.4-.994,4.97-2.887,9.277a33.089,33.089,0,0,1-6.2,9.277c-3.124,3.266-4.639,3.361-6.011,6.2a11.948,11.948,0,0,0-.947,7.147c.095.663,1.089,6.437,4.449,7.147.9.189,2.319.095,2.887-.757.9-1.325-1.183-3.171-1.562-6.39a11.222,11.222,0,0,1,1.751-6.768c2.414-4.5,5.206-3.834,7.762-7.573,2.461-3.692.142-4.828,2.509-11.786,1.325-3.881,2.651-7.762,6.2-10.65,1.609-1.325,3.171-2.035,4.638-4.26a12.724,12.724,0,0,0,1.941-5.207,35.375,35.375,0,0,0,7.336,8.52c2.651,2.177,5.68,4.733,8.236,3.786,1.373-.521,2.6-2.083,2.367-3.171-.142-.615-.71-.8-2.177-2.13,0,0-.568-.521-1.846-1.893a15.35,15.35,0,0,1-3.171-5.68,4.664,4.664,0,0,1,2.982-1.609c1.609-.047,2.84,1.089,4.071,2.319,2.319,2.272,2.225,3.645,3.692,5.017,1.136,1.089,3.219,2.225,7.336,1.941-.189-.521-.521-1.373-.947-2.319-1.467-3.171-2.225-3.5-2.319-4.828-.047-1.041.379-1.325,2.319-4.638,1.657-2.84,2.461-4.26,2.509-5.017.237-2.793-2.177-3.739-2.7-6.958-.473-2.7.71-4.875,1.562-6.579,4.923-9.987,8.046-16.33,7.147-21.11C508.2,564.442,496.275,558.146,489.27,561.081Z" transform="translate(-441.703 -560.345)" fill="#161616"/>
        <g id="Group_9371" data-name="Group 9371" transform="translate(28.12 2.221)">
          <g id="Group_9370" data-name="Group 9370">
            <path id="Path_7420" data-name="Path 7420" d="M517.583,565.257c-6.863,7.005-11.265,15.9-14.2,25.181-2.84,9.04-4.97,19.359-.473,28.21.426.8,1.657.095,1.231-.71-4.449-8.709-2.035-19.028.852-27.879,2.84-8.8,7.052-17.134,13.584-23.808.615-.663-.379-1.657-.994-.994Z" transform="translate(-500.312 -565.038)" fill="#161616"/>
          </g>
        </g>
        <g id="Group_9373" data-name="Group 9373" transform="translate(36.971 41.02)">
          <g id="Group_9372" data-name="Group 9372">
            <path id="Path_7421" data-name="Path 7421" d="M520.332,649.324c.568-.284,1.136-.521,1.7-.8.426.237.852.521,1.278.757a6.609,6.609,0,0,1,1.325,1.7,6.77,6.77,0,0,1,.9,3.834c-.189,2.556-2.035,4.544-2.509,7.005-.284,1.515.71,2.6,1.562,3.739a35.744,35.744,0,0,0,5.017,5.349c.663.615,1.7-.379.994-.994a38.584,38.584,0,0,1-3.408-3.408c-1.7-1.941-3.219-3.6-2.035-6.3,1.041-2.367,2.13-4.591,1.657-7.289a8.005,8.005,0,0,0-3.408-5.349c-1.562-.947-3.455-.757-4.307.994-.426.852.8,1.562,1.231.757Z" transform="translate(-519.013 -647.008)" fill="#161616"/>
          </g>
        </g>
        <g id="Group_9375" data-name="Group 9375" transform="translate(30.705 54.97)">
          <g id="Group_9374" data-name="Group 9374">
            <path id="Path_7422" data-name="Path 7422" d="M505.881,677.531A29.156,29.156,0,0,0,517,687.992c1.373.71,3.976,2.367,5.633,1.657,1.562-.663,1.278-2.556.852-3.834-.284-.852-1.657-.473-1.373.379,1.089,3.455-3.5,1.041-4.4.568a26.07,26.07,0,0,1-4.165-2.7,28.045,28.045,0,0,1-6.484-7.289c-.426-.71-1.657,0-1.183.757Z" transform="translate(-505.775 -676.481)" fill="#161616"/>
          </g>
        </g>
        <g id="Group_9377" data-name="Group 9377" transform="translate(43.059 12.086)">
          <g id="Group_9376" data-name="Group 9376">
            <path id="Path_7423" data-name="Path 7423" d="M552.24,586.362a141.505,141.505,0,0,0-5.349,28.778.658.658,0,0,0,.521.663c2.982.8,2.556,4.5,1.467,6.579-1.089,1.988-2.793,3.645-3.645,5.775-1.515,3.834,2.982,5.065,2.887,8.425l.71-.71a12.109,12.109,0,0,1-9.987-6.2c-1.515-2.651-3.266-3.219-6.3-3.029-.9.047-.9,1.467,0,1.42a6.947,6.947,0,0,1,3.55.379c.9.521,1.183,1.42,1.657,2.225a13.213,13.213,0,0,0,3.077,3.6,13.664,13.664,0,0,0,7.952,3.029.728.728,0,0,0,.71-.71c.047-1.988-1.278-3.171-2.367-4.686-2.272-3.171,1.467-6.106,2.935-8.8,1.609-2.935,1.562-7.668-2.319-8.662a8.106,8.106,0,0,0,.521.663,137.849,137.849,0,0,1,5.3-28.4c.284-.8-1.089-1.183-1.325-.331Z" transform="translate(-531.875 -585.879)" fill="#161616"/>
          </g>
        </g>
        <g id="Group_9379" data-name="Group 9379" transform="translate(0 47.157)">
          <g id="Group_9378" data-name="Group 9378">
            <path id="Path_7424" data-name="Path 7424" d="M469.206,660.65a13.652,13.652,0,0,1-1.42,8.188c-1.278,2.414-3.361,4.165-5.4,6.011-3.6,3.361-5.254,7.052-6.39,11.786-1.231,5.017-2.7,9.04-6.342,12.827-2.745,2.793-5.964,5.4-7.668,9.04a11.35,11.35,0,0,0,.71,10.981c1.231,1.941,5.443,5.822,7.052,2.13.663-1.515-.095-3.408-.615-4.875a11.558,11.558,0,0,1-1.089-3.976,7.508,7.508,0,0,1,2.461-5.064c3.219-3.361,7.336-5.254,8.756-10.034.8-2.7.237-5.4.426-8.141A12.949,12.949,0,0,1,464,680.908c3.739-3.55,8.709-6.484,8.709-12.259a.711.711,0,0,0-1.42,0c-.047,5.538-5.443,8.283-8.851,11.786a14.186,14.186,0,0,0-4.213,9.892c-.047,2.509.379,4.875-.473,7.289-.947,2.745-2.935,4.591-5.112,6.39-2.793,2.225-6.011,4.828-6.011,8.756,0,1.893.947,3.6,1.515,5.4.142.473.663,1.751.426,2.13-.473.047-.994.142-1.467.189q-1.278.781-1.988-.284c-1.041-.663-1.941-2.651-2.319-3.786-1.515-4.449.568-8.425,3.55-11.644,2.509-2.745,5.443-5.065,7.526-8.188,2.225-3.313,2.887-7.242,3.834-11.028a18.013,18.013,0,0,1,3.55-7.573c1.657-1.941,3.739-3.408,5.443-5.3a15.025,15.025,0,0,0,3.881-12.022c-.047-.9-1.467-.9-1.373,0Z" transform="translate(-440.903 -659.975)" fill="#161616"/>
          </g>
        </g>
      </g>
      <g id="hand_right" transform="translate(0 99.614)">
        <path id="Path_7425" data-name="Path 7425" d="M432.124,505.469c-.994.568-2.84,1.562-3.219,3.645a5.391,5.391,0,0,0,1.42,4.449,4.8,4.8,0,0,0-1.231,2.84,5.141,5.141,0,0,0,2.225,4.071,3.861,3.861,0,0,0-.994,3.455,4.7,4.7,0,0,1,2.225,5.064c.947,1.7,3.219,1.609,3.455,1.609a4.57,4.57,0,0,0,3.834-2.84,10.722,10.722,0,0,0,6.484,1.42,11.217,11.217,0,0,0,4.639-1.609,57.341,57.341,0,0,0,8.283,11.123c3.455,3.6,9.892,10.366,19.453,13.158,11.928,3.5,22.483-1.041,28.541-3.645,16.282-7.005,24.376-19.879,27.358-24.707,5.017-8.236,6.768-15.288,8.283-21.678,2.461-10.129,1.609-14.1.8-16.424-.473-1.42-3.266-9.561-9.7-10.508-5.254-.8-9.608,3.692-10.129,4.26-1.8,1.893-2.745,4.4-4.639,9.324-.947,2.509-1.562,4.4-1.846,5.254-3.077,9.987-4.638,14.957-5.065,16a33.394,33.394,0,0,1-10.318,14.389,32.23,32.23,0,0,1-15.572,6.3c-4.355.615-9.7,1.373-15.383-1.42a22.535,22.535,0,0,1-9.94-10.318c-2.272-4.686-2.7-9.892-3.029-13.584-.426-4.733-.095-8.425-2.84-11.36-.521-.521-1.751-1.846-3.029-1.609-1.846.379-2.887,3.929-3.834,7.289-.8,2.84-.568,3.171-1.231,3.834-1.373,1.373-3.124.663-9.135.994C434.491,504.475,433.26,504.854,432.124,505.469Z" transform="translate(-428.488 -474.163)" fill="#fcd6b1" stroke="#000" stroke-width="2"/>
        <g id="Group_9381" data-name="Group 9381" transform="translate(0 29.001)">
          <g id="Group_9380" data-name="Group 9380">
            <path id="Path_7426" data-name="Path 7426" d="M441.551,535c-5.112-.947-14.1.379-13.395,7.384.615,6.3,8.094,7.384,12.59,4.638.757-.473.047-1.7-.71-1.231-3.739,2.272-10.508,1.657-10.508-4.023,0-5.49,7.715-6.106,11.644-5.4.9.189,1.278-1.183.379-1.373Z" transform="translate(-428.116 -534.728)"/>
          </g>
        </g>
        <g id="Group_9383" data-name="Group 9383" transform="translate(0.045 38.736)">
          <g id="Group_9382" data-name="Group 9382">
            <path id="Path_7427" data-name="Path 7427" d="M429.437,555.535c-5.112,6.248,7.194,14.1,10.839,6.248.379-.8-.852-1.562-1.231-.71-2.84,6.058-12.306,0-8.567-4.544.568-.663-.426-1.7-1.041-.994Z" transform="translate(-428.211 -555.297)"/>
          </g>
        </g>
        <g id="Group_9385" data-name="Group 9385" transform="translate(1.07 44.963)">
          <g id="Group_9384" data-name="Group 9384">
            <path id="Path_7428" data-name="Path 7428" d="M430.861,568.806a5.274,5.274,0,0,0,2.177,6.863,5.209,5.209,0,0,0,6.816-2.272c.426-.8-.8-1.515-1.231-.71a3.873,3.873,0,0,1-4.875,1.751,3.781,3.781,0,0,1-1.657-4.923c.379-.8-.852-1.515-1.231-.71Z" transform="translate(-430.378 -568.452)"/>
          </g>
        </g>
        <g id="Group_9387" data-name="Group 9387" transform="translate(2.674 50.985)">
          <g id="Group_9386" data-name="Group 9386">
            <path id="Path_7429" data-name="Path 7429" d="M433.782,581.849a4.725,4.725,0,0,0,9.182,2.083c.331-.852-1.041-1.231-1.373-.379a3.336,3.336,0,0,1-4.023,2.13,3.5,3.5,0,0,1-2.367-3.834c.047-.9-1.373-.9-1.42,0Z" transform="translate(-433.765 -581.175)"/>
          </g>
        </g>
        <g id="Group_9389" data-name="Group 9389" transform="translate(6.506 34.709)">
          <g id="Group_9388" data-name="Group 9388">
            <path id="Path_7430" data-name="Path 7430" d="M442.543,548.261a5.126,5.126,0,0,1,3.55.615,2.457,2.457,0,0,1,.994,3.077c-.426.8.8,1.515,1.231.71a3.748,3.748,0,0,0-.71-4.355,6.039,6.039,0,0,0-5.112-1.467c-.852.142-.852,1.562.047,1.42Z" transform="translate(-441.862 -546.789)"/>
          </g>
        </g>
        <g id="Group_9391" data-name="Group 9391" transform="translate(10.716 51.979)">
          <g id="Group_9390" data-name="Group 9390">
            <path id="Path_7431" data-name="Path 7431" d="M451.629,585.985c2.461-.9,4.828,1.136,7.384.852a14.005,14.005,0,0,0,5.254-2.225c.757-.473.047-1.7-.71-1.231-2.414,1.467-4.5,2.509-7.384,1.657-1.751-.521-3.124-1.089-4.923-.426-.852.331-.521,1.7.379,1.373Z" transform="translate(-450.757 -583.275)"/>
          </g>
        </g>
        <g id="Group_9393" data-name="Group 9393" transform="translate(12.581 17.316)">
          <g id="Group_9392" data-name="Group 9392">
            <path id="Path_7432" data-name="Path 7432" d="M455.172,523.228c2.461.852,5.774.994,7.147-1.7.757-1.515.284-3.361.615-4.97a8.8,8.8,0,0,1,3.313-5.349c.71-.568-.284-1.562-.994-.994a10.382,10.382,0,0,0-3.645,5.964c-.237,1.325.095,2.887-.284,4.165-.852,2.556-3.692,2.225-5.68,1.515a.726.726,0,0,0-.473,1.373Z" transform="translate(-454.697 -510.042)"/>
          </g>
        </g>
        <g id="Group_9395" data-name="Group 9395" transform="translate(22.579 17.192)">
          <g id="Group_9394" data-name="Group 9394">
            <path id="Path_7433" data-name="Path 7433" d="M476.331,511.161c4.023.521,4.544,7.289,5.206,10.366.8,4.023,1.231,8.094,1.988,12.117a19.586,19.586,0,0,0,10.934,14.436c6.248,2.982,13.348,2.84,19.879,1.041,6.721-1.893,13.679-5.3,18.033-10.934.568-.71-.426-1.7-.994-.994-4.544,5.869-11.928,9.324-19.027,10.981-7.147,1.657-14.957,1.041-20.921-3.6-6.437-4.97-6.579-12.448-7.857-19.879a57.4,57.4,0,0,0-2.414-10.6c-.8-2.083-2.083-3.976-4.4-4.307-.947-.142-1.325,1.231-.426,1.373Z" transform="translate(-475.82 -509.778)"/>
          </g>
        </g>
        <g id="Group_9397" data-name="Group 9397" transform="translate(21.879 19.462)">
          <g id="Group_9396" data-name="Group 9396">
            <path id="Path_7434" data-name="Path 7434" d="M474.511,549.376c5.727,7.005,11.265,15,18.838,20.163,7.431,5.017,16.613,5.538,25.228,4.118,17.513-2.935,32.375-14.815,40.895-30.15a78.192,78.192,0,0,0,9.04-28.257c.095-.9-1.325-.9-1.42,0-2.177,16.9-9.561,33.464-22.719,44.634a54.917,54.917,0,0,1-22.483,11.6c-8.567,2.083-18.46,2.367-26.269-2.225-8.33-4.875-14.152-13.584-20.116-20.921-.568-.663-1.562.331-.994,1.041Z" transform="translate(-474.342 -514.575)"/>
          </g>
        </g>
        <g id="Group_9399" data-name="Group 9399" transform="translate(76.876)">
          <g id="Group_9398" data-name="Group 9398">
            <path id="Path_7435" data-name="Path 7435" d="M619.817,474c-3.929-1.562-8.094.473-10.839,3.361-3.219,3.313-4.828,7.715-6.011,12.07a136.222,136.222,0,0,1-4.544,14.957,87.841,87.841,0,0,1-7.763,14.957c-.521.757.71,1.467,1.231.71a85.584,85.584,0,0,0,10.934-24.376c1.231-4.544,2.035-9.277,4.307-13.395,2.272-4.165,7.1-8.993,12.306-6.911.852.331,1.231-1.041.379-1.373Z" transform="translate(-590.534 -473.457)"/>
          </g>
        </g>
        <g id="Group_9401" data-name="Group 9401" transform="translate(8.642 49.481)">
          <g id="Group_9400" data-name="Group 9400">
            <path id="Path_7436" data-name="Path 7436" d="M447.049,579.419c1.325.095,1.041,2.319.8,3.124-.284.852,1.089,1.231,1.373.379.615-1.8.189-4.733-2.177-4.923-.9-.047-.9,1.373,0,1.42Z" transform="translate(-446.375 -577.997)"/>
          </g>
        </g>
        <g id="Group_9403" data-name="Group 9403" transform="translate(8.756 45.655)">
          <g id="Group_9402" data-name="Group 9402">
            <path id="Path_7437" data-name="Path 7437" d="M447.981,570.806a2.85,2.85,0,0,1-1.041,2.982c-.757.521-.047,1.751.71,1.231a4.256,4.256,0,0,0,1.7-4.591c-.189-.9-1.562-.521-1.373.379Z" transform="translate(-446.616 -569.914)"/>
          </g>
        </g>
        <g id="Group_9405" data-name="Group 9405" transform="translate(10.572 40.323)">
          <g id="Group_9404" data-name="Group 9404">
            <path id="Path_7438" data-name="Path 7438" d="M450.806,559.951c1.278.615.426,2.651-.189,3.455-.568.71.663,1.42,1.231.71,1.089-1.42,1.657-4.449-.331-5.4-.8-.379-1.515.852-.71,1.231Z" transform="translate(-450.452 -558.649)"/>
          </g>
        </g>
        <path id="Path_7439" data-name="Path 7439" d="M430.333,517.19c.757-.426,1.988,2.225,5.159,3.55,1.183.473,2.651.8,9.372,0,2.177-.284,5.017-.663,8.425-1.278a35.345,35.345,0,0,0,4.828,10.981,35.856,35.856,0,0,0,15.194,12.59,40.669,40.669,0,0,0,40.706-6.153c4.875-4.213,8-9.324,12.59-22.625a246.086,246.086,0,0,0,9.7-37.156,26.939,26.939,0,0,1,6.484,10.65,27.982,27.982,0,0,1,.947,11.975c-1.278,12.448-7.526,22.814-11.312,28.115-3.929,5.538-10.934,15.1-23.9,21.015a55.256,55.256,0,0,1-24.234,4.544,27.644,27.644,0,0,1-8.8-1.467c-3.55-1.278-7.1-4.591-14.152-11.123a59.332,59.332,0,0,1-8.756-9.656c-.568-.8-1.041-1.515-1.373-1.988a6.282,6.282,0,0,1-4.118,1.231c-2.225-.189-2.982-1.8-4.828-1.515-1.609.237-1.609,1.562-3.55,2.272a5.693,5.693,0,0,1-5.065-.615c-1.041-.8-1.183-1.7-2.367-6.816C430.144,518.7,429.812,517.474,430.333,517.19Z" transform="translate(-429.157 -475.376)" fill="#494949" opacity="0.11"/>
      </g>
      <g id="cat_head" transform="translate(50.078 127.717)">
        <path id="Path_7440" data-name="Path 7440" d="M539.946,534.483c-.9.189-1.231,1.988-1.8,4.78a29.543,29.543,0,0,0-.521,4.213,8.324,8.324,0,0,0-2.13,5.065c-.047,1.657.521,2.935,1.609,5.3a30.167,30.167,0,0,0,2.13,3.929c-2.035.473-3.455,1.8-3.55,3.219a3.734,3.734,0,0,0,1.609,2.84c2.13,1.846,3.692.473,6.39,1.941,2.177,1.183,1.988,2.509,5.159,4.26,1.988,1.089,2.6.852,2.84.71.8-.521.521-2.225.379-3.361a14.574,14.574,0,0,0-2.319-5.869c1.846-.663,3.692-1.325,5.491-1.941-1.325.142-1.609.189-1.609.189a8.528,8.528,0,0,1,6.058-.189c2.319.994,2.509,3.077,4.449,3.219a3.154,3.154,0,0,0,2.84-1.42c1.089-1.846-.947-4.544-1.42-5.159a9.857,9.857,0,0,0-6.059-3.55,12.311,12.311,0,0,0,.994-4.355,11.825,11.825,0,0,0-1.846-6.579c-.852-2.793-1.657-5.585-2.509-8.425-1.325,3.077-2.793,4.023-3.929,4.26-1.278.284-1.988-.331-4.071,0-1.988.331-2.083.947-3.219.9C542.265,538.175,541.366,534.2,539.946,534.483Z" transform="translate(-534.748 -533.079)" fill="#161616"/>
        <g id="Group_9407" data-name="Group 9407" transform="translate(6.294 14.87)">
          <g id="Group_9406" data-name="Group 9406">
            <path id="Path_7441" data-name="Path 7441" d="M547.3,565.741a3.388,3.388,0,0,0,3.361,1.231A2.726,2.726,0,0,0,552.7,564.6c.047-.473-.663-.473-.71,0a1.99,1.99,0,0,1-1.941,1.751,2.8,2.8,0,0,1-2.225-1.136c-.331-.331-.8.189-.521.521Z" transform="translate(-547.216 -564.25)" fill="#fff"/>
          </g>
        </g>
        <g id="Group_9409" data-name="Group 9409" transform="translate(16.437 13.593)">
          <g id="Group_9408" data-name="Group 9408">
            <path id="Path_7442" data-name="Path 7442" d="M568.719,562.757c1.183,1.7,5.017,1.846,4.875-.852-.047-.473-.757-.473-.71,0,.142,1.941-2.745,1.657-3.55.473-.284-.379-.9,0-.615.379Z" transform="translate(-568.646 -561.55)" fill="#fff"/>
          </g>
        </g>
        <g id="Group_9411" data-name="Group 9411" transform="translate(11.913 19.151)">
          <g id="Group_9410" data-name="Group 9410">
            <path id="Path_7443" data-name="Path 7443" d="M561.839,574.2c0,.047.047.095.047.142.142.047.331.095.473.142a.475.475,0,0,0-.473-.284c.189-.047.331-.142.521-.189-.047-.047-.095-.142-.142-.189-.237.095-.426.189-.663.284a2.628,2.628,0,0,1,0,1.988c-.237.71-1.231,1.657-1.846.71a.361.361,0,0,0-.615.379,1.619,1.619,0,0,0,2.6.095,3.375,3.375,0,0,0,.473-3.5.366.366,0,0,0-.663.284,1.045,1.045,0,0,0,.473.615.352.352,0,0,0,.521-.189c.095-.426-.047-1.42-.71-1.136-.615.237-.379,1.183-.095,1.562a.384.384,0,0,0,.473.142.781.781,0,0,0-.047-1.373c-.379-.284-.71.331-.331.521Z" transform="translate(-559.087 -573.294)" fill="#fff"/>
          </g>
        </g>
        <g id="Group_9413" data-name="Group 9413" transform="translate(14.703 19.766)">
          <g id="Group_9412" data-name="Group 9412">
            <path id="Path_7444" data-name="Path 7444" d="M564.99,575.022c.189,1.089.568,2.414,1.846,2.6s1.657-1.041,1.657-2.035a.355.355,0,0,0-.71,0c0,.71-.237,1.7-1.183,1.231-.71-.331-.8-1.278-.9-1.988-.095-.426-.8-.237-.71.189Z" transform="translate(-564.982 -574.593)" fill="#fff"/>
          </g>
        </g>
        <g id="Group_9415" data-name="Group 9415" transform="translate(0.265 4.196)">
          <g id="Group_9414" data-name="Group 9414">
            <path id="Path_7445" data-name="Path 7445" d="M535.861,554.1a13.493,13.493,0,0,1,9.277-10.555c4.828-1.42,10.413.521,12.638,5.159.379.8,1.609.095,1.231-.71-2.414-4.97-8.33-7.194-13.584-5.964a14.88,14.88,0,0,0-10.934,11.691c-.142.9,1.231,1.278,1.373.379Z" transform="translate(-534.478 -541.697)" fill="#161616"/>
          </g>
        </g>
        <g id="Group_9417" data-name="Group 9417" transform="translate(2.682 0.322)">
          <g id="Group_9416" data-name="Group 9416">
            <path id="Path_7446" data-name="Path 7446" d="M541.06,542.642a15.5,15.5,0,0,1,1.373-6.863,2.535,2.535,0,0,0,.237-.521c.331-.568.379-.663.095-.284-.284.237-.237.426.189.71.095.142.237.331.331.473a25.259,25.259,0,0,1,1.846,3.55c.331.852,1.7.473,1.373-.379-.473-1.136-2.651-6.91-4.5-5.633-.9.615-1.467,2.7-1.751,3.692a16.645,16.645,0,0,0-.663,5.3c.095.852,1.515.852,1.467-.047Z" transform="translate(-539.585 -533.512)" fill="#161616"/>
          </g>
        </g>
        <g id="Group_9419" data-name="Group 9419" transform="translate(17.256)">
          <g id="Group_9418" data-name="Group 9418">
            <path id="Path_7447" data-name="Path 7447" d="M571.712,538.45c.473-.8.947-1.609,1.467-2.414a5.066,5.066,0,0,0,.71-1.041c.331-.189.379-.379.189-.615-.189-.331-.142-.237.095.284a23.345,23.345,0,0,1,1.609,6.248c.095.9,1.515.9,1.42,0a25.3,25.3,0,0,0-.852-4.591c-.284-.852-.71-2.793-1.515-3.313-.615-.379-1.136-.095-1.562.426a29.184,29.184,0,0,0-2.793,4.307c-.473.757.757,1.467,1.231.71Z" transform="translate(-570.375 -532.833)" fill="#161616"/>
          </g>
        </g>
        <g id="Group_9421" data-name="Group 9421" transform="translate(0.359 9.411)">
          <g id="Group_9420" data-name="Group 9420">
            <path id="Path_7448" data-name="Path 7448" d="M534.688,559.146c-.331,7.952,6.863,14.768,14.862,13.111a13.032,13.032,0,0,0,8.851-6.532c1.846-3.55,2.887-9.182.473-12.685-.521-.757-1.751-.047-1.231.71,2.13,3.171,1.089,8.378-.615,11.549a11.69,11.69,0,0,1-7.857,5.585c-7.147,1.42-13.348-4.733-13.064-11.738a.71.71,0,0,0-1.42,0Z" transform="translate(-534.677 -552.716)" fill="#161616"/>
          </g>
        </g>
        <g id="Group_9423" data-name="Group 9423" transform="translate(0 23.557)">
          <g id="Group_9422" data-name="Group 9422">
            <path id="Path_7449" data-name="Path 7449" d="M535.282,587.382c1.136-4.213,6.816-3.976,9.8-2.13,3.171,1.893,4.781,5.585,5.112,9.135.095.994.473,1.988-1.183,1.373a7.607,7.607,0,0,1-1.893-1.609,25.022,25.022,0,0,0-2.556-2.461,7.652,7.652,0,0,0-3.408-1.515c-1.988-.379-5.585-.142-5.775-2.982-.047-.9-1.467-.9-1.42,0a4.2,4.2,0,0,0,3.029,3.692,40.262,40.262,0,0,0,4.165.71,8.082,8.082,0,0,1,4.023,2.556c1.183,1.183,3.219,3.834,5.254,3.455,1.7-.331,1.325-2.272,1.183-3.55-.521-4.544-2.935-9.04-7.384-10.792-3.739-1.467-9.135-.615-10.271,3.787-.284.852,1.089,1.231,1.325.331Z" transform="translate(-533.919 -582.602)" fill="#161616"/>
          </g>
        </g>
        <g id="Group_9425" data-name="Group 9425" transform="translate(17.762 19.282)">
          <g id="Group_9424" data-name="Group 9424">
            <path id="Path_7450" data-name="Path 7450" d="M573.932,576.471c1.941-2.6,6.343-1.562,8.378.189a7.369,7.369,0,0,1,2.367,3.881,5.579,5.579,0,0,1,.189,1.988c-.473,1.373-1.467.947-2.319.284-1.183-.9-2.083-2.177-3.55-2.745a4.864,4.864,0,0,0-2.177-.284,15.338,15.338,0,0,1-2.083.095c-1.325-.189-3.171-1.42-.947-3.124.71-.568-.284-1.562-.994-.994a3.076,3.076,0,0,0-1.183,3.5c.663,1.8,2.367,2.177,4.118,2.083s2.887-.047,4.307,1.136a23.86,23.86,0,0,0,1.988,1.751c.994.71,2.461,1.373,3.55.379,2.509-2.319-.379-7.478-2.367-9.088-2.84-2.319-8.046-2.982-10.413.284-.615.663.615,1.372,1.136.663Z" transform="translate(-571.445 -573.57)" fill="#161616"/>
          </g>
        </g>
        <g id="Group_9427" data-name="Group 9427" transform="translate(3.877 23.773)">
          <g id="Group_9426" data-name="Group 9426">
            <path id="Path_7451" data-name="Path 7451" d="M542.342,583.694c3.077-.994,7.762.947,9.656,3.455.142.189.426,0,.284-.189-1.988-2.7-6.721-4.686-10.034-3.6-.237.047-.142.379.095.331Z" transform="translate(-542.11 -583.059)" fill="#fff"/>
          </g>
        </g>
        <g id="Group_9429" data-name="Group 9429" transform="translate(20.3 20.027)">
          <g id="Group_9428" data-name="Group 9428">
            <path id="Path_7452" data-name="Path 7452" d="M577.088,577.49a5.54,5.54,0,0,1,5.443-1.893c.237.047.331-.284.095-.331a5.923,5.923,0,0,0-5.774,1.988c-.142.189.095.426.237.237Z" transform="translate(-576.807 -575.145)" fill="#fff"/>
          </g>
        </g>
        <g id="Group_9431" data-name="Group 9431" transform="translate(4.895 1.983)">
          <g id="Group_9430" data-name="Group 9430">
            <path id="Path_7453" data-name="Path 7453" d="M545.225,537.248a14.964,14.964,0,0,1,.947,3.739l.284-.142a2.709,2.709,0,0,0-.757-.521c-.142-.047-.284,0-.284.142,0,.426-.047.8-.047,1.231l.284-.142c-.663-.757-1.183.947-1.373,1.278-.095.189.189.379.284.189.047-.095.663-1.42.8-1.231.095.142.284,0,.284-.142,0-.426.047-.8.047-1.231l-.284.142a1.328,1.328,0,0,1,.663.473c.095.095.331.047.284-.142a15.244,15.244,0,0,0-.994-3.834c.095-.095-.237,0-.142.189Z" transform="translate(-544.26 -537.022)" fill="#fff"/>
          </g>
        </g>
        <g id="Group_9433" data-name="Group 9433" transform="translate(19.587 1.488)">
          <g id="Group_9432" data-name="Group 9432">
            <path id="Path_7454" data-name="Path 7454" d="M576.2,536.082a7.936,7.936,0,0,0-.9,3.124c0,.095.142.189.237.189.663-.189.757.331.8.9,0,.142.189.237.284.142.237.379.426.71.663,1.089-.047.237.331.331.331.095.095-.663-.331-2.367-1.231-1.42l.284.142a11.257,11.257,0,0,0-.237-1.231c0-.095-.095-.142-.189-.142a2.474,2.474,0,0,0-.852.142.83.83,0,0,1,.237.189,6.562,6.562,0,0,1,.852-2.935c.142-.331-.189-.521-.284-.284Z" transform="translate(-575.3 -535.977)" fill="#fff"/>
          </g>
        </g>
      </g>
      <g id="torso" transform="translate(100.241 80.322)">
        <path id="Path_7455" data-name="Path 7455" d="M639.9,453.788a132.592,132.592,0,0,0,4.591,20.258c5.585,17.8,12.164,25.417,20.873,46.054,2.177,5.159,5.254,12.922,8.283,22.719a59.938,59.938,0,0,0,28.873,2.13c21.015-3.645,33.369-17.56,36.824-21.773-7.194-13.253-14.436-27.595-21.489-42.977-7.005-15.241-13.111-29.914-18.412-43.877A51.561,51.561,0,0,0,639.9,453.788Z" transform="translate(-639.9 -432.867)" fill="#0dffa4" stroke="#000" stroke-width="2"/>
        <path id="Path_7456" data-name="Path 7456" d="M727.7,432.7c1.8,3.787,4.071,8.946,6.484,15.194A218.289,218.289,0,0,1,745.5,489.924a181.585,181.585,0,0,1,.947,54.621,43.28,43.28,0,0,0,14.531-2.887c8.8-3.5,15.193-9.608,21.347-15.525,1.42-1.325,2.509-2.509,3.219-3.219-2.035-3.5-5.112-8.993-8.709-15.856-10.413-19.785-17.229-36.209-22.956-50.125-2.035-4.875-4.828-11.88-8.094-20.353a47.688,47.688,0,0,0-9.7-2.887A54.561,54.561,0,0,0,727.7,432.7Z" transform="translate(-686.142 -432.7)" fill="#0dffa4" opacity="0.13"/>
        <path id="Path_7457" data-name="Path 7457" d="M793.9,512c.8,8.472,1.467,15.572,1.941,20.684,1.8,20.021,2.13,25.559,2.272,29.109.379,8.378.379,15.241.331,19.737a44.9,44.9,0,0,0,10.65-5.491,46.826,46.826,0,0,0,10.366-10.034Q806.68,538.956,793.9,512Z" transform="translate(-721.009 -474.466)" fill="#0dffa4" opacity="0.1"/>
      </g>
      <g id="hand_left" transform="translate(133.905 70.371)">
        <path id="Path_8229" data-name="Path 8229" d="M814.5,489.813c1.825,2.861,11.047,7.274,12.872,10.135,3.8,9.224,8.876,1.926,11.786,18.795,1.43,8.434,17.946,23.154,20.87,42.395s2.27,15.971-9.173,34.566c2.516-.049,12.694-5.162,16.837-6.494,1.726-.543,10.342-1.562,16.507-13.646,2.565-5.031-11.1-25.557-11.1-25.557L845.734,487.9s-3.386-.107-4.718-1.883c-3.4-1.48-14.678-1.019-20.992-1.66C814.845,483.862,817.8,489.27,814.5,489.813Z" transform="translate(-819.935 -474.43)" fill="#4c4c4c" opacity="0.15"/>
        <path id="Path_7458" data-name="Path 7458" d="M717.164,413.777c-2.272.663-3.5,3.929-4.26,7.289a41.525,41.525,0,0,0-.426,14.768,93.516,93.516,0,0,0,4.639,18.034c2.083,5.491,4.923,12.827,11.123,20.637,3.55,4.449,6.579,8.283,12.164,11.123,3.266,1.7,10.034,5.159,16.992,2.414.331-.142,7.147-2.935,8.9-8.9a23.632,23.632,0,0,0,.615-5.254,50.55,50.55,0,0,0-.189-7.715,54.931,54.931,0,0,0-2.225-10.508c-3.361-11.123-5.017-16.661-8.52-21.489-2.887-3.976-6.153-8.52-11.549-9.135-.473-.047-5.917-.568-9.135,3.219-2.225,2.651-2.083,5.917-2.035,8.094.142,4.165,1.751,7.147,4.26,11.738,2.509,4.544,3.5,5.112,6.484,10.508,4.071,7.384,3.645,8.094,3.455,8.283-.8.71-4.023-1.515-4.733-2.035a16.392,16.392,0,0,1-2.793-2.414,35.65,35.65,0,0,1-5.869-10.318,162.9,162.9,0,0,1-7.1-16.187,20.612,20.612,0,0,1,3.029-6.674c1.609-2.272,3.408-3.834,3.834-6.674a8.152,8.152,0,0,0,0-2.651,2.4,2.4,0,0,0-2.414-4.071,2.619,2.619,0,0,0-4.26-1.846,6.163,6.163,0,0,0-3.455-1.42c-.994-.047-1.467.189-3.834.615A27.313,27.313,0,0,1,717.164,413.777Z" transform="translate(-711.542 -412.156)" fill="#fcd6b1" stroke="#000" stroke-width="2"/>
        <g id="Group_9435" data-name="Group 9435" transform="translate(15.001 6.209)">
          <g id="Group_9434" data-name="Group 9434">
            <path id="Path_7459" data-name="Path 7459" d="M745.216,440.179a64.591,64.591,0,0,1,4.639-8.993c.9-1.515,1.941-3.408.71-5.065-2.793-3.6-6.579.994-7.762,3.361-.426.8.8,1.515,1.231.71.71-1.42,1.515-3.171,3.171-3.645a1.963,1.963,0,0,1,1.467-.095c.142,1.089.284,2.177.473,3.266a11.653,11.653,0,0,1-1.325,2.177,60.538,60.538,0,0,0-3.881,7.857c-.426.9.947,1.231,1.278.426Z" transform="translate(-742.713 -424.793)"/>
          </g>
        </g>
        <g id="Group_9437" data-name="Group 9437" transform="translate(0 0.494)">
          <g id="Group_9436" data-name="Group 9436">
            <path id="Path_7460" data-name="Path 7460" d="M713.046,439.925a61.223,61.223,0,0,1-.237-15.288c.521-4.639,1.515-11.691,7.952-10.366.9.189,1.278-1.183.379-1.373-5.065-1.041-8.236,2.556-9.088,7.147a61.893,61.893,0,0,0-.379,20.258c.142.9,1.515.521,1.373-.379Z" transform="translate(-711.021 -412.718)"/>
          </g>
        </g>
        <g id="Group_9439" data-name="Group 9439" transform="translate(6.687)">
          <g id="Group_9438" data-name="Group 9438">
            <path id="Path_7461" data-name="Path 7461" d="M726.4,417.556a9.933,9.933,0,0,1,2.083-3.455c1.7-1.657,3.881-.757,5.727.142.8.426,1.515-.8.71-1.231-1.941-.994-4.118-1.941-6.2-.852-1.8.947-2.745,2.887-3.5,4.638-.379.9.852,1.609,1.183.757Z" transform="translate(-725.149 -411.675)"/>
          </g>
        </g>
        <g id="Group_9441" data-name="Group 9441" transform="translate(10.991 1.407)">
          <g id="Group_9440" data-name="Group 9440">
            <path id="Path_7462" data-name="Path 7462" d="M735.405,419.547c1.751-2.272,4.07-4.639,7.1-2.84a.71.71,0,0,0,.71-1.231c-3.6-2.13-6.627.189-8.8,3.029-.568.757.426,1.751.994,1.041Z" transform="translate(-734.242 -414.647)"/>
          </g>
        </g>
        <g id="Group_9443" data-name="Group 9443" transform="translate(14.138 3.157)">
          <g id="Group_9442" data-name="Group 9442">
            <path id="Path_7463" data-name="Path 7463" d="M742.078,422.536a8.945,8.945,0,0,1,3.077-2.414c1.467-.615,4.165-.237,3.6,1.988a.712.712,0,0,0,1.373.379,3.314,3.314,0,0,0-2.745-4.071c-2.6-.473-4.639,1.42-6.3,3.124-.615.663.379,1.657.994.994Z" transform="translate(-740.891 -418.344)"/>
          </g>
        </g>
        <g id="Group_9445" data-name="Group 9445" transform="translate(15.274 20.51)">
          <g id="Group_9444" data-name="Group 9444">
            <path id="Path_7464" data-name="Path 7464" d="M743.911,455.383c-1.657,3.55.379,7.147,1.8,10.413a114.261,114.261,0,0,0,6.626,13.442c3.313,5.585,10.508,15.62,18.034,9.892.71-.568,0-1.8-.71-1.231-7.242,5.538-13.963-5.633-16.9-10.792-1.7-3.029-3.219-6.153-4.639-9.324s-4.591-8.141-2.935-11.691c.331-.8-.9-1.562-1.278-.71Z" transform="translate(-743.291 -455.008)"/>
          </g>
        </g>
        <g id="Group_9447" data-name="Group 9447" transform="translate(21.177 16.774)">
          <g id="Group_9446" data-name="Group 9446">
            <path id="Path_7465" data-name="Path 7465" d="M756.585,447.628c-4.165,14.152,8.614,25.133,13.3,37.25.331.852,1.7.473,1.373-.379-4.544-11.738-17.323-22.814-13.3-36.493a.712.712,0,0,0-1.373-.379Z" transform="translate(-755.763 -447.114)"/>
          </g>
        </g>
        <g id="Group_9449" data-name="Group 9449" transform="translate(0.595 26.429)">
          <g id="Group_9448" data-name="Group 9448">
            <path id="Path_7466" data-name="Path 7466" d="M712.289,468.406a84.008,84.008,0,0,0,16.33,36.446c4.023,5.112,8.615,10.082,14.957,12.164,5.4,1.751,12.827,2.651,17.844-.615,5.49-3.5,6.2-10.65,6.437-16.566.047-.9-1.373-.9-1.42,0-.284,7.62-1.988,16.046-11.028,17.134-8.33.994-16.093-2.319-21.725-8.33a81.01,81.01,0,0,1-20.069-40.611c-.095-.9-1.467-.521-1.325.379Z" transform="translate(-712.278 -467.514)"/>
          </g>
        </g>
        <g id="Group_9451" data-name="Group 9451" transform="translate(21.508 12.225)">
          <g id="Group_9450" data-name="Group 9450">
            <path id="Path_7467" data-name="Path 7467" d="M757.9,444.459c1.515-6.059,8.8-6.484,13.348-3.834,4.639,2.7,7.81,7.573,10.129,12.259a118.971,118.971,0,0,1,5.869,15.43c1.941,5.964,3.408,12.212,2.414,18.507-.142.9,1.231,1.278,1.373.379,1.136-7.194-.663-14.152-2.982-20.968-2.13-6.2-4.213-12.59-7.762-18.175-2.982-4.733-7.431-9.656-13.3-10.46-4.544-.615-9.372,1.846-10.508,6.484a.736.736,0,0,0,1.42.379Z" transform="translate(-756.462 -437.503)"/>
          </g>
        </g>
        <path id="Path_7468" data-name="Path 7468" d="M718.705,413.1c3.787-1.515,7.478.142,8.378.568a42.8,42.8,0,0,0-8.756,23.95c-.71,17.039,9.466,28.352,13.064,32.375,4.639,5.159,10.7,11.88,18.507,10.934a14.8,14.8,0,0,0,10.7-7.194c2.13-3.739,1.988-7.81-.568-18.318-3.929-15.9-8.236-25.228-7.62-25.512s5.727,7.715,9.561,17.75a87.088,87.088,0,0,1,4.686,21.063c.71,7.147.095,10.082-1.373,12.685a15.561,15.561,0,0,1-7.384,6.437c-5.727,2.414-11.218.71-13.821-.189-9.324-3.124-14.294-10.7-19.311-18.317-7.715-11.786-9.845-21.867-11.88-31.57-1.42-6.721-2.367-14.531,1.183-20.258A9.312,9.312,0,0,1,718.705,413.1Z" transform="translate(-711.331 -412.098)" fill="#494949" opacity="0.1"/>
      </g>
      <g id="head" transform="translate(64.967 0)">
        <path id="Path_7469" data-name="Path 7469" d="M582.182,342.333c-.142,2.225.663,4.733,2.367,9.75,1.893,5.632,3.929,11.644,9.04,17.56,3.266,3.787,7.242,8.425,14.01,9.75a21.093,21.093,0,0,0,12.117-1.42,29.316,29.316,0,0,0,2.13,4.5,33.213,33.213,0,0,0,7.62,9.04,14.539,14.539,0,0,0,8.094-3.55,16.491,16.491,0,0,0,4.023-6.153,20.842,20.842,0,0,0,1.42-4.733,21.94,21.94,0,0,1-4.5-3.55,23.737,23.737,0,0,1-6.39-13.3c.615-5.443,1.278-10.934,1.893-16.377a5.144,5.144,0,0,0,3.55-.71c1.467-.994,1.751-2.651,2.13-4.5a11.622,11.622,0,0,0-.237-6.91c-.473-1.183-1.988-4.97-5.207-5.207-2.177-.189-4.4,1.278-5.68,3.55-2.745-2.651-8.615-7.336-16.85-8.094C597.47,320.655,582.987,331.778,582.182,342.333Z" transform="translate(-574.218 -294.007)" fill="#fcd6b1" stroke="#000" stroke-width="2"/>
        <path id="Path_7470" data-name="Path 7470" d="M626.514,395.368c-.379.994.71,2.414,1.515,3.124,2.225,1.941,6.153,1.846,8.993.521,3.976-1.846,5.254-5.822,5.822-7.62.663-1.988,1.515-4.591.142-6.91a6.879,6.879,0,0,0-4.071-2.982c-.8,1.657-1.42,2.887-1.893,3.692a18.209,18.209,0,0,0-1.089,2.083,10.374,10.374,0,0,1-1.183,2.272,15.309,15.309,0,0,1-6.39,4.781C627.508,394.516,626.75,394.706,626.514,395.368Z" transform="translate(-597.534 -325.412)"/>
        <g id="Group_9453" data-name="Group 9453" transform="translate(8.693 48.882)">
          <g id="Group_9452" data-name="Group 9452">
            <path id="Path_7471" data-name="Path 7471" d="M583.769,371.4c3.739,11.691,8.425,25.323,20.495,30.813a19.764,19.764,0,0,0,15.809.473c5.633-2.414,8.946-8,11.218-13.395a49.534,49.534,0,0,0,3.787-22.341c-.047-.9-1.467-.9-1.42,0a48.3,48.3,0,0,1-4.307,23.193c-3.266,7.052-8.425,12.685-16.708,12.59-16.661-.189-23.429-18.554-27.595-31.665a.662.662,0,1,0-1.278.331Z" transform="translate(-583.74 -366.275)"/>
          </g>
        </g>
        <g id="Group_9455" data-name="Group 9455" transform="translate(53.45 31.964)">
          <g id="Group_9454" data-name="Group 9454">
            <path id="Path_7472" data-name="Path 7472" d="M679.72,335.959a4.218,4.218,0,0,1,5.585-3.739,7.314,7.314,0,0,1,4.449,5.538,14.43,14.43,0,0,1-.426,7.1c-.568,1.8-1.278,2.745-3.455,2.745-.757,0-1.515-.284-2.319-.284a.711.711,0,0,0,0,1.42c1.609,0,3.171.757,4.733-.047a5.16,5.16,0,0,0,2.272-2.887,14.305,14.305,0,0,0-.189-10.744c-1.278-2.6-4.023-4.828-7.052-4.5a5.518,5.518,0,0,0-5.017,5.349.711.711,0,0,0,1.42.047Z" transform="translate(-678.3 -330.531)"/>
          </g>
        </g>
        <g id="Group_9457" data-name="Group 9457" transform="translate(57.658 62.656)">
          <g id="Group_9456" data-name="Group 9456">
            <path id="Path_7473" data-name="Path 7473" d="M687.2,396.049a25.115,25.115,0,0,0,9.466,20.163c.71.568,1.7-.426.994-.994a23.7,23.7,0,0,1-9.04-19.169.711.711,0,0,0-1.42,0Z" transform="translate(-687.191 -395.375)"/>
          </g>
        </g>
        <g id="Group_9459" data-name="Group 9459" transform="translate(45.4 83.676)">
          <g id="Group_9458" data-name="Group 9458">
            <path id="Path_7474" data-name="Path 7474" d="M661.343,440.644A31.36,31.36,0,0,0,670,453.471c.663.615,1.7-.379.994-.994a30.133,30.133,0,0,1-8.33-12.212c-.284-.852-1.657-.473-1.325.379Z" transform="translate(-661.292 -439.785)"/>
          </g>
        </g>
        <g id="Group_9461" data-name="Group 9461" transform="translate(53.961 81.37)">
          <g id="Group_9460" data-name="Group 9460">
            <path id="Path_7475" data-name="Path 7475" d="M679.862,451.379c4.071,1.467,8.141-1.988,10.65-4.875,2.651-3.029,4.97-6.958,3.834-11.076a.712.712,0,0,0-1.373.379c.947,3.6-1.183,7.1-3.5,9.7-2.177,2.461-5.727,5.775-9.277,4.5-.8-.331-1.183,1.041-.331,1.373Z" transform="translate(-679.379 -434.914)"/>
          </g>
        </g>
        <g id="Group_9463" data-name="Group 9463" transform="translate(12.39 40.906)">
          <g id="Group_9462" data-name="Group 9462">
            <path id="Path_7476" data-name="Path 7476" d="M593.183,357.554c-.615-1.751.8-3.645,1.846-4.875,1.562-1.941,3.976-2.461,5.774-.473,2.083,2.272,2.651,6.342,2.935,9.277.189,2.035-.521,4.639.663,6.437a9.055,9.055,0,0,0,5.869,3.5c.9.189,1.278-1.183.379-1.373a9.224,9.224,0,0,1-3.266-1.278c-1.7-1.136-2.083-2.367-2.13-4.4a38.532,38.532,0,0,0-.379-5.206c-.473-2.887-1.278-6.579-3.645-8.52a4.729,4.729,0,0,0-6.39.047c-1.846,1.609-3.976,4.686-3.077,7.194.379.9,1.751.521,1.42-.331Z" transform="translate(-591.551 -349.424)"/>
          </g>
        </g>
        <g id="Group_9465" data-name="Group 9465" transform="translate(25.712 31.714)">
          <g id="Group_9464" data-name="Group 9464">
            <path id="Path_7477" data-name="Path 7477" d="M621.119,337.1a5.915,5.915,0,0,1,10.792-3.124c.521.757,1.751.047,1.231-.71A7.343,7.343,0,0,0,619.7,337.1c-.047.9,1.373.9,1.42,0Z" transform="translate(-619.697 -330.003)"/>
          </g>
        </g>
        <g id="Group_9467" data-name="Group 9467" transform="translate(17.926 49.076)">
          <g id="Group_9466" data-name="Group 9466">
            <path id="Path_7478" data-name="Path 7478" d="M606.017,370.431a5.345,5.345,0,0,1-1.089-2.982c-.379.189-.71.426-1.089.615a3.479,3.479,0,0,1,1.609,3.124,10.909,10.909,0,0,1,.9-.663,2.715,2.715,0,0,1-1.7-2.982c-.331.142-.71.284-1.041.426a3.606,3.606,0,0,1,1.373,1.42,2.857,2.857,0,0,1,.284.9c0,.237,0-.047-.047-.142-.095-.189-.189-.331-.284-.521-.379-.852-1.609-.095-1.231.71a1.991,1.991,0,0,0,1.609,1.42,1.313,1.313,0,0,0,1.42-1.136,4.4,4.4,0,0,0-2.367-3.834.7.7,0,0,0-1.041.426,4.2,4.2,0,0,0,2.7,4.733.7.7,0,0,0,.9-.663,4.894,4.894,0,0,0-2.319-4.355.743.743,0,0,0-1.089.615,6.563,6.563,0,0,0,1.278,3.692c.568.663,1.8-.047,1.23-.8Z" transform="translate(-603.247 -366.685)"/>
          </g>
        </g>
        <g id="Group_9469" data-name="Group 9469" transform="translate(31.547 39.77)">
          <g id="Group_9468" data-name="Group 9468">
            <path id="Path_7479" data-name="Path 7479" d="M634.426,350.941a2.5,2.5,0,0,1-.521-.994c0-.095-.095-.663,0-.71s.331.71.379.757a1.572,1.572,0,0,1-.142,1.136,7.568,7.568,0,0,1,.994-.237,3.085,3.085,0,0,1-1.562-3.219c-.379.189-.71.426-1.089.615a2.919,2.919,0,0,1,1.751,3.361c.284-.142.568-.331.852-.473a2.137,2.137,0,0,1-1.42-1.609c0-.047,0-.473-.047-.473a2.305,2.305,0,0,1-.331.142c.047.095.142.237.189.331a3.67,3.67,0,0,1,.142,1.609c.426-.189.8-.331,1.231-.521a3.182,3.182,0,0,1-.994-1.231c-.426-.8-1.657-.095-1.231.71a4.7,4.7,0,0,0,1.231,1.515.728.728,0,0,0,1.231-.521,3.784,3.784,0,0,0-.71-2.935,1.2,1.2,0,0,0-1.988.237c-.757,1.657.852,3.6,2.319,4.118a.658.658,0,0,0,.852-.473,4.238,4.238,0,0,0-2.414-4.97.743.743,0,0,0-1.089.615,4.514,4.514,0,0,0,2.272,4.449.757.757,0,0,0,.994-.237,3.564,3.564,0,0,0,.142-2.7c-.284-.71-.9-1.467-1.7-1.373-2.083.237-1.183,3.219-.331,4.165.615.615,1.609-.426.994-1.089Z" transform="translate(-632.024 -347.023)"/>
          </g>
        </g>
        <g id="Group_9471" data-name="Group 9471" transform="translate(46.059 74.217)">
          <g id="Group_9470" data-name="Group 9470">
            <path id="Path_7480" data-name="Path 7480" d="M662.929,429.976c0,.047,0,.047-.047.095.284-.142.568-.331.852-.473-.047,0-.095-.047-.142-.047.142.331.284.71.426,1.041.095-.189,1.373-.8,1.751-1.136a14.378,14.378,0,0,0,2.225-2.556,27.2,27.2,0,0,0,3.455-6.3c-.473-.142-.9-.237-1.373-.379-1.42,4.071-2.414,9.75-6.39,12.164l.994.994c.947-1.42,1.893-2.887,2.84-4.307a.719.719,0,0,0-1.136-.852c-.757.8-1.562,1.657-2.319,2.461l.994.994c.71-.852,1.373-1.751,1.988-2.651.473-.663-.568-1.467-1.136-.852a7.389,7.389,0,0,1-2.177,1.657c.379.189.71.426,1.089.615,0-.142-.047-.284-.047-.426-.095-.9-1.515-.9-1.42,0,0,.142.047.284.047.426a.733.733,0,0,0,1.089.615,9.5,9.5,0,0,0,2.461-1.893l-1.136-.852c-.568.8-1.136,1.609-1.751,2.367-.568.71.379,1.7.994.994l2.319-2.461-1.136-.852c-.947,1.42-1.893,2.887-2.84,4.307a.737.737,0,0,0,.994.994c4.355-2.651,5.49-8.52,7.052-13.016.284-.9-1.041-1.183-1.373-.379a24.96,24.96,0,0,1-3.976,6.768c-.8.947-2.083,1.467-2.84,2.319-.189.189-.379.237-.473.473a.7.7,0,0,0,.426,1.041c.047,0,.095.047.142.047a.677.677,0,0,0,.852-.473c0-.047,0-.047.047-.095.379-.852-.994-1.231-1.325-.379Z" transform="translate(-662.685 -419.8)"/>
          </g>
        </g>
        <g id="Group_9473" data-name="Group 9473" transform="translate(48.003 80.595)">
          <g id="Group_9472" data-name="Group 9472">
            <path id="Path_7481" data-name="Path 7481" d="M670.345,435.654a3.477,3.477,0,0,0,.852-1.515c.237-.852-.852-1.136-1.278-.568l-2.982,3.976c-.568.71.663,1.42,1.231.71l2.982-3.976-1.278-.568a2.357,2.357,0,0,1-.473.9c-.663.757.379,1.751.947,1.041Z" transform="translate(-666.791 -433.276)"/>
          </g>
        </g>
        <g id="Group_9475" data-name="Group 9475" transform="translate(27.731 55.422)">
          <g id="Group_9474" data-name="Group 9474">
            <path id="Path_7482" data-name="Path 7482" d="M625.92,395.9c-1.325-2.651.095-3.645,2.745-4.355a5.527,5.527,0,0,0,.947-.284,5.014,5.014,0,0,0,2.272-2.745,34.174,34.174,0,0,1,2.177-4.828c2.083-3.171,5.775-3.029,6.958.757s-.284,8-2.793,10.886a11,11,0,0,1-4.544,3.361,5.612,5.612,0,0,1-4.449-.284c-1.089-.473-3.077-1.42-3.361-2.651-.189-.9-1.562-.521-1.373.379.521,2.461,4.213,3.976,6.437,4.307,2.414.379,4.686-.8,6.532-2.319,4.118-3.408,6.674-9.419,4.686-14.626-2.13-5.633-7.9-3.55-10.034.9-.663,1.373-.994,3.692-2.083,4.686-1.373,1.278-3.124.8-4.544,1.8-1.988,1.42-1.8,3.929-.8,5.869.426.71,1.657,0,1.231-.852Z" transform="translate(-623.962 -380.092)"/>
          </g>
        </g>
        <g id="Group_9477" data-name="Group 9477" transform="translate(28.068 55.621)">
          <g id="Group_9476" data-name="Group 9476">
            <path id="Path_7483" data-name="Path 7483" d="M625.349,394.659c7.336-.189,10.886-7.005,12.5-13.253a.712.712,0,0,0-1.373-.379c-1.42,5.585-4.5,12.022-11.123,12.212-.9.047-.9,1.467,0,1.42Z" transform="translate(-624.675 -380.514)"/>
          </g>
        </g>
        <path id="Path_7484" data-name="Path 7484" d="M574.333,316.824c-.852.473-5.681-5.735-7.858-13.261a28.938,28.938,0,0,1-.568-13.442,41.126,41.126,0,0,1,3.5-7.81c6.721-11.549,17.323-16.992,22.814-19.311a27.393,27.393,0,0,0-3.692,4.307,28.536,28.536,0,0,0-3.5,6.437,58.163,58.163,0,0,1,5.443-4.071,69.046,69.046,0,0,1,12.5-6.626c-.568,2.414-1.183,4.828-1.751,7.194,1.325-.757,3.171-1.846,5.443-2.935,2.509-1.183,7.668-3.645,8.472-2.556.237.331-.047.71-.473,2.083a20.446,20.446,0,0,0-.852,4.307,36.978,36.978,0,0,1,4.923-.473,39.339,39.339,0,0,1,5.4.142c-.568,2.177-1.136,4.307-1.7,6.484a16.534,16.534,0,0,1,4.4,2.556,17.751,17.751,0,0,1,6.058,10.508,20.559,20.559,0,0,1-1.278,10.65c-2.272-4.828-6.768-6.721-9.324-5.538a5.882,5.882,0,0,0-3.171,5.3,4.509,4.509,0,0,0,.331,1.325,43.261,43.261,0,0,0-7.431-5.443c-3.266-1.893-6.91-4.023-11.738-4.639-9.088-1.183-16.187,3.787-18.081,5.159-2.935,2.083-7.715,5.443-8.567,10.792C572.77,312.462,575,316.493,574.333,316.824Z" transform="translate(-565.374 -263)" fill="#656eff" stroke="#000" stroke-width="2"/>
        <path id="Path_7485" data-name="Path 7485" d="M652.515,304.318a62.433,62.433,0,0,1,4.544,14.957c1.136,6.437,2.556,14.72-.9,23.9a36.122,36.122,0,0,1-10.6,14.768,16.107,16.107,0,0,0,7.1-1.846,16.329,16.329,0,0,0,7.289-7.857,36.038,36.038,0,0,1,7.479,10.413,35.649,35.649,0,0,1,2.556,7.289,15.8,15.8,0,0,0,4.733-7.478,14.891,14.891,0,0,0,.568-4.023,19.3,19.3,0,0,1-5.49-4.544,21.022,21.022,0,0,1-4.4-13.158c.095-2.651.663-2.7,1.089-6.768a44.253,44.253,0,0,0,0-8.756c2.414.994,3.645.521,4.213.189,1.089-.663,1.373-1.846,2.367-7.857.521-3.219.8-4.828.9-5.68.568-4.591.852-6.91.568-8.756a17.843,17.843,0,0,0-5.3-9.845,17.513,17.513,0,0,0-5.112-3.455c.568-1.988,1.089-4.023,1.657-6.011a54.971,54.971,0,0,1-6.91,6.768c-4.26,3.408-6.721,4.213-9.656,7.478a24.965,24.965,0,0,0-4.4,6.91C647.4,302.141,649.959,303.229,652.515,304.318Z" transform="translate(-607.206 -271.848)" fill="#494949" opacity="0.11"/>
        <path id="Path_7486" data-name="Path 7486" d="M607.964,264.1a18.465,18.465,0,0,0-8.046,6.91,17.583,17.583,0,0,0-2.556,7.289,18.932,18.932,0,0,0,1.089,8.756,37.249,37.249,0,0,1,4.923-16.8A37.8,37.8,0,0,1,607.964,264.1Z" transform="translate(-582.156 -263.579)" fill="#494949" opacity="0.17"/>
        <path id="Path_7487" data-name="Path 7487" d="M682.068,367.8c-.142-.047-.426.473-1.467,4.071-1.42,4.875-2.177,8.472-2.6,10.271a62.623,62.623,0,0,1-3.6,10.744c3.361.663,6.721,1.325,10.082,1.941a38.064,38.064,0,0,1-3.266-11.407C680.317,375.133,682.541,367.892,682.068,367.8Z" transform="translate(-622.796 -318.193)" fill="#494949" opacity="0.08"/>
      </g>
    </g>
  </g>
</svg>
