<svg xmlns="http://www.w3.org/2000/svg" width="26" height="26" viewBox="0 0 26 26">
  <g id="Group_11255" data-name="Group 11255" transform="translate(-29 -25)">
    <path id="Path_21432" data-name="Path 21432" d="M12,0a12,12,0,0,1,0,24,12.193,12.193,0,0,1-6.675-2.026c-.521-.33-4.029,1.9-4.742,1.232C.262,22.913,2.74,19.7,2.2,18.977A11.877,11.877,0,0,1,0,12,12,12,0,0,1,12,0Z" transform="translate(30 26)" fill="#171e30"/>
    <g id="Group_11230" data-name="Group 11230" transform="translate(-1061 14)">
      <path id="multimedia" d="M.813,26a.813.813,0,0,1-.769-1.075l1.8-5.267a13.022,13.022,0,1,1,4.5,4.5l-5.267,1.8A.812.812,0,0,1,.813,26Zm5.53-3.967c.153,0,.341-.084.473,0A11.606,11.606,0,0,0,13,23.883,10.593,10.593,0,0,0,23.917,13,10.54,10.54,0,0,0,13,2.182,10.648,10.648,0,0,0,3.933,7.025,10.605,10.605,0,0,0,2.117,13a8.754,8.754,0,0,0,1.445,5.4,4.193,4.193,0,0,1,.59,1.5l-1.372,3.25,3.27-1.113A.982.982,0,0,1,6.342,22.033Z" transform="translate(1090 11)" fill="#171e30"/>
      <path id="Path_8473" data-name="Path 8473" d="M0,0A19.172,19.172,0,0,0,5.366,4.3a13.883,13.883,0,0,0,5.975.816,7.31,7.31,0,0,0,2.274-.542" transform="translate(1101.5 26.5)" fill="none" stroke="#fff" stroke-width="2"/>
    </g>
  </g>
</svg>
