<svg xmlns="http://www.w3.org/2000/svg" width="91.006" height="91.178" viewBox="0 0 91.006 91.178">
  <g id="layer101" transform="translate(-20 -20)">
    <path id="Path_20250" data-name="Path 20250" d="M23.15,110.857a7.075,7.075,0,0,1-2.371-2.428,9.138,9.138,0,0,1-.538-1.684C20,105.68,20,105.657,20,68.052V30.424l.241-1.065a4.756,4.756,0,0,1,1.054-2.44,8.7,8.7,0,0,1,4.719-2.932c.859-.229,1.306-.241,7.079-.286l6.151-.057V22.486a3.362,3.362,0,0,1,.527-2.268c.183-.206.344-.218,2.5-.195l2.3.034.286.573a3.667,3.667,0,0,1,.321,1.81l.046,1.226h38.1l.046-1.352c.046-1.317.218-1.982.6-2.222A17.426,17.426,0,0,1,86.3,20c1.844,0,2.245.034,2.394.172a4.715,4.715,0,0,1,.607,2.589V23.78h7.388c8.408,0,8.453,0,10.194.848s3.368,2.463,3.711,3.654c.069.229.195.641.275.916.1.378.137,8.534.137,39.048,0,30.7-.034,38.6-.137,38.716a.727.727,0,0,0-.149.458,3.959,3.959,0,0,1-1.031,1.97,4.371,4.371,0,0,1-1.8,1.478l-.607.309-41.775-.011-41.786-.023ZM50.732,94.065a7.15,7.15,0,0,0,.985-.573,3.325,3.325,0,0,1,.722-.412,1.43,1.43,0,0,0,.47-.3,6.053,6.053,0,0,1,1.008-.619,3.151,3.151,0,0,0,.733-.458,2.55,2.55,0,0,1,.607-.412c.3-.16.848-.493,1.226-.733s.974-.607,1.317-.8,1.019-.607,1.489-.916,1.065-.676,1.329-.8a6.789,6.789,0,0,0,.745-.435c.149-.115.538-.355.848-.538s1.031-.63,1.592-1a4.168,4.168,0,0,1,1.34-.664,6.494,6.494,0,0,1,2.165,1.157,11.293,11.293,0,0,0,.974.607c.63.344,1.821,1.054,2.245,1.34.9.607,3.345,2.05,3.471,2.05a1.887,1.887,0,0,1,.493.344,1.292,1.292,0,0,0,.55.344,1.262,1.262,0,0,1,.481.275c.172.149.939.641,1.684,1.088s1.443.882,1.546.974a4.075,4.075,0,0,0,1.856.641,1.694,1.694,0,0,0,1.569-.859c.515-.779.5-1.684-.046-3.494-.218-.722-.527-1.73-.664-2.234s-.332-1.042-.4-1.2c-.1-.252-.561-1.787-1.4-4.7-.3-1.042-.664-2.3-1.008-3.391-.412-1.306-.332-1.466,1.627-3.356.882-.859,3-2.932,4.7-4.628s3.161-3.127,3.276-3.207.573-.561,1.054-1.065c1.1-1.134,1.34-1.753,1.065-2.68a2.239,2.239,0,0,0-1.191-1.466,6.667,6.667,0,0,0-1.489-.263c-.6-.046-1.6-.172-2.234-.275-1.123-.195-1.97-.3-4.181-.515a28.672,28.672,0,0,1-3.551-.447,17.886,17.886,0,0,0-1.959-.229,7.727,7.727,0,0,1-1.672-.229,8.3,8.3,0,0,1-1.352-2.3c-.08-.275-.47-1.157-1.271-2.818a5.115,5.115,0,0,1-.389-.951A6.077,6.077,0,0,0,70.64,52.9c-.241-.481-.584-1.237-.756-1.672s-.355-.882-.4-.974a12.824,12.824,0,0,1-.859-1.959,11.191,11.191,0,0,0-.63-1.489c-.241-.47-.6-1.2-.79-1.627-.3-.676-.4-.8-.859-1.019a2.331,2.331,0,0,1-.6-.344c-.137-.229-.951-.092-1.569.263-.6.332-.664.424-1.26,1.627a14.19,14.19,0,0,0-.767,1.73c-.08.252-.47,1.134-.871,1.959s-.733,1.546-.733,1.6a3.1,3.1,0,0,1-.286.641c-.149.286-.4.859-.561,1.271a12.889,12.889,0,0,1-.6,1.306,9.586,9.586,0,0,0-.515,1.157,5,5,0,0,1-.424.916,4.581,4.581,0,0,0-.412.882,5.267,5.267,0,0,1-.355.8,2.928,2.928,0,0,0-.218.538,3.553,3.553,0,0,1-1,1.478,9.176,9.176,0,0,1-1.741.229c-.836.069-1.718.172-1.97.229s-.951.16-1.546.218-1.546.172-2.119.229-1.443.172-1.947.218-1.455.195-2.119.3-1.7.229-2.291.275c-1.363.115-1.833.332-2.314,1.077a1.9,1.9,0,0,0-.1,2.257c.344.515,4.467,4.834,6.941,7.274.71.7,1.535,1.546,1.833,1.89s1.1,1.2,1.764,1.89a7.757,7.757,0,0,1,1.317,1.581,4.725,4.725,0,0,1-.493,2.142,8.661,8.661,0,0,0-.458,1.5,8.462,8.462,0,0,1-.458,1.489,3.58,3.58,0,0,0-.286.916,6.476,6.476,0,0,1-.321,1.145c-.229.6-.974,3.035-1.535,5.029-.149.538-.344,1.214-.447,1.5-.241.733-.229.825.195,1.672a1.833,1.833,0,0,0,.767.951A2.481,2.481,0,0,0,50.732,94.065Z" fill="#171e30"/>
  </g>
</svg>
