<svg xmlns="http://www.w3.org/2000/svg" width="91.092" height="91.002" viewBox="0 0 91.092 91.002">
  <g id="layer101" transform="translate(-1.392)">
    <path id="Path_8466" data-name="Path 8466" d="M4.907,90.831c-.159-.08-.444-.228-.638-.319a5.389,5.389,0,0,1-2.221-2.551c-.068-.239-.194-.592-.273-.786a5.428,5.428,0,0,1-.285-.911C1.41,85.888,1.376,73.6,1.4,47.608l.034-38.1L1.672,9A5,5,0,0,0,2,8.087,5.487,5.487,0,0,1,3.745,5.774,8.657,8.657,0,0,1,8.312,3.884c.649-.068,3.633-.125,6.731-.125H20.6l.057-1.39c.068-1.686.08-1.72.421-2.084L21.342,0h4.4l.228.285a4.436,4.436,0,0,1,.467,2.449V3.759H64.7V2.642A4.225,4.225,0,0,1,65.225.171c.159-.148.513-.171,2.46-.148l2.278.034.308.569a3.646,3.646,0,0,1,.342,1.845l.034,1.287H77.5c3.759,0,7.346.057,7.95.114a8.637,8.637,0,0,1,5.114,2.38,4.439,4.439,0,0,1,1.3,1.948,1.854,1.854,0,0,0,.171.513,4.943,4.943,0,0,1,.273.854c.182.683.194,3.417.159,38.781-.034,39.727-.023,38.269-.444,38.952a1.979,1.979,0,0,0-.159.5A5.676,5.676,0,0,1,89.3,90.649L88.608,91H46.9C11.011,91,5.157,90.979,4.907,90.831Zm80.649-4.738a2.413,2.413,0,0,0,1.2-1.036c.137-.273.159-5.376.148-37.073-.011-39.419.023-37.152-.569-37.7-.661-.6-.706-.6-8.485-.6H70.624v2.654c0,2.927-.1,3.622-.661,4.442a3.881,3.881,0,0,1-.8.82c-.467.319-.558.342-1.538.342-.877,0-1.116-.046-1.446-.251a3.188,3.188,0,0,1-1.276-1.458c-.251-.535-.262-.718-.3-3.554l-.034-3H26.433v2.654a31.72,31.72,0,0,1-.125,3.326,2.875,2.875,0,0,1-1.23,1.913c-.49.342-.581.364-1.549.364s-1.059-.023-1.595-.364c-1.219-.786-1.424-1.526-1.424-5.251V9.67l-6,.034-6.014.034-.547.273a2.009,2.009,0,0,0-.774.626c-.205.342-.216,1.207-.216,37.323v36.97l.262.387a2.283,2.283,0,0,0,.763.649l.5.251H46.831C75.146,86.218,85.271,86.184,85.556,86.093Z" transform="translate(0)" fill="#171e30"/>
    <path id="Path_8467" data-name="Path 8467" d="M1661.142,2038.652c-1.1-.433-1.264-.546-1.651-1.127a3.572,3.572,0,0,1-.512-2.688,3.934,3.934,0,0,1,.227-.98,7.042,7.042,0,0,0,.4-1.275,10.211,10.211,0,0,1,.444-1.47,4.093,4.093,0,0,0,.307-.956,2.875,2.875,0,0,1,.228-.752,2.894,2.894,0,0,0,.228-.786,3.582,3.582,0,0,1,.274-.9,6.708,6.708,0,0,0,.387-1.252,6.793,6.793,0,0,1,.353-1.15,13.561,13.561,0,0,0,.513-1.709,11.039,11.039,0,0,1,.524-1.709.453.453,0,0,0,.1-.284,17.98,17.98,0,0,0-1.936-2.154,23.588,23.588,0,0,1-1.936-2.1c0-.068-1.674-1.822-3.724-3.9s-3.861-3.952-4.021-4.157c-.239-.318-.285-.534-.319-1.412a2.9,2.9,0,0,1,.729-2.563,2.213,2.213,0,0,1,1.162-.751c.353-.1.774-.24.934-.309a6.026,6.026,0,0,1,1.253-.216c.535-.057,1.434-.148,1.993-.217s1.515-.16,2.107-.228,1.55-.159,2.108-.2a5.357,5.357,0,0,0,1.2-.182,4.4,4.4,0,0,1,1.2-.206c3.906-.364,4.077-.4,4.442-.888a3.725,3.725,0,0,0,.466-.98,16.662,16.662,0,0,1,.843-1.936,9.806,9.806,0,0,0,.683-1.571,3.913,3.913,0,0,1,.456-1,6.5,6.5,0,0,0,.524-1.093,6.874,6.874,0,0,1,.456-1.048,20,20,0,0,0,.957-2.163,3.747,3.747,0,0,1,.364-.673,3.119,3.119,0,0,0,.377-.866,3.582,3.582,0,0,1,.341-.808.783.783,0,0,0,.171-.376,9.837,9.837,0,0,1,1.3-2.426,3.179,3.179,0,0,1,2.927-.843,3.389,3.389,0,0,1,2.483,2.187,8.412,8.412,0,0,0,.524,1.116,7.816,7.816,0,0,1,.513,1.208,4.262,4.262,0,0,0,.387.91,5.388,5.388,0,0,1,.456.912c.17.41.387.9.478,1.105a1.714,1.714,0,0,1,.16.478,1.872,1.872,0,0,0,.285.535,1.621,1.621,0,0,1,.285.58,10.162,10.162,0,0,0,.626,1.425,7.72,7.72,0,0,1,.626,1.492.677.677,0,0,0,.159.41,3.877,3.877,0,0,1,.41.923,4.445,4.445,0,0,0,.376.889c.057.08.307.568.547,1.081l.432.934.547.08c.729.114,2.46.307,3.735.41a5.15,5.15,0,0,1,1.2.194,4.865,4.865,0,0,0,1.081.2c.5.045,1.378.136,1.937.193,1.606.183,2.983.331,4.1.433a6.115,6.115,0,0,1,1.276.227,1.069,1.069,0,0,0,.467.137,4.33,4.33,0,0,1,.819.193,1.851,1.851,0,0,1,1.06.763,2.776,2.776,0,0,1,.763,2.085c0,1.458.079,1.355-6.265,7.71-3.132,3.121-5.695,5.752-5.695,5.831a12.907,12.907,0,0,0,.569,2.108,11.111,11.111,0,0,1,.4,1.309c.171.627.364,1.287.444,1.469s.262.775.41,1.311.33,1.138.421,1.344.308.969.5,1.7a9.458,9.458,0,0,0,.444,1.458,3.674,3.674,0,0,1,.216.854,6.839,6.839,0,0,0,.24.969c.057.126.193.432.307.684a3.091,3.091,0,0,1,.193,1.309,2.236,2.236,0,0,1-.455,1.606,2.616,2.616,0,0,1-1.9,1.526,2.014,2.014,0,0,1-1.481.011,4.162,4.162,0,0,1-2.062-.933,1.244,1.244,0,0,0-.638-.388,1.648,1.648,0,0,1-.661-.342,2.731,2.731,0,0,0-.66-.421,5.164,5.164,0,0,1-.957-.616,5.684,5.684,0,0,0-.854-.581,19.743,19.743,0,0,1-2.164-1.23,3.71,3.71,0,0,0-.626-.4c-.342-.17-1.651-.991-2.62-1.64-.159-.1-.558-.341-.9-.512a11.614,11.614,0,0,1-1.2-.741c-.763-.568-1.026-.694-1.367-.694-.319,0-1.094.33-1.094.467a2.676,2.676,0,0,1-.706.489c-.4.229-1.025.615-1.4.855s-.957.58-1.288.751a6.606,6.606,0,0,0-.922.581,3.674,3.674,0,0,1-.729.444,1.247,1.247,0,0,0-.478.285,2.778,2.778,0,0,1-.661.41c-.319.171-.706.387-.877.5-.683.489-2.015,1.332-2.574,1.651-.33.194-.774.434-.98.559a9.106,9.106,0,0,0-.775.512,7.437,7.437,0,0,1-1.253.684A3.479,3.479,0,0,1,1661.142,2038.652Zm28.587-7.072a.828.828,0,0,0-.114-.263,7.968,7.968,0,0,1-.342-1.161,6.422,6.422,0,0,0-.41-1.23,2.474,2.474,0,0,1-.239-.912,2.581,2.581,0,0,0-.216-.9,5.25,5.25,0,0,1-.342-1.025,4,4,0,0,0-.284-.889,10.234,10.234,0,0,1-.376-1.3,7.914,7.914,0,0,0-.4-1.311,6.788,6.788,0,0,1-.33-2.561,3.665,3.665,0,0,1,.319-1.424,8.716,8.716,0,0,1,2.13-2.278,3.318,3.318,0,0,0,.718-.58c.479-.513.1-.137,3.8-3.815l3.03-3.007-.308-.171a11.546,11.546,0,0,0-3.223-.444,5.551,5.551,0,0,1-1.253-.194,3.946,3.946,0,0,0-1.082-.193c-.5-.046-1.4-.137-1.993-.205s-1.572-.16-2.164-.206a10.171,10.171,0,0,1-1.651-.274c-.308-.1-.707-.216-.889-.262a4.4,4.4,0,0,1-1.538-1.458c-.068-.137-.262-.581-.421-.991s-.524-1.23-.8-1.822-.536-1.207-.581-1.366a7.639,7.639,0,0,0-.513-1.116,4.75,4.75,0,0,1-.444-1.014,2.685,2.685,0,0,0-.33-.763,8.889,8.889,0,0,1-.581-1.321,4.1,4.1,0,0,0-.4-.911,4.231,4.231,0,0,1-.4-.9c-.239-.707-.638-1.378-.82-1.378-.1,0-.319.456-.831,1.709a9.416,9.416,0,0,1-.661,1.423c-.1.194-.341.728-.535,1.2s-.455,1.048-.581,1.287a2.244,2.244,0,0,0-.217.593,4.812,4.812,0,0,1-.694,1.355.668.668,0,0,0-.1.376,5.773,5.773,0,0,1-.558,1.332,10.781,10.781,0,0,0-.638,1.412,3.573,3.573,0,0,1-.456.934c-.216.342-.411.649-.422.683a3.668,3.668,0,0,1-1.594.809,4.108,4.108,0,0,0-.832.25,5.806,5.806,0,0,1-1.253.216c-.557.057-1.48.148-2.05.206s-1.435.148-1.936.193a4.339,4.339,0,0,0-1.082.205,5.069,5.069,0,0,1-1.2.194,17.884,17.884,0,0,0-3.337.455l-.5.16,2.745,2.756c1.515,1.515,2.745,2.813,2.745,2.881a32.2,32.2,0,0,0,2.209,2.347c2.642,2.642,2.734,2.79,2.665,4.248a3.467,3.467,0,0,1-.182,1.173,6.448,6.448,0,0,0-.432,1.344,10.174,10.174,0,0,1-.376,1.3,9.23,9.23,0,0,0-.638,2.039,7.778,7.778,0,0,1-.387,1.23,10.9,10.9,0,0,0-.466,1.469,11.248,11.248,0,0,1-.4,1.3.729.729,0,0,0-.091.433c.068.125.49-.012.774-.262.125-.1.592-.387,1.026-.638a13.121,13.121,0,0,0,1.139-.672c.193-.137.706-.444,1.139-.683a4.089,4.089,0,0,0,.888-.581,1.651,1.651,0,0,1,.569-.365,6.379,6.379,0,0,0,1.025-.626,4.542,4.542,0,0,1,.787-.49,2.466,2.466,0,0,0,.547-.273,20.687,20.687,0,0,1,2.562-1.526,2.888,2.888,0,0,1,3.189-.126,8.913,8.913,0,0,1,1.252.73,8.221,8.221,0,0,0,1.026.637c.318.16.751.41.979.547,1.138.694,1.788,1.094,2.573,1.595a11.136,11.136,0,0,0,1.356.774,1.772,1.772,0,0,1,.581.376,1.946,1.946,0,0,0,.6.41,9.38,9.38,0,0,1,1.071.649C1689,2031.42,1689.73,2031.761,1689.73,2031.58Z" transform="translate(-1630.837 -1963.641)" fill="#171e30"/>
  </g>
</svg>
