<svg xmlns="http://www.w3.org/2000/svg" width="91.021" height="91.177" viewBox="0 0 91.021 91.177">
  <g id="layer101" transform="translate(-15 -16.37)">
    <path id="Path_20248" data-name="Path 20248" d="M28.15,107.433a.755.755,0,0,0-.469-.114c-.217,0-.389-.046-.389-.1s-.149-.137-.343-.183c-.457-.1-1.052-.823-1.452-1.761l-.32-.755L25.143,87.8,25.12,71.081l-3.808-.034-3.8-.034-.663-.309c-.732-.343-1.338-.9-1.338-1.246,0-.114-.034-.217-.091-.217s-.16-.172-.252-.366A5.387,5.387,0,0,1,15,67.011c0-1.452.011-1.5.377-2.23a7.057,7.057,0,0,1,1.052-1.452c.366-.389,1.029-1.109,1.464-1.6s1.589-1.75,2.55-2.779,2.378-2.539,3.122-3.362,2.276-2.47,3.373-3.659,2.813-3.042,3.785-4.128c1.738-1.921,2.138-2.356,4.117-4.46.537-.56,1.292-1.384,1.658-1.83s1.532-1.692,2.561-2.8c2.436-2.6,3.6-3.865,5.123-5.546.675-.755,1.727-1.887,2.321-2.516s1.532-1.635,2.058-2.23,1.075-1.189,1.212-1.315c.309-.286,3.556-3.831,4.38-4.78,1.464-1.681,5.066-5.454,5.214-5.454a.218.218,0,0,0,.194-.126,2.175,2.175,0,0,1,.949-.286,5.114,5.114,0,0,1,1.818-.011,2.172,2.172,0,0,1,.949.274.293.293,0,0,0,.252.149,26.731,26.731,0,0,1,3.156,3.316c.183.24.858,1.018,1.5,1.727q2.693,3.036,3.385,3.876c.229.286.64.743.915,1.029s.595.652.72.812.7.812,1.281,1.429,1.166,1.281,1.315,1.475.343.423.435.526l.858.961c.377.435,1.155,1.3,1.715,1.932,1.807,2.035,3.43,3.888,3.7,4.242.137.194.686.812,1.212,1.372s1.2,1.315,1.5,1.669c.56.64,1.555,1.761,4.46,5.031,1.658,1.852,3.934,4.46,4.62,5.294.217.263,1.143,1.315,2.058,2.344s1.864,2.115,2.115,2.413,1.178,1.338,2.058,2.31,2.093,2.321,2.687,3.007c2.8,3.213,2.8,3.2,2.8,5.489,0,1.578-.011,1.612-.354,2.23a3.212,3.212,0,0,1-2.264,1.589c-.435.08-2.367.126-4.848.126H94.415V87.5c0,18.479.069,17.118-.88,18.593a2.731,2.731,0,0,1-.7.835c-.1.034-.343.126-.537.217a4.878,4.878,0,0,1-.686.24c-.549.149-21.989.114-22.527-.034-1.555-.423-2.173-1.155-2.607-3.11-.172-.755-.194-2.07-.194-12.544V79.989H54.164V91.744c0,7.067-.046,12.052-.114,12.521a5.764,5.764,0,0,1-.354,1.258c-.343.686-.995,1.452-1.235,1.452a.919.919,0,0,0-.423.172,1.1,1.1,0,0,1-.583.172.682.682,0,0,0-.435.114c-.046.08-3.979.114-11.435.114S28.2,107.513,28.15,107.433Z" transform="translate(0)" fill="#171e30"/>
  </g>
</svg>
