<svg xmlns="http://www.w3.org/2000/svg" width="86.224" height="91.002" viewBox="0 0 86.224 91.002">
  <g id="layer101" transform="translate(-210)">
    <path id="Path_8468" data-name="Path 8468" d="M218.759,90.865a3.1,3.1,0,0,1-.853-.2,3.789,3.789,0,0,0-.762-.262c-2.036-.523-4.482-2.73-5.767-5.187a9.56,9.56,0,0,1-1.149-3.14C210,81.083,210,80.366,210,45.5s0-35.582.228-36.571a9.56,9.56,0,0,1,1.149-3.14c1.285-2.457,3.731-4.664,5.767-5.187a3.79,3.79,0,0,0,.762-.262C218.293.023,220.545,0,252.327,0h32.522l-.023,36.97c-.034,35.309-.046,36.97-.239,37.163s-1.672.2-31.964.262c-35.866.068-32.169-.046-33.682,1a5.79,5.79,0,0,0-2.059,2.719,7.142,7.142,0,0,0,0,3.026,5.79,5.79,0,0,0,2.059,2.719,7.9,7.9,0,0,0,1.354.739c.535.193,2.48.2,34.945.228l34.387.034.023-36.742c.034-35.093.045-36.742.239-36.935s.466-.2,3.037-.2,2.855.023,3.037.2.2,1.968.239,40.007L296.224,91l-38.357-.011C235.162,90.979,219.2,90.934,218.759,90.865Zm59.492-53.9V6.143H222.285V67.8h55.966Z" transform="translate(0 0)" fill="#171e30"/>
    <path id="Path_8469" data-name="Path 8469" d="M2211.676,2971.426c-.444-.181-.49-.568-.455-3.378.034-2.355.057-2.663.238-2.844s.58-.2,5.881-.2,5.688.011,5.882.2.205.466.205,3.037-.023,2.855-.205,3.037-.592.206-5.744.228C2214.292,2971.518,2211.824,2971.484,2211.676,2971.426Z" transform="translate(-1978.448 -2931.272)" fill="#171e30"/>
    <path id="Path_8470" data-name="Path 8470" d="M2211.676,1971.427c-.444-.182-.49-.568-.455-3.378.034-2.355.057-2.661.238-2.844s.808-.205,11.569-.205,11.375.012,11.569.205.2.466.2,3.037-.022,2.856-.2,3.037-.819.205-11.432.228C2216.556,1971.519,2211.836,1971.484,2211.676,1971.427Z" transform="translate(-1978.448 -1942.648)" fill="#171e30"/>
    <path id="Path_8471" data-name="Path 8471" d="M2211.738,971.427c-.432-.182-.489-.569-.455-3.378.034-2.355.056-2.662.238-2.844s1.047-.2,17.256-.2,17.064.012,17.257.2.2.467.2,3.037-.023,2.855-.2,3.037-1.046.2-17.119.228C2218.892,971.518,2211.9,971.484,2211.738,971.427Z" transform="translate(-1978.51 -954.023)" fill="#171e30"/>
  </g>
</svg>
