<svg xmlns="http://www.w3.org/2000/svg" width="86.071" height="91.178" viewBox="0 0 86.071 91.178">
  <g id="layer101" transform="translate(-239.946 -25)">
    <path id="Path_20251" data-name="Path 20251" d="M249.357,116.1a1.284,1.284,0,0,1-.5-.161,1.417,1.417,0,0,0-.631-.1c-1.056-.011-2.926-1.044-4.464-2.467a11.472,11.472,0,0,1-3.626-6.736c-.161-.9-.184-4.349-.184-36.069,0-38.434-.046-35.874.654-37.929a10.33,10.33,0,0,1,1.48-2.892,10.438,10.438,0,0,1,2.617-2.754,9.131,9.131,0,0,1,3.064-1.584,7.6,7.6,0,0,0,1.079-.2c.757-.2,2.846-.207,33.338-.207h32.535l.034,36.724c.023,25.4,0,36.85-.092,37.137a.82.82,0,0,1-.321.516c-.1.057-14.494.126-31.984.161-29.758.057-31.823.069-32.282.252a5.657,5.657,0,0,0-2.5,1.939,8.633,8.633,0,0,0-.666,1.2,6.5,6.5,0,0,0-.2,2.685,5.34,5.34,0,0,0,4.338,4.246c.493.069,13.152.115,34.6.115h33.832L319.5,73.2c.034-35.128.046-36.781.241-36.976s.471-.207,3.007-.207,2.823.023,3.007.207.207,1.974.241,40.075l.023,39.879-38.124-.023C266.916,116.155,249.575,116.12,249.357,116.1Zm24.674-54.03V59.715H263.588V64.42h10.443Zm11.361-11.419v-2.3h-21.8v4.59h21.8Zm11.247-11.361v-2.3H263.588v4.59h33.051Z" fill="#171e30"/>
  </g>
</svg>
