<svg xmlns="http://www.w3.org/2000/svg" width="90.988" height="91.178" viewBox="0 0 90.988 91.178">
  <g id="layer101" transform="translate(-27.5 -20)">
    <path id="Path_20249" data-name="Path 20249" d="M30.908,110.957a1.457,1.457,0,0,0-.538-.218,6.8,6.8,0,0,1-2.028-2.062,2.443,2.443,0,0,1-.47-1.123c0-.206-.046-.378-.1-.378s-.137-.241-.183-.538c-.115-.722-.115-76.58,0-77.245a1.725,1.725,0,0,1,.183-.619.718.718,0,0,0,.1-.389c0-.79,1.741-2.738,3.185-3.551a7.826,7.826,0,0,1,3.162-1.054c1.191-.206,1.81-.229,6.862-.229h5.556l.046-1.34a4.059,4.059,0,0,1,.275-1.776L47.175,20H49.5c1.959,0,2.36.034,2.509.172a4.738,4.738,0,0,1,.607,2.474v.9H90.649v-.894a4.119,4.119,0,0,1,.447-2.177.281.281,0,0,0,.126-.263c0-.206.115-.218,2.36-.218,2.28,0,2.371.011,2.577.241a3.587,3.587,0,0,1,.527,2.2l.057,1.111h6.77c4.307,0,7.034.046,7.515.126,3.093.5,4.788,1.4,6.243,3.288a3.386,3.386,0,0,1,.882,1.741c.046.286.137.722.206.974.172.642.172,76.111,0,76.752-.069.252-.16.664-.206.916a4.236,4.236,0,0,1-.424,1.077,7.394,7.394,0,0,1-2.234,2.3c-.115,0-.218.034-.218.092,0,.367-.515.367-42.466.355C32.546,111.175,31.24,111.163,30.908,110.957ZM73.66,86.694c.63-.493.607.3.607-18.867,0-18.111,0-18.146-.435-18.638-.47-.538-1.558-.309-3.047.653-.515.321-1.34.813-1.844,1.088a9.91,9.91,0,0,0-1.146.687,1.589,1.589,0,0,1-.5.286,11.626,11.626,0,0,0-1.34.733c-.6.355-1.226.722-1.4.813s-.745.424-1.283.733-1.191.676-1.466.825c-.985.55-1.489.825-2.841,1.6-.756.435-1.535.882-1.718.985s-.722.4-1.191.676-1.008.6-1.18.722c-.309.229-.5.241-4.067.3-3.666.057-3.757.069-4.17.321a3.774,3.774,0,0,0-.779.71c-.676.859-.7,1.123-.664,7.778a57.981,57.981,0,0,0,.183,6.449,3.621,3.621,0,0,0,1.718,1.764c.458.183,1.042.218,4.09.275l3.551.057,1.432.848c.79.458,1.7,1,2,1.191s.779.458,1.031.573.642.344.859.481c.447.286,1.936,1.146,2.474,1.42.183.1.5.309.7.447a1.457,1.457,0,0,0,.47.252,5.427,5.427,0,0,1,.928.493c.458.263,1.02.584,1.249.722.607.332,3.826,2.177,4.777,2.715C72.652,86.935,73.156,87.1,73.66,86.694Zm20.723-3.116a6.32,6.32,0,0,0,1.638-1.821,6.991,6.991,0,0,1,.516-.745,12.61,12.61,0,0,0,.974-1.741c.344-.687.722-1.443.836-1.684a24.861,24.861,0,0,0,1.4-4.376c.1-.561.241-1.317.309-1.661a48.782,48.782,0,0,0-.1-6.816,12.991,12.991,0,0,0-.63-2.543,3.281,3.281,0,0,1-.241-.664,19.624,19.624,0,0,0-3.551-6.278c-.951-1.077-1.226-1.226-2.268-1.226-.836,0-.871.011-1.386.458a2.63,2.63,0,0,0-.882,1.821,3.648,3.648,0,0,0,.779,1.673c.653.779.779.939,1.2,1.524a16.5,16.5,0,0,1,2.417,6.61,9.17,9.17,0,0,0,.183,1.363,3.87,3.87,0,0,1,.08,1.146,24.313,24.313,0,0,1-.47,3.505c-.092.286-.252.871-.355,1.317A11,11,0,0,1,93.57,76.7a14.928,14.928,0,0,1-1.317,2.348A13.2,13.2,0,0,0,91.2,80.646a2.335,2.335,0,0,0,3.185,2.933Zm-9.05-8.363A7.751,7.751,0,0,0,87.5,72.844a9.755,9.755,0,0,1,.538-.962c.584-.859.859-3.941.481-5.4-.561-2.177-2.325-4.582-3.746-5.121a2.367,2.367,0,0,0-3,1.535c-.286,1-.092,1.524.928,2.577a3.575,3.575,0,0,1,1.352,2.978,3.289,3.289,0,0,1-1.317,2.852c-.7.664-.813.836-.974,1.432a1.6,1.6,0,0,0,0,1.18A2.219,2.219,0,0,0,84.1,75.605,1.924,1.924,0,0,0,85.333,75.216Z" transform="translate(0)" fill="#171e30"/>
  </g>
</svg>
