<svg xmlns="http://www.w3.org/2000/svg" width="75.221" height="91.285" viewBox="0 0 75.221 91.285">
  <g id="layer101" transform="translate(-703.99)">
    <path id="Path_8472" data-name="Path 8472" d="M736.008,91.171a3.114,3.114,0,0,0-1.255-.114c-.981,0-1.255-.034-1.255-.148s-.308-.183-1.2-.228a8.137,8.137,0,0,1-1.575-.228,4.092,4.092,0,0,0-.821-.24,1.5,1.5,0,0,1-.628-.24,1.665,1.665,0,0,0-.594-.217,1.377,1.377,0,0,1-.57-.217,3.772,3.772,0,0,0-.833-.422,5.1,5.1,0,0,1-.867-.422.675.675,0,0,0-.365-.148,5.765,5.765,0,0,1-1.677-.673c0-.046-.171-.137-.388-.217a2.552,2.552,0,0,1-.662-.4,4.451,4.451,0,0,0-.981-.571,3.883,3.883,0,0,1-1.038-.639,1.66,1.66,0,0,0-.559-.4,3.335,3.335,0,0,1-.719-.479,1.727,1.727,0,0,0-.639-.388,1.728,1.728,0,0,1-.616-.456,3.486,3.486,0,0,0-.821-.616,5.7,5.7,0,0,1-1.175-.993c-.445-.468-1.324-1.335-1.94-1.94a18.786,18.786,0,0,1-2.693-2.91,4.263,4.263,0,0,0-.639-.8,3.726,3.726,0,0,1-.651-.879,2.222,2.222,0,0,0-.445-.639,1.317,1.317,0,0,1-.354-.582,1.35,1.35,0,0,0-.365-.582,4.826,4.826,0,0,1-.833-1.529,1.554,1.554,0,0,0-.331-.388,3.549,3.549,0,0,1-.89-1.8c-.034-.274-.1-.491-.149-.491a5.788,5.788,0,0,1-.685-1.483.113.113,0,0,0-.091-.114,3.683,3.683,0,0,1-.673-1.563,1.44,1.44,0,0,0-.217-.582,1.359,1.359,0,0,1-.228-.571,1.861,1.861,0,0,0-.183-.559,2.583,2.583,0,0,1-.183-.89,1.671,1.671,0,0,0-.137-.742c-.16,0-.343-.7-.343-1.289a1.216,1.216,0,0,0-.194-.787c-.137-.16-.205-.479-.228-1.21a5.713,5.713,0,0,0-.182-1.267,68.109,68.109,0,0,1,.011-9.163,2.061,2.061,0,0,0,.137-.958c0-.822.16-1.529.354-1.529.057,0,.1-.3.1-.673,0-.662.171-1.381.343-1.381.046,0,.114-.251.159-.571a1.431,1.431,0,0,1,.171-.616,1.15,1.15,0,0,0,.172-.513,1.343,1.343,0,0,1,.217-.6,1.283,1.283,0,0,0,.228-.582,3.683,3.683,0,0,1,.673-1.563.113.113,0,0,0,.091-.114,4.978,4.978,0,0,1,.708-1.483c.046,0,.091-.068.091-.137a2.889,2.889,0,0,1,.228-.6,3.074,3.074,0,0,0,.228-.582,1.242,1.242,0,0,1,.365-.468,3.45,3.45,0,0,0,.65-.867A2.367,2.367,0,0,1,709.6,36a1.454,1.454,0,0,0,.445-.593,15.369,15.369,0,0,1,3.024-3.058,2.677,2.677,0,0,0,.719-.468,1.559,1.559,0,0,1,.571-.388,1.423,1.423,0,0,0,.536-.342c.662-.593,1.6-.559,1.826.057a5.754,5.754,0,0,1,.114,1.358,2.984,2.984,0,0,0,.125,1.175,2.791,2.791,0,0,1,.194,1.027,2.655,2.655,0,0,0,.205,1.027,1.5,1.5,0,0,1,.228.582,1.7,1.7,0,0,0,.194.571,3.71,3.71,0,0,1,.171,1.027,2.634,2.634,0,0,0,.205,1.016,1.349,1.349,0,0,1,.217.582,4.471,4.471,0,0,0,.24.787,1.914,1.914,0,0,1,.159.434.671.671,0,0,0,.171.24,1.258,1.258,0,0,1,.228.593,2.419,2.419,0,0,0,.171.616,2.375,2.375,0,0,1,.182.662c.046.251.114.456.16.456s.171.194.274.434.308.639.456.913a3.618,3.618,0,0,1,.354.822c.046.194.114.342.171.342s.149.171.24.377a3.788,3.788,0,0,0,.525.8,1.556,1.556,0,0,1,.376.582,4.16,4.16,0,0,0,.833.981l.821.822.057-8.877c.034-4.9.1-8.98.16-9.094s.137-.194.183-.194a6.875,6.875,0,0,0,.137-1.54,4.461,4.461,0,0,1,.183-1.677,2.064,2.064,0,0,0,.137-.958c0-.787.159-1.529.342-1.529a1.623,1.623,0,0,0,.148-.7,2.15,2.15,0,0,1,.183-.822,1.163,1.163,0,0,0,.125-.6c0-.5.194-1.187.343-1.187.046,0,.1-.274.137-.6.046-.593.5-1.791.685-1.791.045,0,.091-.126.091-.274,0-.331.217-.981.342-.981.046,0,.114-.183.148-.411a4.056,4.056,0,0,1,.662-1.529c.046,0,.114-.137.148-.308a3.99,3.99,0,0,1,.662-1.4c.046,0,.091-.057.091-.126a4.4,4.4,0,0,1,.833-1.575,1.316,1.316,0,0,0,.365-.593,1.552,1.552,0,0,1,.445-.639,2.381,2.381,0,0,0,.513-.7,4.666,4.666,0,0,1,.8-1.027,4.523,4.523,0,0,0,.787-1,25.664,25.664,0,0,1,3.663-3.64,4.8,4.8,0,0,0,.981-.81,4.766,4.766,0,0,1,1.141-.9,2.816,2.816,0,0,0,.639-.411,2.22,2.22,0,0,1,.593-.388,2.054,2.054,0,0,0,.627-.434,3.111,3.111,0,0,1,.97-.548,4.8,4.8,0,0,0,.856-.4,1.026,1.026,0,0,1,.4-.228.825.825,0,0,0,.308-.16,6.147,6.147,0,0,1,1.951-.8c.217,0,.331-.057.331-.171,0-.137.148-.171.627-.171.343,0,.628-.046.628-.114S746.54,0,747.076,0h.913V7.3c0,4.268.046,7.3.1,7.3.251,0,.354.833.354,2.955a7.718,7.718,0,0,0,.137,2.385,3.991,3.991,0,0,1,.194,1.449,5.331,5.331,0,0,0,.125,1.312c.171,0,.343.707.343,1.381,0,.377.045.673.1.673.148,0,.354.65.354,1.13a.983.983,0,0,0,.125.548,2.207,2.207,0,0,1,.183.787,2.173,2.173,0,0,0,.217.822,1.235,1.235,0,0,1,.217.571,2.419,2.419,0,0,0,.171.616,2.407,2.407,0,0,1,.183.65,1.3,1.3,0,0,0,.228.593.412.412,0,0,1,.16.262,3.089,3.089,0,0,0,.228.582,2.822,2.822,0,0,1,.228.6c0,.068.046.137.091.137a4.986,4.986,0,0,1,.708,1.483.113.113,0,0,0,.1.114c.057,0,.16.171.251.377a1.584,1.584,0,0,0,.228.422,8.484,8.484,0,0,1,.673,1.415,4.226,4.226,0,0,0,.548.639,7.842,7.842,0,0,1,.673.833c.1.194.137-.08.171-1.415a7.822,7.822,0,0,1,.16-1.826,2.182,2.182,0,0,0,.194-.776,1.923,1.923,0,0,1,.251-.81,1.045,1.045,0,0,0,.171-.593c0-.445.205-1.118.342-1.118.046,0,.114-.217.148-.479a4.371,4.371,0,0,1,.639-1.575,1.516,1.516,0,0,0,.228-.434,1.714,1.714,0,0,1,.411-.571,1.474,1.474,0,0,0,.388-.628,1.6,1.6,0,0,1,.467-.673,2.152,2.152,0,0,0,.525-.65,11.427,11.427,0,0,1,2.294-2.339,4.943,4.943,0,0,0,.81-.639,5.11,5.11,0,0,1,1.015-.707,1.7,1.7,0,0,0,.559-.377,2.648,2.648,0,0,1,.821-.468,4.383,4.383,0,0,0,.822-.4,4.229,4.229,0,0,1,.8-.4,5.163,5.163,0,0,0,.8-.4,1.809,1.809,0,0,1,.981-.331c.149,0,.274-.046.274-.1,0-.194.822-.377,1.449-.331,1.015.091,1,.034,1.038,3.115a18.354,18.354,0,0,0,.137,2.682c.194,0,.342.753.342,1.746,0,.765.046,1.084.171,1.221a1.927,1.927,0,0,1,.251.81,2.611,2.611,0,0,0,.16.742,1.866,1.866,0,0,1,.171.662c.046.285.114.525.16.525.148,0,.342.673.342,1.152,0,.24.046.468.114.5a1.5,1.5,0,0,1,.183.628c.046.319.114.571.16.571a6.472,6.472,0,0,1,.685,1.438.658.658,0,0,0,.171.228,1.262,1.262,0,0,1,.228.593,4.522,4.522,0,0,0,.24.787,1.737,1.737,0,0,1,.16.479.116.116,0,0,0,.1.126c.125,0,.354.628.354.981,0,.148.046.274.091.274a4.986,4.986,0,0,1,.708,1.483.114.114,0,0,0,.114.114c.057,0,.16.217.24.491a3.508,3.508,0,0,0,.217.65,3.532,3.532,0,0,1,.171.548c.034.205.114.365.16.365a3.98,3.98,0,0,1,.65,1.483,1.212,1.212,0,0,0,.16.456,4.083,4.083,0,0,1,.65,1.575c.034.262.1.479.148.479.137,0,.342.673.342,1.118a1.029,1.029,0,0,0,.183.6,1.979,1.979,0,0,1,.24.981,4,4,0,0,0,.182,1.05,69.984,69.984,0,0,1,0,9.163,2.411,2.411,0,0,0-.148,1.187c0,1.016-.148,1.757-.354,1.757-.057,0-.1.194-.1.445,0,.468-.194,1.152-.342,1.152a1.675,1.675,0,0,0-.137.742,2.585,2.585,0,0,1-.182.89,1.852,1.852,0,0,0-.183.559,1.362,1.362,0,0,1-.228.571,1.439,1.439,0,0,0-.217.582,3.684,3.684,0,0,1-.673,1.563c-.046,0-.092.057-.092.126a1.733,1.733,0,0,1-.159.479,4.5,4.5,0,0,0-.24.787,1.258,1.258,0,0,1-.228.593.585.585,0,0,0-.171.24,5.246,5.246,0,0,1-.913,1.655,1.615,1.615,0,0,0-.343.4,4.831,4.831,0,0,1-.833,1.529,1.348,1.348,0,0,0-.365.582,1.317,1.317,0,0,1-.354.582,2.223,2.223,0,0,0-.445.639,3.733,3.733,0,0,1-.651.879,4.263,4.263,0,0,0-.639.8,18.79,18.79,0,0,1-2.693,2.91c-.616.6-1.495,1.472-1.94,1.94a5.7,5.7,0,0,1-1.175.993,3.481,3.481,0,0,0-.821.616,1.725,1.725,0,0,1-.616.456,1.727,1.727,0,0,0-.639.388,3.026,3.026,0,0,1-.708.468,2.609,2.609,0,0,0-.628.456,2.281,2.281,0,0,1-.65.468,1.915,1.915,0,0,0-.593.377,4.345,4.345,0,0,1-1.05.593,2.306,2.306,0,0,0-.719.342,3.321,3.321,0,0,1-.765.4,4.269,4.269,0,0,0-.924.468,1.247,1.247,0,0,1-.571.205,3.828,3.828,0,0,0-1.483.593,1.377,1.377,0,0,1-.57.217,1.667,1.667,0,0,0-.594.217,1.5,1.5,0,0,1-.628.24,4.092,4.092,0,0,0-.821.24,8.137,8.137,0,0,1-1.575.228c-.89.046-1.2.1-1.2.228s-.274.148-1.255.148a3.114,3.114,0,0,0-1.255.114,137.054,137.054,0,0,1-11.182,0Zm10.612-6.63a1.861,1.861,0,0,1,1.073-.331,2.442,2.442,0,0,0,.787-.171,3.033,3.033,0,0,1,.936-.171c.285,0,.513-.046.513-.114s.217-.16.491-.24a6.03,6.03,0,0,0,1.563-.616,5.855,5.855,0,0,1,.856-.4,3.768,3.768,0,0,0,.833-.422,1.031,1.031,0,0,1,.434-.217c.148-.034.274-.114.274-.16a2.549,2.549,0,0,1,.764-.4,4.431,4.431,0,0,0,.97-.536,3.271,3.271,0,0,1,.627-.422,2.483,2.483,0,0,0,.639-.445,1.846,1.846,0,0,1,.559-.377,4.2,4.2,0,0,0,.913-.662,4.516,4.516,0,0,1,.867-.65,56.932,56.932,0,0,0,5.705-5.774,2.44,2.44,0,0,1,.593-.753,1.306,1.306,0,0,0,.4-.582,1.546,1.546,0,0,1,.434-.673,3.427,3.427,0,0,0,.639-.867,1.828,1.828,0,0,1,.434-.6c.08-.034.148-.1.148-.16a4.912,4.912,0,0,1,.708-1.472.113.113,0,0,0,.091-.114,4.978,4.978,0,0,1,.708-1.483c.046,0,.091-.057.091-.126a1.736,1.736,0,0,1,.16-.479,4.49,4.49,0,0,0,.24-.787,1.261,1.261,0,0,1,.228-.593.634.634,0,0,0,.171-.388c0-.3.228-.936.343-.936.046,0,.114-.217.16-.479a2.367,2.367,0,0,1,.171-.6,2.316,2.316,0,0,0,.16-.787,2.13,2.13,0,0,1,.228-.856,2.644,2.644,0,0,0,.217-1.244,3.249,3.249,0,0,1,.183-1.187,19.566,19.566,0,0,0,.011-4.621,2.669,2.669,0,0,1-.194-.993,2.234,2.234,0,0,0-.137-.867c-.148,0-.342-.685-.342-1.21a1.04,1.04,0,0,0-.1-.559,1.153,1.153,0,0,1-.194-.571c-.034-.285-.114-.513-.16-.513s-.171-.205-.262-.445a1.408,1.408,0,0,0-.3-.513,1.187,1.187,0,0,1-.183-.536,3.016,3.016,0,0,0-.24-.765,1.406,1.406,0,0,1-.16-.445c0-.08-.046-.148-.091-.148a5.451,5.451,0,0,1-.708-1.438.659.659,0,0,0-.171-.228,1.261,1.261,0,0,1-.228-.593,4.491,4.491,0,0,0-.24-.787,1.74,1.74,0,0,1-.16-.479c0-.068-.046-.126-.091-.126a4.984,4.984,0,0,1-.707-1.483.113.113,0,0,0-.1-.114c-.057,0-.182-.205-.274-.445a1.584,1.584,0,0,0-.3-.513,1.436,1.436,0,0,1-.194-.582,1.127,1.127,0,0,0-.171-.571,1.676,1.676,0,0,1-.171-.6,1.684,1.684,0,0,0-.16-.593,3.772,3.772,0,0,1-.651-1.734,1.45,1.45,0,0,0-.148-.662c-.183,0-.274-.434-.331-1.643-.068-1.358-.228-1.632-.514-.936a2.7,2.7,0,0,1-.513.742,1.707,1.707,0,0,0-.354.422,2.137,2.137,0,0,1-.16.422,8.412,8.412,0,0,0-.285.856c-.08.262-.183.479-.228.479s-.125.342-.16.753a2.2,2.2,0,0,1-.183.879,3.8,3.8,0,0,0-.125,1.346c0,1.164-.137,1.928-.354,1.928a16.462,16.462,0,0,0-.1,2.624,16.462,16.462,0,0,0,.1,2.624c.228,0,.354.8.354,2.271a6.385,6.385,0,0,1-.149,1.837c-.205.411-.764.536-1.369.3a2.831,2.831,0,0,0-.833-.183c-.433,0-1.073-.217-1.073-.354,0-.057-.125-.1-.285-.1a4.679,4.679,0,0,1-1.768-.7c0-.057-.126-.1-.286-.1a3.876,3.876,0,0,1-1.826-.8,1.863,1.863,0,0,0-.593-.388,2.246,2.246,0,0,1-.639-.456,2.669,2.669,0,0,0-.719-.5,32.816,32.816,0,0,1-4.542-4.541,1.941,1.941,0,0,0-.377-.571,2.865,2.865,0,0,1-.433-.662,2.172,2.172,0,0,0-.445-.628,1.063,1.063,0,0,1-.3-.4,3.048,3.048,0,0,0-.228-.582,3.083,3.083,0,0,1-.228-.593c0-.08-.046-.148-.092-.148a4.986,4.986,0,0,1-.708-1.483.113.113,0,0,0-.1-.114c-.057,0-.16-.171-.251-.365a1.534,1.534,0,0,0-.228-.434,4.557,4.557,0,0,1-.639-1.54,1.214,1.214,0,0,0-.228-.6,1.346,1.346,0,0,1-.217-.6,1.151,1.151,0,0,0-.171-.513,1.427,1.427,0,0,1-.171-.616c-.046-.319-.114-.571-.16-.571-.137,0-.342-.673-.342-1.13a.948.948,0,0,0-.137-.559,3.146,3.146,0,0,1-.183-1.05,2.475,2.475,0,0,0-.137-.913c-.171,0-.342-.707-.342-1.358a1.59,1.59,0,0,0-.137-.787,4,4,0,0,1-.194-1.449,5.328,5.328,0,0,0-.125-1.312c-.24,0-.285-.822-.343-6.048l-.057-5.648-1.438,1.426a12.413,12.413,0,0,0-1.518,1.689,4.046,4.046,0,0,1-.651.844,6.2,6.2,0,0,0-.559.628,6.112,6.112,0,0,1-.8,1.518,2.521,2.521,0,0,0-.411.685c-.1.251-.228.456-.285.456s-.1.068-.1.148a1.415,1.415,0,0,1-.16.445,3.021,3.021,0,0,0-.24.765,1.188,1.188,0,0,1-.182.536,1.4,1.4,0,0,0-.3.513c-.091.24-.217.445-.262.445s-.114.251-.16.571a1.423,1.423,0,0,1-.171.616,1.151,1.151,0,0,0-.171.513,1.214,1.214,0,0,1-.228.6,1.812,1.812,0,0,0-.228.7,1.224,1.224,0,0,1-.194.593.881.881,0,0,0-.1.5c0,.479-.194,1.152-.342,1.152a2.475,2.475,0,0,0-.137.913,3.146,3.146,0,0,1-.183,1.05,1.591,1.591,0,0,0-.137.787c0,.65-.183,1.358-.342,1.358a5.863,5.863,0,0,0-.125,1.461,5.765,5.765,0,0,1-.183,1.632,13.985,13.985,0,0,0-.171,3.035c-.034,2.533-.057,2.887-.228,3.081-.194.205-.205.593-.205,4.541s.011,4.336.205,4.541c.171.194.194.6.228,4.279a23.367,23.367,0,0,0,.171,4.222,4.138,4.138,0,0,1,.171,1.324c.057,1.426-.1,1.928-.707,2.179a3.077,3.077,0,0,1-1.974,0,4.382,4.382,0,0,0-1.4-.171c-.982,0-1.712-.148-1.712-.354,0-.057-.125-.1-.285-.1a2.257,2.257,0,0,1-.662-.148,4.492,4.492,0,0,0-.787-.24,1.378,1.378,0,0,1-.571-.217,5.459,5.459,0,0,0-.97-.468,2.514,2.514,0,0,1-.833-.411c0-.046-.125-.126-.274-.16a2.711,2.711,0,0,1-.753-.468,2.725,2.725,0,0,0-.57-.4,23.127,23.127,0,0,1-3.708-3.754,2.423,2.423,0,0,0-.468-.719,1.665,1.665,0,0,1-.388-.582.818.818,0,0,0-.274-.411,2.04,2.04,0,0,1-.422-.616,1.4,1.4,0,0,0-.228-.422,8.194,8.194,0,0,1-.673-1.426.584.584,0,0,0-.171-.24,1.262,1.262,0,0,1-.228-.593,4.449,4.449,0,0,0-.24-.787,1.733,1.733,0,0,1-.159-.479.116.116,0,0,0-.1-.126c-.148,0-.354-.65-.354-1.152a.809.809,0,0,0-.1-.491c-.137-.091-.468.034-.468.171a5.887,5.887,0,0,1-.685,1.472c-.046,0-.114.251-.16.571a1.507,1.507,0,0,1-.182.628,85.981,85.981,0,0,0,.023,9.391,3.256,3.256,0,0,1,.183,1.187,3.323,3.323,0,0,0,.194,1.232,1.51,1.51,0,0,1,.228.628,1.957,1.957,0,0,0,.194.593,2.38,2.38,0,0,1,.171.833,1.542,1.542,0,0,0,.148.685c.125,0,.342.65.342.981,0,.148.046.274.091.274a5.45,5.45,0,0,1,.707,1.438.664.664,0,0,0,.171.228,1.262,1.262,0,0,1,.228.593,4.5,4.5,0,0,0,.24.787,2.163,2.163,0,0,1,.16.411,1.312,1.312,0,0,0,.285.377,2.637,2.637,0,0,1,.422.685c.08.217.171.388.217.388s.137.171.228.377a3.805,3.805,0,0,0,.525.8,1.636,1.636,0,0,1,.377.571.82.82,0,0,0,.274.411,2.045,2.045,0,0,1,.422.616,3.848,3.848,0,0,0,.651.867,4.112,4.112,0,0,1,.662.89,33.4,33.4,0,0,0,4.416,4.382,4.353,4.353,0,0,1,.856.65,3.141,3.141,0,0,0,.787.582,1.918,1.918,0,0,1,.571.377,2.485,2.485,0,0,0,.639.445,3.287,3.287,0,0,1,.628.422,3.946,3.946,0,0,0,.935.513,4.75,4.75,0,0,1,.8.411,4.742,4.742,0,0,0,.833.411,2.547,2.547,0,0,1,.765.4c0,.046.125.126.274.16a1.034,1.034,0,0,1,.434.217,4.717,4.717,0,0,0,1.552.593,1.486,1.486,0,0,1,.514.205,3.5,3.5,0,0,0,1.666.582,1.792,1.792,0,0,1,.81.24,1.089,1.089,0,0,0,.6.171,2.762,2.762,0,0,1,.844.16,5.016,5.016,0,0,0,1.21.217,1.922,1.922,0,0,1,.97.24c.171.148.571.183,2.145.205A48.03,48.03,0,0,0,746.62,84.541Z" transform="translate(0 0)" fill="#171e30"/>
  </g>
</svg>
