<svg xmlns="http://www.w3.org/2000/svg" width="74.583" height="91.178" viewBox="0 0 74.583 91.178">
  <g id="layer101" transform="translate(-723.99)">
    <path id="Path_20252" data-name="Path 20252" d="M756.3,91.12c-.285-.034-.433-.1-.433-.217s-.228-.16-1.2-.16a3.57,3.57,0,0,1-1.2-.1c0-.057-.319-.137-.707-.16a8.311,8.311,0,0,1-2.44-.456,15.016,15.016,0,0,0-1.573-.593,13.843,13.843,0,0,1-1.653-.638,2.287,2.287,0,0,0-.536-.217.413.413,0,0,1-.262-.16,1.3,1.3,0,0,0-.57-.228,1.345,1.345,0,0,1-.6-.217,4.538,4.538,0,0,0-.844-.445,4.342,4.342,0,0,1-1.06-.638,4.333,4.333,0,0,0-1.06-.6,4.069,4.069,0,0,1-.992-.57,6.451,6.451,0,0,0-.855-.6,1.77,1.77,0,0,1-.524-.4c0-.057-.114-.125-.262-.171a1.661,1.661,0,0,1-.559-.319,7.645,7.645,0,0,0-1.357-1.072,63.341,63.341,0,0,1-5.335-5.312,9.694,9.694,0,0,0-1.117-1.425,2.167,2.167,0,0,1-.331-.524,1.193,1.193,0,0,0-.331-.445,1.707,1.707,0,0,1-.41-.57,1.948,1.948,0,0,0-.365-.581,7.932,7.932,0,0,1-.878-1.721,1.354,1.354,0,0,0-.331-.4,3.748,3.748,0,0,1-.889-1.744A.837.837,0,0,0,727.49,70a4.4,4.4,0,0,1-.65-1.391c-.034-.182-.114-.319-.16-.319s-.16-.194-.239-.422a2.647,2.647,0,0,0-.217-.547,1.635,1.635,0,0,1-.182-.57,1.551,1.551,0,0,0-.228-.6,1.234,1.234,0,0,1-.217-.57,2.912,2.912,0,0,0-.182-.638,2.85,2.85,0,0,1-.182-.821,1.266,1.266,0,0,0-.148-.616c-.16,0-.342-.707-.342-1.288a1.215,1.215,0,0,0-.194-.787c-.148-.16-.205-.479-.239-1.265a5.568,5.568,0,0,0-.171-1.322,63.094,63.094,0,0,1,.011-8.812,2.058,2.058,0,0,0,.137-.958c0-.821.16-1.528.353-1.528.057,0,.1-.274.1-.616,0-.616.182-1.322.342-1.322.046,0,.114-.262.148-.581a2.6,2.6,0,0,1,.171-.718,1.753,1.753,0,0,0,.182-.547,1.36,1.36,0,0,1,.228-.57,1.439,1.439,0,0,0,.217-.581,3.679,3.679,0,0,1,.673-1.562.113.113,0,0,0,.091-.114,4.982,4.982,0,0,1,.707-1.482c.046,0,.091-.057.091-.125a3.979,3.979,0,0,1,.889-1.607,1.837,1.837,0,0,0,.467-.673,3.039,3.039,0,0,1,.57-.866,2.8,2.8,0,0,0,.524-.73,14.946,14.946,0,0,1,3.032-2.918,2.509,2.509,0,0,0,.673-.479c0-.057.205-.182.445-.274a3.108,3.108,0,0,0,.752-.467,1.007,1.007,0,0,1,.7-.3c.593,0,.764.376.821,1.7a4.723,4.723,0,0,0,.16,1.243,2.9,2.9,0,0,1,.182.958,2.639,2.639,0,0,0,.205.98,1.233,1.233,0,0,1,.217.57,2.452,2.452,0,0,0,.194.65,4.234,4.234,0,0,1,.182,1.083,2.612,2.612,0,0,0,.205,1,1.213,1.213,0,0,1,.228.6,1.322,1.322,0,0,0,.171.513.322.322,0,0,1,.1.251,1.58,1.58,0,0,0,.217.593,3.215,3.215,0,0,1,.285.775c.046.194.137.365.182.365s.16.217.239.49.205.638.285.844a1.735,1.735,0,0,1,.16.479.116.116,0,0,0,.1.125c.057,0,.148.114.194.262a7.711,7.711,0,0,0,1.231,2.394,2.771,2.771,0,0,1,.479.73,3.54,3.54,0,0,0,.5.741,11.484,11.484,0,0,0,1.493,1.459c.034,0,.068-3.933.057-8.744-.011-7.957.011-8.812.182-9.382a8.2,8.2,0,0,0,.228-1.961,3.7,3.7,0,0,1,.182-1.482,2.057,2.057,0,0,0,.137-.958c0-.821.16-1.528.353-1.528.057,0,.1-.251.1-.547a2.39,2.39,0,0,1,.228-.992,2.195,2.195,0,0,0,.228-.8,1.9,1.9,0,0,1,.217-.764,3.922,3.922,0,0,0,.285-.958,2.262,2.262,0,0,1,.16-.661,10.951,10.951,0,0,0,.593-1.813c.08-.228.171-.422.217-.422s.125-.217.171-.479a2.378,2.378,0,0,1,.171-.6,1.926,1.926,0,0,0,.228-.536c.08-.239.182-.433.228-.433s.148-.182.228-.4.194-.4.251-.4a.116.116,0,0,0,.1-.125,7.182,7.182,0,0,1,.673-1.471,10.692,10.692,0,0,0,.889-1.5,2.422,2.422,0,0,1,.456-.627,2.662,2.662,0,0,0,.479-.684,4.361,4.361,0,0,1,.764-1,5.886,5.886,0,0,0,.844-1.083c.262-.513.274-.524,1.459-1.6a8.961,8.961,0,0,0,1.117-1.151,2.58,2.58,0,0,1,.821-.684,3.587,3.587,0,0,0,.65-.4c.1-.114.581-.5,2.063-1.687a3.479,3.479,0,0,1,.684-.422,3.66,3.66,0,0,0,.684-.445A25.939,25.939,0,0,1,764.255.787c.274-.091.5-.194.5-.239s.251-.091.559-.091c.456,0,.57-.034.616-.228S766.09,0,766.74,0h.752V7.353c0,6.817.011,7.387.194,7.661s.205.65.239,2.645a10.35,10.35,0,0,0,.171,2.508,4.895,4.895,0,0,1,.182,1.425,3.87,3.87,0,0,0,.205,1.516,2.64,2.64,0,0,1,.228,1.037,3.028,3.028,0,0,0,.171.9,2.37,2.37,0,0,1,.171.832,1.545,1.545,0,0,0,.148.684c.148,0,.342.673.342,1.151a.88.88,0,0,0,.1.5,1.222,1.222,0,0,1,.194.593,1.805,1.805,0,0,0,.228.7,1.213,1.213,0,0,1,.228.6c.046.239.114.445.171.445s.125.114.171.262a15.536,15.536,0,0,0,.684,1.642,1.722,1.722,0,0,1,.16.547,1.65,1.65,0,0,0,.319.616,7.24,7.24,0,0,1,.616.98,8.01,8.01,0,0,0,1.243,2,4.137,4.137,0,0,1,.627.866c.41.832.5.65.5-1.015,0-1.414.125-2.246.342-2.246a1.547,1.547,0,0,0,.148-.684,2.369,2.369,0,0,1,.171-.832,2.437,2.437,0,0,0,.171-.764,3.606,3.606,0,0,1,.547-1.6c.057-.091.182-.365.285-.593s.217-.433.262-.433.148-.182.228-.4.182-.4.239-.4.125-.125.16-.285a6.432,6.432,0,0,1,1.2-1.927,1.276,1.276,0,0,0,.353-.49,8.475,8.475,0,0,1,1.824-1.881,14,14,0,0,0,1.459-1.208,1.662,1.662,0,0,1,.559-.319c.148-.046.262-.114.262-.171a1.686,1.686,0,0,1,.547-.4c.3-.171.616-.376.707-.445a6.524,6.524,0,0,1,.889-.41,2.672,2.672,0,0,0,.707-.342,6.139,6.139,0,0,1,1.642-.673,1.739,1.739,0,0,0,.513-.182,2.532,2.532,0,0,1,1.71-.057.919.919,0,0,1,.353.422,20.038,20.038,0,0,1,.114,2.816,11.8,11.8,0,0,0,.171,2.987,5.541,5.541,0,0,1,.171,1.345,1.982,1.982,0,0,0,.1.878c.148,0,.353.65.353,1.151,0,.239.046.467.114.5a1.5,1.5,0,0,1,.182.627c.046.319.114.57.16.57.148,0,.342.673.342,1.151a.879.879,0,0,0,.1.5,1.173,1.173,0,0,1,.194.593,3.612,3.612,0,0,0,.228.821,1.239,1.239,0,0,1,.16.445c0,.068.046.137.1.137s.171.194.239.433a11.458,11.458,0,0,0,.467,1.083,4.127,4.127,0,0,1,.331.8,3.463,3.463,0,0,0,.285.707,3.067,3.067,0,0,1,.285.707,3.738,3.738,0,0,0,.342.8,9.347,9.347,0,0,1,.8,1.881,4.346,4.346,0,0,0,.661,1.322.561.561,0,0,1,.137.274,8.632,8.632,0,0,0,.638,1.493,1.544,1.544,0,0,1,.16.456,1.443,1.443,0,0,0,.171.456,3.325,3.325,0,0,1,.239.741,14.371,14.371,0,0,0,.627,2.223,4.28,4.28,0,0,1,.205,1,2.771,2.771,0,0,0,.262.98,61.753,61.753,0,0,1,.011,8.835,1.01,1.01,0,0,0-.148.593,7.861,7.861,0,0,1-.342,2.1,9.283,9.283,0,0,0-.285,1.163,13.843,13.843,0,0,1-.5,2.223c-.046.125-.148.433-.217.684a13.882,13.882,0,0,1-.638,1.824,5.47,5.47,0,0,0-.239.6c-.034.137-.125.251-.182.251s-.1.057-.1.137a5.2,5.2,0,0,1-.353.878,11.487,11.487,0,0,0-.524,1.3,1.1,1.1,0,0,1-.251.536c-.057,0-.137.137-.182.308a2.207,2.207,0,0,1-.388.707,6.494,6.494,0,0,0-.627,1.072,3.848,3.848,0,0,1-.616.969,2.386,2.386,0,0,0-.467.673,1.408,1.408,0,0,1-.319.5,1.583,1.583,0,0,0-.308.49,5.39,5.39,0,0,1-.992,1.322,3.843,3.843,0,0,0-.445.661,2.712,2.712,0,0,1-.707.775,1.524,1.524,0,0,0-.433.388,39.153,39.153,0,0,1-4.332,4.218,2.232,2.232,0,0,0-.581.342,7.309,7.309,0,0,1-1.174.935,1.519,1.519,0,0,0-.433.388,1.5,1.5,0,0,1-.616.388,2.474,2.474,0,0,0-.707.422,4.592,4.592,0,0,1-.992.6,5.022,5.022,0,0,0-1.026.638,3.62,3.62,0,0,1-.969.57c-.342.148-.832.365-1.083.49a1.879,1.879,0,0,1-.638.239.521.521,0,0,0-.331.171.489.489,0,0,1-.251.171,1.7,1.7,0,0,0-.467.16,23.042,23.042,0,0,1-2.291.878c-.559.194-1.117.4-1.243.456a8.4,8.4,0,0,1-2.212.41c-.4.023-.718.1-.718.16a3.57,3.57,0,0,1-1.2.1c-.935,0-1.2.034-1.2.16,0,.1-.205.171-.593.228C765.463,91.2,757.027,91.189,756.3,91.12Z" fill="#171e30"/>
  </g>
</svg>
