<svg id="layer101" xmlns="http://www.w3.org/2000/svg" width="91.002" height="91.002" viewBox="0 0 91.002 91.002">
  <path id="Path_8462" data-name="Path 8462" d="M5.119,90.763a5.981,5.981,0,0,1-.933-.341,1.146,1.146,0,0,0-.432-.1c-.6,0-2.673-1.843-3.049-2.73-.091-.216-.3-.728-.444-1.138L0,85.712V10.147l.364-1a5.252,5.252,0,0,1,1.9-2.707,7.739,7.739,0,0,1,4.22-1.831,56.489,56.489,0,0,1,6.837-.171h5.756l.068-1.32c.08-1.627.307-2.2,1.149-2.753C20.828.011,20.885,0,22.011,0a2.709,2.709,0,0,1,1.695.3c.967.535,1.32,1.365,1.32,3.083V4.436h38.2l.057-1.229c.057-1.388.193-1.922.6-2.4C64.384.2,65,0,66.272,0c1.081,0,1.149.011,1.684.375.876.58,1.138,1.194,1.194,2.787l.034,1.274h6.984c8.679,0,9.191.057,11.421,1.251a8.138,8.138,0,0,1,2.6,2.514c.08.216.193.489.25.614s.193.58.33,1.012C91,10.6,91,10.647,91,47.935V85.269l-.273.91a5.283,5.283,0,0,1-1.1,2.332,7.977,7.977,0,0,1-2.423,1.82c-.193.045-.785.216-1.308.375l-.967.3L45.4,90.991C6.291,90.991,5.847,90.979,5.119,90.763Zm78.967-5.289a2.593,2.593,0,0,0,1.3-1.092c.137-.273.159-5.3.148-36.458-.011-35.491-.011-36.151-.228-36.571a2.368,2.368,0,0,0-.694-.739l-.478-.319-7.474-.034-7.485-.034-.034,2.935c-.034,2.776-.046,2.969-.3,3.5a2.893,2.893,0,0,1-5.4-.182,12.474,12.474,0,0,1-.193-3.413V10.238H25.037L25,13.173c-.034,2.776-.045,2.958-.3,3.492a2.863,2.863,0,0,1-1.547,1.547,2.9,2.9,0,0,1-3.731-1.354c-.25-.512-.262-.66-.3-3.583l-.045-3.049-6.1.034c-6.109.034-6.109.034-6.586.3a2.213,2.213,0,0,0-.762.683l-.284.421L5.346,47.867c0,31.134.023,36.242.159,36.515a2.352,2.352,0,0,0,1.206,1.035l.512.239H45.41C80.628,85.656,83.642,85.644,84.086,85.474Z" transform="translate(0 0)" fill="#171e30"/>
  <path id="Path_8463" data-name="Path 8463" d="M1502.892,2530.422a9.816,9.816,0,0,1-.967-.479c-.421-.239-1.047-.592-1.388-.773-1.513-.842-3.64-2.024-4.322-2.424-.41-.227-1.024-.578-1.365-.761-.762-.41-1.377-.763-3.015-1.684-.682-.4-1.536-.864-1.877-1.059-1.467-.8-4.618-2.56-4.721-2.639a36.24,36.24,0,0,0-3.64-.137c-3.379-.034-3.549-.057-4.152-.307a3.514,3.514,0,0,1-2.037-1.934l-.41-.865v-12.626l.387-.831a3.615,3.615,0,0,1,2.024-1.968c.637-.25.8-.261,4.187-.307,1.933-.023,3.571-.08,3.64-.137.1-.08,2.992-1.707,4.721-2.65.341-.193,1.319-.739,2.161-1.218s2-1.126,2.56-1.421,1.081-.581,1.138-.627c.1-.078,2.662-1.512,4.72-2.649.341-.193.99-.547,1.422-.8a3.046,3.046,0,0,1,1.547-.5,1.774,1.774,0,0,1,1.889.8l.318.479v36.173l-.307.523a1.93,1.93,0,0,1-.706.716A3.674,3.674,0,0,1,1502.892,2530.422Zm-3.742-19.292c.011-7.85-.011-10.432-.1-10.432-.137,0-1,.432-8.509,4.22l-4.141,2.094-2.093.057c-2.07.057-2.093.057-2.309.341-.2.262-.227.512-.227,3.617a26.916,26.916,0,0,0,.114,3.549c.239.444.568.513,2.673.569l2.047.068,2.275,1.171c1.251.649,2.639,1.377,3.071,1.6s1.979,1.024,3.413,1.763,2.821,1.468,3.071,1.6a1.346,1.346,0,0,0,.569.228C1499.081,2521.56,1499.127,2517.956,1499.15,2511.13Z" transform="translate(-1458.221 -2463.274)" fill="#171e30"/>
  <path id="Path_8464" data-name="Path 8464" d="M5507.189,2956.889a3.128,3.128,0,0,1-1.658-1.56c-.615-1.217-.4-2.411.682-3.742a18.18,18.18,0,0,0,2.424-4.38,14.689,14.689,0,0,0,1.057-4.584,11.544,11.544,0,0,0-.045-3.185,12.493,12.493,0,0,0-1.355-4.857,15.569,15.569,0,0,0-2.047-3.025,3.124,3.124,0,0,1-.352-4.278,3.4,3.4,0,0,1,4.242-.716,15.7,15.7,0,0,1,3.846,5.119,22.4,22.4,0,0,1,1.842,5.334c.057.376.182,1.206.273,1.832a16.354,16.354,0,0,1,.012,4.663c-.092.626-.215,1.5-.285,1.935a10.851,10.851,0,0,1-.34,1.479c-.113.375-.295.968-.4,1.309-.877,2.912-3.449,7.416-4.711,8.247A3.574,3.574,0,0,1,5507.189,2956.889Z" transform="translate(-5442.568 -2892.834)" fill="#171e30"/>
  <path id="Path_8465" data-name="Path 8465" d="M4691.854,3570.576a3.459,3.459,0,0,1-2.071-1.7,4.652,4.652,0,0,1-.126-2.309c.126-.512.273-.729,1.048-1.514a3.585,3.585,0,0,0,1.058-1.479,2.275,2.275,0,0,0,.046-1.559c-.114-.512-.25-.717-1.024-1.513a3.431,3.431,0,0,1-1.069-1.479,3.152,3.152,0,0,1,3.617-4.151,4.023,4.023,0,0,1,2.037,1.161,8.965,8.965,0,0,1,1.433,11.761,9.811,9.811,0,0,1-2.594,2.48A4.046,4.046,0,0,1,4691.854,3570.576Z" transform="translate(-4636.195 -3514.371)" fill="#171e30"/>
</svg>
