<svg xmlns="http://www.w3.org/2000/svg" width="20.5" height="20.5" viewBox="0 0 20.5 20.5">
  <path id="smileys" d="M15.015,8.809a.8.8,0,0,1-.8-.8.4.4,0,0,0-.8,0,.8.8,0,0,1-1.6,0,2,2,0,0,1,4,0A.8.8,0,0,1,15.015,8.809Zm-6.286-.8a2,2,0,0,0-4,0,.8.8,0,1,0,1.6,0,.4.4,0,0,1,.8,0,.8.8,0,0,0,1.6,0Zm6.825,11.015a.8.8,0,0,0-.83-1.37,8.725,8.725,0,1,1,2.708-2.6.8.8,0,1,0,1.331.89A10.245,10.245,0,0,0,3,3,10.251,10.251,0,0,0,15.554,19.023Zm-1.86-7.371a.8.8,0,0,0-.638.318,4.065,4.065,0,0,1-5.611,0,.8.8,0,1,0-1.19,1.061,5.631,5.631,0,0,0,7.991,0,.8.8,0,0,0-.552-1.38Z" fill="#868686"/>
</svg>
