<svg xmlns="http://www.w3.org/2000/svg" width="40.049" height="40" viewBox="0 0 40.049 40">
  <g id="layer101" transform="translate(-1496 -1508.654)">
    <path id="Path_19761" data-name="Path 19761" d="M1514.777,1548.641a20.1,20.1,0,0,1-10.037-3.454,20.9,20.9,0,0,1-5-4.876,20.243,20.243,0,0,1-3.565-8.913,16.638,16.638,0,0,1-.178-2.734,17.585,17.585,0,0,1,.2-2.978,20.088,20.088,0,0,1,16.754-16.87,9.657,9.657,0,0,1,1.769-.151.518.518,0,0,1,.409.458c.031.16.045,3.209.031,10.028-.013,10.718,0,9.975-.258,10.451-.071.12-1.369,1.4-3.641,3.57-1.942,1.863-4.454,4.267-5.583,5.352-1.165,1.116-2.112,2.058-2.187,2.178-.44.689-.2,1.173,1.076,2.2a18.291,18.291,0,0,0,22.991-.062c.845-.68,1.173-1.1,1.173-1.529,0-.458-.138-.614-3.045-3.4-.9-.867-1.925-1.845-2.267-2.178s-1.36-1.311-2.267-2.178c-3.97-3.805-4.027-3.863-4.139-4.179-.084-.24-.084-.484-.1-10.26-.006-6.879-.016-9.159.048-9.941.038-.468.318-.5.409-.51a8.337,8.337,0,0,1,1.69.151,19.825,19.825,0,0,1,7.344,2.672,18.738,18.738,0,0,1,3.774,2.974,19.93,19.93,0,0,1,5.806,12.2,29.87,29.87,0,0,1-.027,4.134,19.185,19.185,0,0,1-.938,4.205A20.055,20.055,0,0,1,1521.2,1548a21.222,21.222,0,0,1-3.018.565C1517.635,1548.627,1515.257,1548.681,1514.777,1548.641Z" transform="translate(0)" fill="#171e30"/>
    <path id="Path_19762" data-name="Path 19762" d="M4323.053,8006.509c-.377-.191-.5-.467-.5-1.151v-.48l-.578-.019c-.551-.018-.583-.021-.76-.146a1.183,1.183,0,0,1-.3-.333.837.837,0,0,1,.066-.88c.263-.324.312-.342.974-.355l.6-.018v-.471c0-.6.019-.813.254-1.044a.854.854,0,0,1,1.328.128.476.476,0,0,1,.084.171,2.372,2.372,0,0,1,.067.6l.022.6.6.023c.578.022.609.026.769.151a.821.821,0,0,1,.1,1.3c-.231.235-.413.284-1.014.284h-.471l-.018.6c-.013.663-.031.711-.36.978A.828.828,0,0,1,4323.053,8006.509Z" transform="translate(-2812.268 -6463.847)" fill="#171e30"/>
    <path id="Path_19763" data-name="Path 19763" d="M6901.881,8008.566a.981.981,0,0,1-.458-.506c-.026-.1-.04-.867-.031-2.138,0,0,.006-1.444.012-1.895a.736.736,0,0,1,.8-.615.753.753,0,0,1,.86.638,17.231,17.231,0,0,1,.04,2.067c-.013,1.8-.018,1.884-.106,2.053A.9.9,0,0,1,6901.881,8008.566Z" transform="translate(-5381.361 -6465.882)" fill="#171e30"/>
  </g>
</svg>
